<?xml version="1.0" encoding="UTF-8"?>
<svg width="564px" height="172px" viewBox="0 0 564 172" version="1.1" xmlns="http://www.w3.org/2000/svg" xmlns:xlink="http://www.w3.org/1999/xlink">
    <!-- Generator: Sketch 48.2 (47327) - http://www.bohemiancoding.com/sketch -->
    <title>apple-download</title>
    <desc>Created with Sketch.</desc>
    <defs></defs>
    <g id="Page-1" stroke="none" stroke-width="1" fill="none" fill-rule="evenodd">
        <g id="apple-download" transform="translate(-2.000000, -2.000000)" fill-rule="nonzero">
            <path d="M547.791822,176 L19.8968296,176 C8.92811852,176 0,166.6368 0,155.1748 L0,20.7944 C0,9.328 8.92811852,0 19.8968296,0 L547.791822,0 C558.756326,0 568,9.328 568,20.7944 L568,155.1748 C568,166.6368 558.756326,176 547.791822,176 Z" id="Shape"></path>
            <path d="M548.332633,172.307692 L19.688434,172.307692 C10.7603557,172.307692 3.51340206,164.743654 3.51340206,155.405553 L3.51340206,20.616512 C3.51340206,11.2828244 10.7603557,3.69230769 19.688434,3.69230769 L548.328419,3.69230769 C557.264924,3.69230769 564.482385,11.2828244 564.482385,20.616512 L564.486598,155.405553 C564.486598,164.743654 557.264924,172.307692 548.332633,172.307692 Z" id="Shape" stroke="#272727" stroke-width="3" fill="#151515"></path>
            <g id="Group" transform="translate(54.000000, 27.000000)" fill="#272727">
                <path d="M73.3470243,60.6822249 C73.2249091,46.4933964 84.4595043,39.5904852 84.9732302,39.2691124 C78.610609,29.5706982 68.7487567,28.2455858 65.2832125,28.139929 C57.0004356,27.2286391 48.9660998,33.3215148 44.7468103,33.3215148 C40.4433035,33.3215148 33.9459345,28.2279763 26.9432614,28.3776568 C17.9320043,28.5229349 9.50184704,33.9774675 4.87831422,42.4476213 C-4.66351216,59.7181065 2.45285438,85.0977515 11.5946483,99.0576568 C16.1676507,105.894533 21.5112419,113.528237 28.5054933,113.259692 C35.3481535,112.964734 37.9041502,108.69884 46.1616619,108.69884 C54.343378,108.69884 56.7435726,113.259692 63.8767826,113.088 C71.2205361,112.964734 75.8440689,106.220308 80.2570583,99.3217988 C85.5416974,91.4855858 87.6639747,83.7682367 87.7481921,83.3720237 C87.5755465,83.3103905 73.4859829,77.688568 73.3470243,60.6822249 Z" id="Shape"></path>
                <path d="M59.8722474,18.9565917 C63.5525458,14.1448047 66.0706448,7.59848521 65.3716407,0.955313609 C60.044893,1.20184615 53.3833001,4.80738462 49.5471996,9.51351479 C46.1532402,13.6605444 43.1214154,20.4577988 43.9046368,26.8500355 C49.8882799,27.3166864 56.031936,23.6935385 59.8722474,18.9565917 Z" id="Shape"></path>
            </g>
            <g id="Group" transform="translate(178.012371, 78.769231)" fill="#272727">
                <path d="M47.748993,58.6789197 L38.208623,58.6789197 L32.9826344,41.6931453 L14.8177027,41.6931453 L9.8395704,58.6789197 L0.551257743,58.6789197 L18.5481512,0.851678632 L29.6638795,0.851678632 L47.748993,58.6789197 Z M31.407276,34.5668547 L26.6812011,19.4669402 C26.1812874,17.924359 25.2444743,14.2916889 23.8623599,8.57327521 L23.6943217,8.57327521 C23.1439965,11.0327145 22.2575949,14.6653846 21.0393178,19.4669402 L16.397262,34.5668547 L31.407276,34.5668547 Z" id="Shape"></path>
                <path d="M94.03092,37.3174291 C94.03092,44.4089573 92.1782986,50.0143932 88.4730558,54.1293915 C85.154301,57.7924786 81.0331636,59.6218496 76.1138447,59.6218496 C70.8038369,59.6218496 66.9893693,57.6490838 64.6662409,53.7035521 L64.4982027,53.7035521 L64.4982027,75.6690393 L55.5417655,75.6690393 L55.5417655,30.7082291 C55.5417655,26.2499521 55.4283397,21.6743521 55.20989,16.9814291 L63.0866816,16.9814291 L63.5865953,23.5906291 L63.7546336,23.5906291 C66.7415129,18.6109162 71.2743439,16.1254051 77.3573275,16.1254051 C82.1128092,16.1254051 86.0827121,18.0677538 89.2586345,21.9567966 C92.4429588,25.8501846 94.03092,30.968947 94.03092,37.3174291 Z M84.9064446,37.6563624 C84.9064446,33.597853 84.0242439,30.2519726 82.2514407,27.6187214 C80.3148002,24.8724923 77.7144087,23.4993778 74.4544673,23.4993778 C72.2447647,23.4993778 70.2367079,24.2641504 68.4428999,25.7719692 C66.644891,27.2928239 65.4686234,29.2786256 64.9182982,31.738065 C64.6410352,32.8852239 64.5024036,33.8238085 64.5024036,34.5625094 L64.5024036,41.514988 C64.5024036,44.5480068 65.4014081,47.107388 67.1994171,49.1974769 C68.997426,51.2875658 71.3331573,52.3304376 74.2066109,52.3304376 C77.5799782,52.3304376 80.2055754,50.9833949 82.0834025,48.298 C83.9654306,45.6082598 84.9064446,42.0624957 84.9064446,37.6563624 Z" id="Shape"></path>
                <path d="M140.396866,37.3174291 C140.396866,44.4089573 138.544245,50.0143932 134.834801,54.1293915 C131.520247,57.7924786 127.39911,59.6218496 122.479791,59.6218496 C117.169783,59.6218496 113.355315,57.6490838 111.036388,53.7035521 L110.86835,53.7035521 L110.86835,75.6690393 L101.911913,75.6690393 L101.911913,30.7082291 C101.911913,26.2499521 101.798487,21.6743521 101.580037,16.9814291 L109.456829,16.9814291 L109.956742,23.5906291 L110.124781,23.5906291 C113.107459,18.6109162 117.64029,16.1254051 123.727475,16.1254051 C128.478755,16.1254051 132.448658,18.0677538 135.632983,21.9567966 C138.804704,25.8501846 140.396866,30.968947 140.396866,37.3174291 Z M131.272391,37.6563624 C131.272391,33.597853 130.385989,30.2519726 128.613186,27.6187214 C126.676545,24.8724923 124.084556,23.4993778 120.820413,23.4993778 C118.60651,23.4993778 116.602654,24.2641504 114.804645,25.7719692 C113.006636,27.2928239 111.834569,29.2786256 111.284244,31.738065 C111.011182,32.8852239 110.86835,33.8238085 110.86835,34.5625094 L110.86835,41.514988 C110.86835,44.5480068 111.767354,47.107388 113.556961,49.1974769 C115.35497,51.2832205 117.690701,52.3304376 120.572557,52.3304376 C123.945924,52.3304376 126.571521,50.9833949 128.449349,48.298 C130.331377,45.6082598 131.272391,42.0624957 131.272391,37.6563624 Z" id="Shape"></path>
                <path d="M192.236657,42.4622632 C192.236657,47.3811419 190.585682,51.3831624 187.271128,54.4726701 C183.628899,57.8489675 178.558346,59.5349436 172.042664,59.5349436 C166.026896,59.5349436 161.204199,58.335641 157.553568,55.9326906 L159.62884,48.211094 C163.560935,50.6705333 167.875316,51.9045983 172.576185,51.9045983 C175.949553,51.9045983 178.57515,51.1137538 180.461379,49.5407556 C182.339206,47.9677573 183.276019,45.8559419 183.276019,43.2226906 C183.276019,40.8762291 182.503043,38.8991179 180.952891,37.2957026 C179.41114,35.6922872 176.835954,34.2018496 173.239936,32.8243897 C163.45171,29.0483248 158.561798,23.516759 158.561798,16.2427282 C158.561798,11.4889709 160.275788,7.59123761 163.707968,4.5582188 C167.127546,1.5208547 171.689784,0.00434529915 177.394681,0.00434529915 C182.482038,0.00434529915 186.7082,0.921203419 190.081567,2.75057436 L187.842458,10.3027043 C184.691741,8.52982222 181.129331,7.6433812 177.142624,7.6433812 C173.991907,7.6433812 171.530147,8.44726154 169.765746,10.0463316 C168.274407,11.475935 167.526637,13.2184 167.526637,15.2824171 C167.526637,17.5680444 168.379431,19.4582496 170.093421,20.9443419 C171.58476,22.3174564 174.294376,23.8035487 178.226471,25.4069641 C183.036565,27.410147 186.569568,29.7522632 188.842285,32.4376581 C191.1066,35.1143624 192.236657,38.464588 192.236657,42.4622632 Z" id="Shape"></path>
                <path d="M221.849193,23.9339077 L211.976947,23.9339077 L211.976947,44.1786564 C211.976947,49.3278359 213.716143,51.900253 217.202936,51.900253 C218.8035,51.900253 220.131002,51.7568581 221.181241,51.4700684 L221.429097,58.5051077 C219.664696,59.1873197 217.341567,59.5305983 214.463913,59.5305983 C210.926708,59.5305983 208.16248,58.4138564 206.167026,56.1847179 C204.179974,53.9512342 203.180146,50.2055863 203.180146,44.9434291 L203.180146,23.9252171 L197.298809,23.9252171 L197.298809,16.9727385 L203.180146,16.9727385 L203.180146,9.33804786 L211.976947,6.5918188 L211.976947,16.9727385 L221.849193,16.9727385 L221.849193,23.9339077 Z" id="Shape"></path>
                <path d="M266.391924,37.4868957 C266.391924,43.896212 264.619121,49.1583692 261.081916,53.2733675 C257.372473,57.5100342 252.448953,59.6218496 246.311357,59.6218496 C240.396411,59.6218496 235.68714,57.5925949 232.175141,53.5340855 C228.663143,49.4755761 226.907143,44.3524684 226.907143,38.1777983 C226.907143,31.7163385 228.713554,26.4237641 232.338979,22.3087658 C235.956001,18.1894222 240.837512,16.1297504 246.975108,16.1297504 C252.890053,16.1297504 257.649736,18.1590051 261.241553,22.2218598 C264.677934,26.1630462 266.391924,31.2513915 266.391924,37.4868957 Z M257.09941,37.7867214 C257.09941,33.9411316 256.30543,30.6430496 254.696464,27.8924752 C252.818637,24.5639761 250.134226,22.9040718 246.655835,22.9040718 C243.055616,22.9040718 240.320794,24.5683214 238.442967,27.8924752 C236.834001,30.6473949 236.04002,33.9976205 236.04002,37.9605333 C236.04002,41.8061231 236.834001,45.1042051 238.442967,47.8504342 C240.379607,51.1789333 243.085023,52.8388376 246.576017,52.8388376 C249.995595,52.8388376 252.680005,51.1441709 254.616646,47.7635282 C256.267621,44.9608103 257.09941,41.6279658 257.09941,37.7867214 Z" id="Shape"></path>
                <path d="M295.504546,25.128865 C294.618144,24.9593983 293.672929,24.8724923 292.681504,24.8724923 C289.530787,24.8724923 287.094233,26.102212 285.380243,28.5659966 C283.888904,30.7386462 283.141134,33.4848752 283.141134,36.8003385 L283.141134,58.6789197 L274.188898,58.6789197 L274.272917,30.1129231 C274.272917,25.3070222 274.159491,20.931306 273.93684,16.9857744 L281.738015,16.9857744 L282.065689,24.9637436 L282.313545,24.9637436 C283.25876,22.2218598 284.7501,20.0144479 286.791764,18.3588889 C288.787218,16.8684513 290.942308,16.1254051 293.265437,16.1254051 C294.093025,16.1254051 294.840795,16.1862393 295.504546,16.2948718 L295.504546,25.128865 Z" id="Shape"></path>
                <path d="M335.560657,35.8574085 C335.560657,37.5173128 335.455633,38.9164991 335.232982,40.0593128 L308.363671,40.0593128 C308.468695,44.1786564 309.76679,47.3289983 312.262157,49.5016479 C314.526472,51.4439966 317.454538,52.4173436 321.050556,52.4173436 C325.028861,52.4173436 328.658487,51.7612034 331.922629,50.4445778 L333.325748,56.8756205 C329.511281,58.596359 325.007856,59.4523829 319.811274,59.4523829 C313.560253,59.4523829 308.653537,57.5491419 305.082724,53.7470051 C301.520314,49.9448684 299.734908,44.8391419 299.734908,38.4341709 C299.734908,32.1465231 301.394285,26.9104376 304.717241,22.7346051 C308.195632,18.2763282 312.896502,16.0471897 318.811447,16.0471897 C324.621369,16.0471897 329.019769,18.2763282 332.006648,22.7346051 C334.371786,26.2760239 335.560657,30.6560855 335.560657,35.8574085 Z M327.020114,33.4544581 C327.078928,30.7082291 326.494995,28.3356957 325.280919,26.3325128 C323.730766,23.7557504 321.348824,22.4695419 318.143495,22.4695419 C315.215429,22.4695419 312.833487,23.7253333 311.014474,26.2456068 C309.523134,28.2487897 308.636733,30.6517402 308.363671,33.4501128 L327.020114,33.4501128 L327.020114,33.4544581 Z" id="Shape"></path>
            </g>
            <g id="Group" transform="translate(181.525773, 28.307692)" fill="#272727">
                <path d="M23.6626691,15.4235577 C23.6626691,20.5163462 22.1759359,24.35 19.2066812,26.9245192 C16.4564353,29.3 12.5479695,30.4899038 7.48549544,30.4899038 C4.97531697,30.4899038 2.82734546,30.3774038 1.02894579,30.1524038 L1.02894579,2.32596154 C3.37486761,1.93653846 5.90189292,1.7375 8.63108025,1.7375 C13.4534869,1.7375 17.0881916,2.81490385 19.5394062,4.96971154 C22.2854403,7.40576923 23.6626691,10.8889423 23.6626691,15.4235577 Z M19.0087308,15.5490385 C19.0087308,12.2475962 18.1579656,9.71634615 16.4564353,7.95096154 C14.7549049,6.18990385 12.2699967,5.30721154 8.99749892,5.30721154 C7.607635,5.30721154 6.42414481,5.40240385 5.44281665,5.60144231 L5.44281665,26.7557692 C5.98612709,26.8423077 6.98009038,26.88125 8.42470651,26.88125 C11.802497,26.88125 14.4095448,25.9163462 16.2458498,23.9865385 C18.0821549,22.0567308 19.0087308,19.2442308 19.0087308,15.5490385 Z" id="Shape"></path>
                <path d="M48.3390712,19.8716346 C48.3390712,23.0086538 47.4672475,25.5788462 45.7236,27.5951923 C43.8957184,29.6677885 41.4739858,30.7019231 38.4499789,30.7019231 C35.5354763,30.7019231 33.2148248,29.7110577 31.4838124,27.7206731 C29.7570118,25.7346154 28.8936115,23.2293269 28.8936115,20.2091346 C28.8936115,17.0504808 29.7822821,14.4586538 31.5680466,12.4466346 C33.3538112,10.4346154 35.7544852,9.42644231 38.7784921,9.42644231 C41.6929947,9.42644231 44.0347048,10.4173077 45.8078342,12.4033654 C47.4925177,14.3331731 48.3390712,16.8254808 48.3390712,19.8716346 Z M43.7609437,20.01875 C43.7609437,18.1365385 43.3650431,16.5225962 42.5774535,15.1769231 C41.6508776,13.55 40.3326127,12.7365385 38.6184472,12.7365385 C36.8453178,12.7365385 35.497571,13.55 34.570995,15.1769231 C33.7791937,16.5225962 33.3875048,18.1625 33.3875048,20.1009615 C33.3875048,21.9831731 33.7834055,23.5971154 34.570995,24.9427885 C35.5270529,26.5697115 36.8579529,27.3831731 38.5763301,27.3831731 C40.2610137,27.3831731 41.5834902,26.5567308 42.5353364,24.8995192 C43.3524079,23.5278846 43.7609437,21.9009615 43.7609437,20.01875 Z" id="Shape"></path>
                <path d="M81.4262559,9.84182692 L75.2139853,30.2389423 L71.1707449,30.2389423 L68.5973908,21.3817308 C67.9445759,19.1706731 67.4139006,16.9725962 67.0011531,14.7918269 L66.9211306,14.7918269 C66.5378651,17.0331731 66.0071898,19.2269231 65.324893,21.3817308 L62.5914939,30.2389423 L58.5019247,30.2389423 L52.6602845,9.84182692 L57.1962949,9.84182692 L59.4411357,19.5384615 C59.9844462,21.8317308 60.4308873,24.0168269 60.7888826,26.0850962 L60.868905,26.0850962 C61.1974183,24.3802885 61.7407288,22.2081731 62.5072598,19.5817308 L65.324893,9.84615385 L68.9216923,9.84615385 L71.6213977,19.3740385 C72.2742126,21.6975962 72.8048879,23.9346154 73.2134236,26.0894231 L73.3355632,26.0894231 C73.6345945,23.9908654 74.0852474,21.7538462 74.68331,19.3740385 L77.0924075,9.84615385 L81.4262559,9.84615385 L81.4262559,9.84182692 Z" id="Shape"></path>
                <path d="M104.30847,30.2389423 L99.8945992,30.2389423 L99.8945992,18.55625 C99.8945992,14.95625 98.5636992,13.15625 95.8934758,13.15625 C94.5836343,13.15625 93.5264954,13.6495192 92.7052122,14.6403846 C91.8923524,15.63125 91.4796049,16.7995192 91.4796049,18.1365385 L91.4796049,30.2346154 L87.065734,30.2346154 L87.065734,15.6701923 C87.065734,13.8788462 87.0109818,11.9360577 86.9056891,9.83317308 L90.7846729,9.83317308 L90.9910467,13.0221154 L91.1131862,13.0221154 C91.6270147,12.03125 92.3935457,11.2134615 93.4001441,10.5600962 C94.5962694,9.79855769 95.9355928,9.41346154 97.4012675,9.41346154 C99.2544194,9.41346154 100.795905,10.0278846 102.021512,11.2610577 C103.546151,12.7711538 104.30847,15.0254808 104.30847,18.0197115 L104.30847,30.2389423 Z" id="Shape"></path>
                <polygon id="Shape" points="116.480309 30.2389423 112.070649 30.2389423 112.070649 0.482692308 116.480309 0.482692308"></polygon>
                <path d="M142.466552,19.8716346 C142.466552,23.0086538 141.594728,25.5788462 139.851081,27.5951923 C138.023199,29.6677885 135.597255,30.7019231 132.57746,30.7019231 C129.658746,30.7019231 127.338094,29.7110577 125.611293,27.7206731 C123.884493,25.7346154 123.021092,23.2293269 123.021092,20.2091346 C123.021092,17.0504808 123.909763,14.4586538 125.695528,12.4466346 C127.481292,10.4346154 129.881966,9.42644231 132.901761,9.42644231 C135.820476,9.42644231 138.157974,10.4173077 139.935315,12.4033654 C141.619999,14.3331731 142.466552,16.8254808 142.466552,19.8716346 Z M137.884213,20.01875 C137.884213,18.1365385 137.488312,16.5225962 136.700723,15.1769231 C135.778359,13.55 134.455882,12.7365385 132.745928,12.7365385 C130.968587,12.7365385 129.62084,13.55 128.698476,15.1769231 C127.906675,16.5225962 127.514986,18.1625 127.514986,20.1009615 C127.514986,21.9831731 127.910886,23.5971154 128.698476,24.9427885 C129.654534,26.5697115 130.985434,27.3831731 132.703811,27.3831731 C134.388495,27.3831731 135.706759,26.5567308 136.658606,24.8995192 C137.479889,23.5278846 137.884213,21.9009615 137.884213,20.01875 Z" id="Shape"></path>
                <path d="M163.828339,30.2389423 L159.865121,30.2389423 L159.536608,27.8894231 L159.414469,27.8894231 C158.058298,29.7629808 156.125124,30.7019231 153.614945,30.7019231 C151.740735,30.7019231 150.22452,30.0831731 149.083147,28.8543269 C148.047066,27.7379808 147.529026,26.3490385 147.529026,24.7004808 C147.529026,22.2081731 148.539836,20.3086538 150.574092,18.9932692 C152.604135,17.6778846 155.459674,17.0331731 159.136496,17.0634615 L159.136496,16.6826923 C159.136496,13.9956731 157.763479,12.6543269 155.013233,12.6543269 C153.054788,12.6543269 151.327988,13.1605769 149.837043,14.1644231 L148.939949,11.1875 C150.784677,10.0149038 153.063212,9.42644231 155.750282,9.42644231 C160.939107,9.42644231 163.541943,12.2389423 163.541943,17.8639423 L163.541943,25.3754808 C163.541943,27.4134615 163.638812,29.0360577 163.828339,30.2389423 Z M159.246,23.2293269 L159.246,20.0836538 C154.377265,19.9971154 151.942897,21.36875 151.942897,24.1942308 C151.942897,25.2586538 152.22087,26.0548077 152.789451,26.5870192 C153.358031,27.1192308 154.082445,27.3831731 154.945845,27.3831731 C155.914538,27.3831731 156.820056,27.0673077 157.645551,26.4399038 C158.475257,25.8081731 158.984874,25.0076923 159.174401,24.0254808 C159.22073,23.8048077 159.246,23.5365385 159.246,23.2293269 Z" id="Shape"></path>
                <path d="M188.909066,30.2389423 L184.992176,30.2389423 L184.785803,26.9634615 L184.663663,26.9634615 C183.412786,29.4557692 181.281661,30.7019231 178.287136,30.7019231 C175.894885,30.7019231 173.902747,29.7370192 172.323356,27.8072115 C170.743965,25.8774038 169.956376,23.3721154 169.956376,20.2956731 C169.956376,16.9942308 170.811353,14.3201923 172.52973,12.2778846 C174.193355,10.3740385 176.231822,9.42211538 178.657766,9.42211538 C181.323778,9.42211538 183.189565,10.34375 184.250916,12.1913462 L184.33515,12.1913462 L184.33515,0.482692308 L188.753232,0.482692308 L188.753232,24.74375 C188.753232,26.7298077 188.803773,28.5600962 188.909066,30.2389423 Z M184.33515,21.6370192 L184.33515,18.2360577 C184.33515,17.6475962 184.293033,17.1716346 184.21301,16.8081731 C183.964519,15.7177885 183.429632,14.8004808 182.616773,14.0605769 C181.795489,13.3206731 180.805738,12.9485577 179.664365,12.9485577 C178.017586,12.9485577 176.728804,13.6192308 175.781169,14.9649038 C174.841958,16.3105769 174.366035,18.0283654 174.366035,20.1269231 C174.366035,22.1432692 174.816688,23.7788462 175.722205,25.0379808 C176.678263,26.3793269 177.967046,27.05 179.58013,27.05 C181.028958,27.05 182.187178,26.4918269 183.067425,25.3711538 C183.918191,24.3370192 184.33515,23.0908654 184.33515,21.6370192 Z" id="Shape"></path>
                <path d="M226.658612,19.8716346 C226.658612,23.0086538 225.786788,25.5788462 224.043141,27.5951923 C222.215259,29.6677885 219.797738,30.7019231 216.76952,30.7019231 C213.859229,30.7019231 211.538577,29.7110577 209.803353,27.7206731 C208.076552,25.7346154 207.213152,23.2293269 207.213152,20.2091346 C207.213152,17.0504808 208.101823,14.4586538 209.887587,12.4466346 C211.673352,10.4346154 214.074026,9.42644231 217.102245,9.42644231 C220.012535,9.42644231 222.358457,10.4173077 224.127375,12.4033654 C225.812058,14.3331731 226.658612,16.8254808 226.658612,19.8716346 Z M222.084696,20.01875 C222.084696,18.1365385 221.688795,16.5225962 220.901206,15.1769231 C219.970418,13.55 218.656365,12.7365385 216.937988,12.7365385 C215.16907,12.7365385 213.821323,13.55 212.890536,15.1769231 C212.098734,16.5225962 211.707046,18.1625 211.707046,20.1009615 C211.707046,21.9831731 212.102946,23.5971154 212.890536,24.9427885 C213.846594,26.5697115 215.177494,27.3831731 216.895871,27.3831731 C218.580554,27.3831731 219.907243,26.5567308 220.859089,24.8995192 C221.671949,23.5278846 222.084696,21.9009615 222.084696,20.01875 Z" id="Shape"></path>
                <path d="M250.391591,30.2389423 L245.981932,30.2389423 L245.981932,18.55625 C245.981932,14.95625 244.651032,13.15625 241.976597,13.15625 C240.666756,13.15625 239.609617,13.6495192 238.792545,14.6403846 C237.975474,15.63125 237.566938,16.7995192 237.566938,18.1365385 L237.566938,30.2346154 L233.148855,30.2346154 L233.148855,15.6701923 C233.148855,13.8788462 233.098315,11.9360577 232.993022,9.83317308 L236.867794,9.83317308 L237.074168,13.0221154 L237.196307,13.0221154 C237.714348,12.03125 238.480879,11.2134615 239.483265,10.5600962 C240.683602,9.79855769 242.018714,9.41346154 243.4886,9.41346154 C245.337541,9.41346154 246.879026,10.0278846 248.104633,11.2610577 C249.633484,12.7711538 250.391591,15.0254808 250.391591,18.0197115 L250.391591,30.2389423 Z" id="Shape"></path>
                <path d="M280.096774,13.2384615 L275.236462,13.2384615 L275.236462,23.1471154 C275.236462,25.6653846 276.099862,26.9245192 277.809816,26.9245192 C278.601617,26.9245192 279.258644,26.8552885 279.776684,26.7125 L279.8904,30.1524038 C279.018576,30.4899038 277.872991,30.6586538 276.462069,30.6586538 C274.718422,30.6586538 273.362251,30.1134615 272.380923,29.0230769 C271.395383,27.9326923 270.906825,26.0980769 270.906825,23.5235577 L270.906825,13.2384615 L268.004958,13.2384615 L268.004958,9.84182692 L270.906825,9.84182692 L270.906825,6.10336538 L275.23225,4.76201923 L275.23225,9.8375 L280.092562,9.8375 L280.092562,13.2384615 L280.096774,13.2384615 Z" id="Shape"></path>
                <path d="M303.463334,30.2389423 L299.045252,30.2389423 L299.045252,18.6427885 C299.045252,14.9865385 297.714352,13.15625 295.04834,13.15625 C293.00145,13.15625 291.603162,14.2163462 290.836631,16.3365385 C290.706068,16.7822115 290.630258,17.3274038 290.630258,17.9677885 L290.630258,30.2346154 L286.220598,30.2346154 L286.220598,0.482692308 L290.630258,0.482692308 L290.630258,12.7754808 L290.714492,12.7754808 C292.104356,10.5384615 294.096494,9.42211538 296.678271,9.42211538 C298.506153,9.42211538 300.018157,10.0365385 301.218494,11.2697115 C302.71365,12.8057692 303.463334,15.0903846 303.463334,18.1105769 L303.463334,30.2389423 Z" id="Shape"></path>
                <path d="M327.566944,19.0754808 C327.566944,19.8889423 327.50798,20.5725962 327.402687,21.1307692 L314.165287,21.1307692 C314.22425,23.1471154 314.856007,24.6831731 316.081614,25.7475962 C317.201929,26.6995192 318.646545,27.1754808 320.415462,27.1754808 C322.373907,27.1754808 324.159672,26.8552885 325.768544,26.2105769 L326.459265,29.3605769 C324.576631,30.2 322.361272,30.6197115 319.796341,30.6197115 C316.721794,30.6197115 314.300061,29.6894231 312.54799,27.8288462 C310.787496,25.9682692 309.915672,23.4716346 309.915672,20.3389423 C309.915672,17.2625 310.728532,14.7009615 312.366887,12.6586538 C314.076841,10.4778846 316.389069,9.3875 319.307783,9.3875 C322.163322,9.3875 324.332352,10.4778846 325.798026,12.6586538 C326.981517,14.3894231 327.566944,16.53125 327.566944,19.0754808 Z M323.355235,17.9028846 C323.388929,16.5572115 323.098321,15.3975962 322.500258,14.4197115 C321.733727,13.1605769 320.567084,12.5288462 318.987693,12.5288462 C317.547289,12.5288462 316.372222,13.1432692 315.475128,14.3764423 C314.742291,15.3586538 314.308485,16.53125 314.165287,17.9028846 L323.355235,17.9028846 Z" id="Shape"></path>
            </g>
        </g>
    </g>
</svg>