<?xml version="1.0" encoding="UTF-8"?>
<svg width="590px" height="267px" viewBox="0 0 590 267" version="1.1" xmlns="http://www.w3.org/2000/svg" xmlns:xlink="http://www.w3.org/1999/xlink">
    <!-- Generator: Sketch 48.2 (47327) - http://www.bohemiancoding.com/sketch -->
    <title>FAQ</title>
    <desc>Created with Sketch.</desc>
    <defs>
        <path d="M0.412035128,246.852056 L62.4139118,0.223188278 L141.85172,0.223188278 L208.412163,246.852056 L165.372449,246.852056 L141.85172,171.36365 L62.4139118,171.36365 L46.3633286,246.852056 L0.412035128,246.852056 Z M70,117.973969 L138.325784,117.973969 L124.22069,67 L79.9077783,67 L70,117.973969 Z" id="path-1"></path>
    </defs>
    <g id="Page-1" stroke="none" stroke-width="1" fill="none" fill-rule="evenodd">
        <g id="FAQ">
            <path d="M560.508755,216.742511 L582.608099,238.841855 L554.841855,266.608099 L531.172611,242.938855 C516.42402,251.928235 499.709808,257 482,257 C422.353247,257 374,199.46859 374,128.5 C374,57.5314097 422.353247,0 482,0 C541.646753,0 590,57.5314097 590,128.5 C590,162.669709 578.790769,193.724415 560.508755,216.742511 Z M532.427728,188.661484 C545.149317,173.315753 553,152.247794 553,129 C553,82.0557963 520.98836,44 481.5,44 C442.01164,44 410,82.0557963 410,129 C410,175.944204 442.01164,214 481.5,214 C487.722078,214 493.758529,213.05517 499.51337,211.279614 L492,203.766244 L519.766244,176 L532.427728,188.661484 Z" id="Combined-Shape" fill="#FF8700"></path>
            <polygon id="Path-34" fill="#FF8700" points="0 10 0 255.726201 47.4145144 255.726201 47.4145144 147.965672 112.720731 144.930261 112.720731 99.3821635 49.7318334 96.5329249 49.7318334 58.2622526 164.68155 62.2679686 164.68155 10"></polygon>
            <g id="Path-37" transform="translate(165.000000, 10.000000)">
                <mask id="mask-2" fill="white">
                    <use xlink:href="#path-1"></use>
                </mask>
                <use id="Combined-Shape" fill="#FF8700" xlink:href="#path-1"></use>
            </g>
        </g>
    </g>
</svg>