<?xml version="1.0" encoding="UTF-8"?>
<svg width="486px" height="320px" viewBox="0 0 486 320" version="1.1" xmlns="http://www.w3.org/2000/svg" xmlns:xlink="http://www.w3.org/1999/xlink">
    <!-- Generator: Sketch 47.1 (45422) - http://www.bohemiancoding.com/sketch -->
    <title>logoDark</title>
    <desc>Created with Sketch.</desc>
    <defs></defs>
    <g id="Page-1" stroke="none" stroke-width="1" fill="none" fill-rule="evenodd">
        <g id="logoDark" fill="#272727">
            <ellipse id="Oval-3-Copy-2" cx="316" cy="71.5" rx="44" ry="71.5"></ellipse>
            <ellipse id="Oval-3-Copy-4" cx="169" cy="71.5" rx="44" ry="71.5"></ellipse>
            <path d="M8.73966547,194.585963 C12.2176405,181.216466 16.7181319,172.471664 22.2411397,168.351556 C27.7359984,164.12055 35.3154312,165.51404 44.979438,172.532028 C103.216612,215.338813 171.72302,236.742205 250.498663,236.742205 C251.336251,236.759304 276.300933,235.406059 289.474966,233.823339 C324.012002,229.67408 379.726831,220.362619 441.354846,172.306081 C457.281054,160.666594 461.603764,164.665818 467.635453,172.306081 C471.65658,177.399589 477.409577,193.120471 484.894445,219.468727 C486.67056,226.740771 486.306629,229.341742 483.802653,227.271642 C480.046689,224.166491 473.066142,216.601784 461.807041,201.758353 C460.843236,200.435731 457.481257,197.267027 455.780633,197.363469 C454.08001,197.459911 452.345028,198.950341 450.90774,200.44677 C434.486153,217.544066 347.623511,321.913891 244.999906,319.973283 C168.178055,316.598779 98.2878692,276.707447 35.3293484,200.299288 C31.7423123,196.543255 27.5320062,197.625005 22.6984299,203.544538 C15.4480656,212.423836 5.57135919,225.387887 2.39925054,227.271642 C-0.772858099,229.155397 -0.204077192,227.058515 0.751326031,221.401948 C1.38826151,217.630904 4.05104133,208.692242 8.73966547,194.585963 Z" id="Path-34-Copy"></path>
        </g>
    </g>
</svg>