<?xml version="1.0" encoding="UTF-8"?>
<svg width="530px" height="625px" viewBox="0 0 530 625" version="1.1" xmlns="http://www.w3.org/2000/svg" xmlns:xlink="http://www.w3.org/1999/xlink">
    <!-- Generator: Sketch 47 (45396) - http://www.bohemiancoding.com/sketch -->
    <title>dance-icon white</title>
    <desc>Created with Sketch.</desc>
    <defs></defs>
    <g id="Page-1" stroke="none" stroke-width="1" fill="none" fill-rule="evenodd">
        <g id="ask-icons">
            <g id="dance-icon-white">
                <ellipse id="Oval-6" fill-opacity="0.430000007" fill="#000000" cx="269.5" cy="596" rx="189.5" ry="29"></ellipse>
                <circle id="Oval-5" fill="#FFFFFF" cx="265" cy="265" r="265"></circle>
                <g transform="translate(113.000000, 97.000000)" id="Group" fill="#C827FF">
                    <g>
                        <path d="M156.568335,92.7413267 C149.10782,84.8828038 140.82288,81.2163591 131.713515,81.7419928 C118.049467,82.5304433 108.880143,88.8491822 101.116839,101.834418 C94.8109486,101.834418 63.7973595,96.8348608 39.5374812,58.3853107 C35.6591514,52.5939818 32.3470189,47.4518145 29.6010837,42.9588086 C23.3715612,37.2317339 16.8879879,36.4654351 10.1503638,40.6599124 C0.0439276197,46.9516283 -0.175445653,55.1758645 0.0439276197,57.5007688 C0.263300892,59.8256732 21.7016503,126.41596 108.194453,138.73337 C115.540405,152.372391 126.07334,172.295039 139.793258,198.501315 C154.12165,222.877637 161.076468,240.00661 160.657711,249.888234 C160.029575,264.710671 157.771191,273.079849 141.715931,284.832122 C133.52777,290.425842 129.399243,293.129083 124.517438,295.259475 C119.635633,297.389867 114.087152,307.70684 115.394101,313.411539 C116.701049,319.116237 124.678056,339.486703 145.070524,332.999816 C165.462993,326.512928 191.551808,302.84624 199.380296,284.832122 C207.208784,266.818003 208.585591,257.179465 202.393502,229.159572 C218.35171,243.351144 227.193756,251.178746 234.725442,270.131555 C242.257128,289.084364 243.063366,313.892591 242.475964,321.180634 C241.888561,328.468676 255.528855,343.092566 276.000392,333.852565 C283.892626,330.614506 287.246451,319.727708 286.061869,301.192172 C282.652527,249.167323 255.619546,208.357115 204.962926,178.761551 C199.029983,169.263092 190.596456,154.73197 179.662343,135.168185 C178.062054,132.880336 178.180125,131.357917 180.016556,130.600928 C182.486217,130.292485 188.818093,130.67098 199.012184,131.736411 C251.088256,134.848379 279.508694,135.992304 284.2735,135.168185 C291.420709,133.932007 302.149395,130.615277 302.780263,116.895628 C303.41113,103.17598 294.585069,101.052092 286.061869,100.632825 C277.538668,100.213559 221.878009,99.8260678 204.185096,98.6681883 C192.38982,97.8962687 176.517567,95.9206481 156.568335,92.7413267 Z" id="Path-15"></path>
                        <circle id="Oval" cx="132.5" cy="37.5" r="37.5"></circle>
                    </g>
                </g>
            </g>
        </g>
    </g>
</svg>