<?xml version="1.0" encoding="UTF-8"?>
<svg width="2050px" height="202px" viewBox="0 0 2050 202" version="1.1" xmlns="http://www.w3.org/2000/svg" xmlns:xlink="http://www.w3.org/1999/xlink">
    <!-- Generator: Sketch 49.3 (51167) - http://www.bohemiancoding.com/sketch -->
    <title>messageMessage</title>
    <desc>Created with Sketch.</desc>
    <defs></defs>
    <g id="Page-1" stroke="none" stroke-width="1" fill="none" fill-rule="evenodd">
        <g id="messageMessage" transform="translate(-81.000000, -42.000000)" fill="#FFFFFF">
            <g id="smile-copy" transform="translate(1835.000000, 42.000000)">
                <g id="eyes" transform="translate(82.000000, 0.000000)">
                    <path d="M26.7384541,93.9686 C43.6552863,93.9686 53.4769083,72.8355557 53.4769083,46.9095579 C53.4769083,20.9835601 43.5013831,0.0452404317 26.7384541,7.49338818e-05 C9.97552513,-0.0450905639 0,20.3322092 0,46.9095579 C9.26138727e-16,73.4869066 9.82162194,93.9686 26.7384541,93.9686 Z" id="Oval-3-Copy-6"></path>
                    <path d="M103.216183,93.9686 C120.133015,93.9686 129.954637,72.8355557 129.954637,46.9095579 C129.954637,20.9835601 119.979112,0.0452404317 103.216183,7.49338818e-05 C86.4532541,-0.0450905639 76.477729,20.3322092 76.477729,46.9095579 C76.477729,73.4869066 86.299351,93.9686 103.216183,93.9686 Z" id="Oval-3-Copy-7" transform="translate(103.216183, 46.984300) scale(-1, 1) translate(-103.216183, -46.984300) "></path>
                </g>
                <path d="M7.64473394,107.793003 C8.67696534,105.597885 11.1908732,100.14204 19.0310117,100.011682 C20.3788533,99.9579505 22.2303009,100.335765 24.2241324,101.220714 C36.4477032,108.84396 84.7145741,140.351249 151.102849,138.537602 C160.561463,138.618627 216.16329,138.097784 270.302186,102.103234 C273.560046,99.9527086 276.35429,99.7958312 278.899302,100.14204 C283.210349,100.951489 286.376329,103.270275 288.206524,107.562777 C291.211145,116.727141 293.271015,128.637446 295.949528,136.568913 C296.251343,137.501068 295.181341,139.410845 293.22767,138.364161 C290.886389,136.433784 281.080331,123.220809 279.262366,120.783279 C277.861199,119.0987 276.113953,119.56545 275.406568,120.093148 C263.303813,137.991886 232.252753,201.063069 148.238556,202 C62.2357314,200.847779 32.2420084,136.568913 20.5960334,120.093148 C19.8779987,119.608989 18.0367158,118.93625 16.4691885,121.112371 C12.0489261,127.036664 4.98457049,136.446787 2.77277903,138.364161 C1.42025815,139.134478 -0.234583079,138.364161 0.0276608471,136.616949 C1.15312251,133.050219 4.24675846,119.634974 7.64473394,107.793003 Z" id="Path-34-Copy-3" transform="translate(148.000000, 151.000000) scale(-1, 1) translate(-148.000000, -151.000000) "></path>
            </g>
            <text id="Anything-you-want" font-family="HelveticaNeue-Bold, Helvetica Neue" font-size="200" font-weight="bold" letter-spacing="-2.314286">
                <tspan x="83.071431" y="195">Anything you want</tspan>
            </text>
        </g>
    </g>
</svg>