<?xml version="1.0" encoding="UTF-8"?>
<svg width="9px" height="11px" viewBox="0 0 9 11" version="1.1" xmlns="http://www.w3.org/2000/svg" xmlns:xlink="http://www.w3.org/1999/xlink">
    <!-- Generator: Sketch 49.1 (51147) - http://www.bohemiancoding.com/sketch -->
    <title>contact</title>
    <desc>Created with Sketch.</desc>
    <defs></defs>
    <g id="Page-1" stroke="none" stroke-width="1" fill="none" fill-rule="evenodd">
        <g id="Holy-Icons" transform="translate(-49.000000, -806.000000)" fill="#434343" fill-rule="nonzero">
            <g id="contact" transform="translate(49.000000, 806.000000)">
                <path d="M8.94331775,3.89063448 C8.94331775,2.29674639 7.62859497,0.95493951 6.01263116,0.95493951 C4.39666735,0.95493951 2.97869515,2.2516859 2.97869515,3.84557399 C2.97869515,4.8328304 3.46844046,5.75099902 4.23643347,6.27269952 C3.51941116,6.51674945 2.8622085,6.91987898 2.31008208,7.46445611 C1.35261057,8.40885554 0.825304838,9.6644475 0.825304838,11 L1.7920796,11 C1.7920796,8.67376644 3.71083202,6.95390922 6.06931341,6.95390922 C7.68529706,6.95390922 8.94331775,5.484503 8.94331775,3.89063448 Z M6,6 C4.8971973,6 4,5.10280686 4,4.00000928 C4,2.8972117 4.8971973,2 6,2 C7.1028027,2 8,2.89719314 8,4.00000928 C8,5.10282541 7.1028027,6 6,6 Z" id="Shape"></path>
            </g>
        </g>
    </g>
</svg>