<?xml version="1.0" encoding="UTF-8"?>
<svg width="2365px" height="242px" viewBox="0 0 2365 242" version="1.1" xmlns="http://www.w3.org/2000/svg" xmlns:xlink="http://www.w3.org/1999/xlink">
    <!-- Generator: Sketch 47.1 (45422) - http://www.bohemiancoding.com/sketch -->
    <title>anything</title>
    <desc>Created with Sketch.</desc>
    <defs></defs>
    <g id="Page-1" stroke="none" stroke-width="1" fill="none" fill-rule="evenodd">
        <g id="ONsite-" transform="translate(-592.000000, -83.000000)" fill="#FFFFFF">
            <g id="anything" transform="translate(583.000000, 0.000000)">
                <text id="or-w.e.-you-want" font-family="HelveticaNeue-Medium, Helvetica Neue" font-size="275" font-weight="400" letter-spacing="-5.07999992">
                    <tspan x="0" y="268">or w.e. you want</tspan>
                </text>
                <g id="logo-white-copy" transform="translate(2079.000000, 90.000000)">
                    <ellipse id="righteye" cx="191" cy="50" rx="28" ry="50"></ellipse>
                    <ellipse id="lefteye" cx="102" cy="50" rx="28" ry="50"></ellipse>
                    <path d="M147.5,212.9612 C217.366845,214.984368 271.697042,137.212545 271.697042,137.212545 L273.206891,135.465611 C276.191271,131.656223 280.088864,136.203653 280.088864,136.203653 C280.088864,136.203653 294.892208,157.037621 294.996676,152.946931 C295.101144,148.85624 292.749441,141.138253 287.079414,124.184451 C281.409386,107.23065 272.433081,113.630612 267.355842,117.242535 C235.58241,143.686807 179.323541,158.304119 147.5,159.253618 C115.676466,158.304121 59.4175922,143.686809 27.6441584,117.242535 C22.5669193,113.630612 13.5906139,107.23065 7.92058646,124.184451 C2.25055901,141.138253 -0.101143708,148.85624 0.00332424413,152.946931 C0.107792196,157.037621 14.9111358,136.203653 14.9111358,136.203653 C14.9111358,136.203653 18.8087294,131.656223 21.7931088,135.465611 L23.3029575,137.212545 C23.3029575,137.212545 77.6331506,214.984361 147.499992,212.961201 Z" id="smile"></path>
                </g>
            </g>
        </g>
    </g>
</svg>