<?xml version="1.0" encoding="UTF-8"?>
<svg width="3650px" height="269px" viewBox="0 0 3650 269" version="1.1" xmlns="http://www.w3.org/2000/svg" xmlns:xlink="http://www.w3.org/1999/xlink">
    <!-- Generator: Sketch 48.2 (47327) - http://www.bohemiancoding.com/sketch -->
    <title>anything</title>
    <desc>Created with Sketch.</desc>
    <defs></defs>
    <g id="Page-1" stroke="none" stroke-width="1" fill="none" fill-rule="evenodd">
        <g id="ONsite-" transform="translate(-9.000000, -56.000000)" fill="#FFFFFF">
            <g id="anything">
                <text id="or-Message-what-you" font-family="HelveticaNeue-Medium, Helvetica Neue" font-size="275" font-weight="400" letter-spacing="-5.07999992">
                    <tspan x="0" y="268">or Message what you want</tspan>
                </text>
                <g id="smileyIcon-Android-Copy" transform="translate(3350.000000, 56.000000)">
                    <g id="Group-8">
                        <g id="Group-7-Copy">
                            <g id="eyes" transform="translate(78.000000, 0.000000)">
                                <path d="M28.2566372,92.7871405 C46.1339904,92.7871405 56.5132743,71.9198002 56.5132743,46.3197679 C56.5132743,20.7197356 45.9713487,0.0446716275 28.2566372,7.39917442e-05 C10.5419256,-0.044523644 -5.68434189e-14,20.076574 -5.68434189e-14,46.3197679 C-5.58646949e-14,72.5629618 10.3792839,92.7871405 28.2566372,92.7871405 Z" id="right"></path>
                                <path d="M125.256637,92.7871405 C143.13399,92.7871405 153.513274,71.9198002 153.513274,46.3197679 C153.513274,20.7197356 142.971349,0.0446716275 125.256637,7.39917442e-05 C107.541926,-0.044523644 97,20.076574 97,46.3197679 C97,72.5629618 107.379284,92.7871405 125.256637,92.7871405 Z" id="left" transform="translate(125.256637, 46.393570) scale(-1, 1) translate(-125.256637, -46.393570) "></path>
                            </g>
                            <path d="M7.98048239,114.713214 C9.05804828,112.399732 11.6823643,106.649699 19.8668331,106.512312 C21.2738705,106.455683 23.2066317,106.85387 25.2880301,107.786537 C38.0484469,115.82084 88.4351467,149.027051 157.739122,147.11561 C167.613149,147.201004 225.656948,146.652076 282.173565,108.716644 C285.574508,106.450159 288.491471,106.284822 291.148258,106.649699 C295.648641,107.502795 298.953668,109.946613 300.864243,114.470574 C304.000824,124.129095 306.151161,136.681622 308.947312,145.040767 C309.262382,146.023185 308.145387,148.035939 306.105912,146.932817 C303.661805,144.89835 293.425076,130.972911 291.527267,128.403945 C290.064562,126.628531 288.240579,127.12045 287.502126,127.676602 C274.867832,146.540468 242.453043,213.012548 154.749033,214 C64.9690574,212.785649 33.6580425,145.040767 21.5005889,127.676602 C20.7510189,127.166336 18.8288689,126.457322 17.1924975,128.750783 C12.5781019,134.994523 5.20348743,144.912055 2.89455649,146.932817 C1.48263435,147.74467 -0.244885715,146.932817 0.0288756817,145.091393 C1.2037664,141.332339 4.4332715,127.193723 7.98048239,114.713214 Z" id="smile" transform="translate(154.500000, 160.250000) scale(-1, 1) translate(-154.500000, -160.250000) "></path>
                        </g>
                    </g>
                </g>
            </g>
        </g>
    </g>
</svg>