<?xml version="1.0" encoding="UTF-8"?>
<svg width="100px" height="129px" viewBox="0 0 100 129" version="1.1" xmlns="http://www.w3.org/2000/svg" xmlns:xlink="http://www.w3.org/1999/xlink">
    <!-- Generator: Sketch 47.1 (45422) - http://www.bohemiancoding.com/sketch -->
    <title>apple-store</title>
    <desc>Created with Sketch.</desc>
    <defs></defs>
    <g id="Page-1" stroke="none" stroke-width="1" fill="none" fill-rule="evenodd">
        <g id="apple-store" fill-rule="nonzero" fill="#FF8700">
            <path d="M83.5229127,68.5295277 C83.3831947,52.2127896 96.2372499,44.2746433 96.8250291,43.905074 C89.5452399,32.752181 78.2618076,31.2283405 74.2967074,31.1068382 C64.8199733,30.0588814 55.627493,37.0655105 50.7999955,37.0655105 C45.8761407,37.0655105 38.44218,31.2080901 30.4300758,31.3802183 C20.1198516,31.5472838 10.4744923,37.8198369 5.18448009,47.5602664 C-5.73279472,67.4208198 2.4093917,96.60667 12.8689696,112.660153 C18.1011675,120.522361 24.2150341,129.300897 32.2175026,128.992079 C40.046528,128.652885 42.9709701,123.747233 52.418797,123.747233 C61.7799025,123.747233 64.5260837,128.992079 72.6875415,128.794638 C81.0898925,128.652885 86.3799047,120.896993 91.4290239,112.963909 C97.4754404,103.952493 99.9036428,95.0777669 100,94.6221335 C99.8024677,94.5512572 83.6819021,88.0863256 83.5229127,68.5295277 Z" id="Shape"></path>
            <path d="M68.5323345,20.8225805 C72.7706862,15.2566523 75.6706111,7.6843419 74.8656152,0 C68.7311588,0.285171071 61.0594513,4.45579799 56.6416728,9.89951005 C52.7330784,14.6964949 49.2415301,22.5590687 50.1435134,29.9531472 C57.034472,30.4929353 64.1097067,26.301939 68.5323345,20.8225805 Z" id="Shape"></path>
        </g>
    </g>
</svg>