<?xml version="1.0" encoding="UTF-8"?>
<svg width="260px" height="324px" viewBox="0 0 260 324" version="1.1" xmlns="http://www.w3.org/2000/svg" xmlns:xlink="http://www.w3.org/1999/xlink">
    <!-- Generator: Sketch 48.2 (47327) - http://www.bohemiancoding.com/sketch -->
    <title>apple-store</title>
    <desc>Created with Sketch.</desc>
    <defs></defs>
    <g id="Page-1" stroke="none" stroke-width="1" fill="none" fill-rule="evenodd">
        <g id="apple-store" transform="translate(1.000000, 1.000000)" fill="#FF8700" fill-rule="nonzero" stroke="#272727">
            <path d="M215.489115,171.058201 C215.128642,130.329599 248.292105,110.515001 249.808575,109.59251 C231.026719,81.7535062 201.915464,77.9498111 191.685505,77.6465264 C167.235531,75.0306962 143.518932,92.5201115 131.063988,92.5201115 C118.360443,92.5201115 99.1808244,77.8992636 78.5095957,78.3289169 C51.9092172,78.7459333 27.0241902,94.4030038 13.3759586,118.716324 C-14.7906104,168.290728 6.21623058,241.142231 33.2019417,281.213716 C46.7010122,300.838761 62.4747881,322.751077 83.1211566,321.980229 C103.320042,321.133559 110.865103,308.888441 135.240496,308.888441 C159.392148,308.888441 166.477296,321.980229 187.533857,321.487391 C209.211923,321.133559 222.860154,301.773888 235.886882,281.971928 C251.486636,259.478316 257.751398,237.325899 258,236.188581 C257.490367,236.011665 215.899308,219.874394 215.489115,171.058201 Z" id="Shape"></path>
            <path d="M176.813423,51.9757437 C187.748371,38.0824965 195.230177,19.1810705 193.153287,0 C177.32639,0.711822364 157.533384,11.1222244 146.135516,24.7104049 C136.051342,36.684274 127.043148,56.3102334 129.370265,74.7667705 C147.148938,76.1141485 165.403043,65.652902 176.813423,51.9757437 Z" id="Shape"></path>
        </g>
    </g>
</svg>