<?xml version="1.0" encoding="UTF-8"?>
<svg width="1109px" height="221px" viewBox="0 0 1109 221" version="1.1" xmlns="http://www.w3.org/2000/svg" xmlns:xlink="http://www.w3.org/1999/xlink">
    <!-- Generator: Sketch 48.2 (47327) - http://www.bohemiancoding.com/sketch -->
    <title>Barfriends</title>
    <desc>Created with Sketch.</desc>
    <defs></defs>
    <g id="Page-1" stroke="none" stroke-width="1" fill="none" fill-rule="evenodd">
        <path d="M402.606928,75.6136955 L402.606928,75.4255407 L402.572108,75.4255407 L402.572108,75.3796914 L402.606928,75.3796914 L402.606928,75.3597946 C402.606928,75.3335537 402.614461,75.3131885 402.629528,75.2986984 C402.644595,75.2842082 402.665681,75.2769632 402.692787,75.2769632 C402.701438,75.2769632 402.712035,75.278405 402.724578,75.2812886 L402.72393,75.3297331 C402.718739,75.3284355 402.712395,75.3277867 402.704898,75.3277867 C402.681396,75.3277867 402.669646,75.3388163 402.669646,75.360876 L402.669646,75.3796914 L402.716144,75.3796914 L402.716144,75.4255407 L402.669646,75.4255407 L402.669646,75.6136955 L402.606928,75.6136955 Z M0.52734375,220.28125 L0.52734375,7 L75.234375,7 C101.113411,7 120.742121,11.9560051 134.121094,21.8681641 C147.500067,31.780323 154.189453,46.3065449 154.189453,65.4472656 C154.189453,75.8965366 151.503933,85.1005461 146.132812,93.0595703 C140.761692,101.018594 133.291063,106.853497 123.720703,110.564453 C134.658258,113.298842 143.276336,118.816365 149.575195,127.117187 C155.874055,135.41801 159.023438,145.574159 159.023438,157.585938 C159.023438,178.093853 152.480534,193.621041 139.394531,204.167969 C126.308528,214.714896 107.656371,220.085937 83.4375,220.28125 L0.52734375,220.28125 Z M44.5273438,127 L44.5273438,184.568359 L82.1738281,184.568359 C92.5254424,184.568359 100.606416,182.102564 106.416992,177.170898 C112.227568,172.239233 115.132812,165.427778 115.132812,156.736328 C115.132812,137.20498 105.025492,127.29297 84.8105469,127 L44.5273438,127 Z M44.5273438,95.7597656 L77.046875,95.7597656 C99.2149546,95.3691387 110.298828,86.5313364 110.298828,69.2460938 C110.298828,59.5780767 107.491239,52.6201384 101.875977,48.3720703 C96.2607141,44.1240022 87.398498,42 75.2890625,42 L44.5273438,42 L44.5273438,95.7597656 Z M254.234852,218.174969 C252.601732,215.009301 251.417738,211.072567 250.682834,206.36465 C242.108955,215.861655 230.963078,220.610087 217.244871,220.610087 C204.261567,220.610087 193.503551,216.876277 184.9705,209.408546 C176.437448,201.940816 172.170986,192.525123 172.170986,181.161185 C172.170986,167.199775 177.376478,156.485365 187.787617,149.017635 C198.198757,141.549904 213.243649,137.77551 232.922744,137.694339 L249.213034,137.694339 L249.213034,130.145475 C249.213034,124.057651 247.641179,119.187465 244.497423,115.53477 C241.353668,111.882076 236.39314,110.055756 229.615693,110.055756 C223.654805,110.055756 218.980069,111.476227 215.591345,114.317212 C212.202621,117.158196 210.508285,121.054345 210.508285,126.005775 L175.110587,126.005775 C175.110587,118.375703 177.478576,111.313933 182.214624,104.820254 C186.950671,98.3265749 193.646363,93.233172 202.301898,89.5398921 C210.957434,85.8466122 220.674352,84 231.452943,84 C247.784143,84 260.746838,88.0787809 270.341417,96.236465 C279.935997,104.394149 284.733215,115.859379 284.733215,130.632498 L284.733215,187.736002 C284.814871,200.236333 286.570448,209.692611 290,216.105119 L290,218.174969 L254.234852,218.174969 Z M217.436868,198.481491 C223.225707,198.481491 228.562213,197.192589 233.446545,194.614747 C238.330878,192.036905 241.948848,188.577221 244.300563,184.235592 L244.300563,159 L229.647639,159 C210.019858,159 199.57297,165.783693 198.306661,179.351284 L198.170986,181.657763 C198.170986,186.542095 199.889522,190.567087 203.326645,193.732858 C206.763768,196.898629 211.467129,198.481491 217.436868,198.481491 Z M378.510065,121.430958 C373.692351,120.78159 369.446293,120.456911 365.771765,120.456911 C352.380151,120.456911 343.602243,124.961833 339.437778,133.971813 L339.437778,220.174969 L304.040001,220.174969 L304.040001,88.4351174 L337.47804,88.4351174 L338.457909,104.141625 C345.561997,92.0471478 355.401419,86 367.976471,86 C371.895967,86 375.57044,86.5276035 379,87.5828263 L378.510065,121.430958 Z M393.066482,220.660004 L393.066482,97.3625064 C393.022177,97.3700316 393.000017,97.3700316 393,97.3625064 C392.999983,97.3549865 392.954561,87.3120815 392.954578,67.3175991 C392.954578,67.3082904 392.969718,67.3082904 393,67.3175991 L393.066482,54.279243 C393.066482,37.083644 398.003056,23.7383587 407.876354,14.2429867 C417.749651,4.74761477 431.567336,0 449.329823,0 C454.998701,0 461.942974,0.94479896 470.162848,2.83442522 L469.737684,34.5799877 C466.336357,33.7296559 462.179242,33.3044964 457.266213,33.3044964 C441.865759,33.3044964 434.165648,40.5322084 434.165648,54.9878493 L434.165648,67.3175991 L464.635719,67.3175991 L464.635719,97.3625064 L434.165648,97.3625064 L434.165648,220.660004 L393.066482,220.660004 Z M552.469896,121.429646 C547.652193,120.780302 543.406145,120.455635 539.731625,120.455635 C526.340041,120.455635 517.562153,124.96039 513.397697,133.970036 L513.397697,220.169998 L478,220.169998 L478,88.4350272 L511.437963,88.4350272 L512.41783,104.140953 C519.521902,92.0469237 529.361302,86 541.936326,86 C545.855813,86 549.530278,86.5275839 552.95983,87.5827677 L552.469896,121.429646 Z M603,220.174969 L567,220.174969 L567,86 L603,86 L603,220.174969 Z M567,44.4753086 C567,39.3929787 568.7006,35.209893 572.101852,31.9259259 C575.503103,28.6419589 580.135773,27 586,27 C591.786037,27 596.39916,28.6419589 599.839506,31.9259259 C603.279853,35.209893 605,39.3929787 605,44.4753086 C605,49.6358283 603.260305,53.8580083 599.780864,57.1419753 C596.301423,60.4259423 591.707847,62.0679012 586,62.0679012 C580.292153,62.0679012 575.698577,60.4259423 572.219136,57.1419753 C568.739695,53.8580083 567,49.6358283 567,44.4753086 Z M679.638389,220.174969 C661.68165,220.174969 647.063725,214.355198 635.784177,202.715481 C624.504629,191.075764 618.864939,175.569662 618.864939,156.196708 L618.864939,152.848313 C618.864939,139.853287 621.241531,128.233676 625.994785,117.98913 C630.74804,107.744585 637.481716,99.8520187 646.196016,94.3111946 C654.910316,88.7703705 664.850504,86 676.01688,86 C692.766443,86 705.950868,91.5806024 715.57055,102.741975 C725.190231,113.903347 730,129.728341 730,150.217432 L730,164.328525 L652.024382,164.328525 C653.080661,172.779278 656.268311,179.555724 661.587429,184.658066 C666.906548,189.760407 673.640224,192.31154 681.78866,192.31154 C694.388557,192.31154 704.234436,187.488305 711.326594,177.84169 L727.39704,196.85579 C722.492889,204.190406 715.853522,209.910524 707.47874,214.016314 C699.103959,218.122105 689.823934,220.174969 679.638389,220.174969 Z M675.404748,114 C668.916179,114 663.653726,116.311964 659.617232,120.935961 C655.580738,125.559958 652.996666,132.176958 651.864939,140.78716 L697.360147,140.78716 L697.360147,138.036692 C697.20925,130.38318 695.247619,124.463755 691.475195,120.278241 C687.702771,116.092726 682.346009,114 675.404748,114 Z M775.259556,91.8720261 L776.326967,106.69719 C785.498848,95.2323392 797.793727,89.5 813.211974,89.5 C826.811659,89.5 836.932202,93.4928708 843.573909,101.478732 C850.215615,109.464593 853.615485,121.403672 853.773621,137.296327 L853.773621,220.198641 L819.497843,220.198641 L819.497843,138.126536 C819.497843,130.852286 817.916508,125.574581 814.753791,122.293261 C811.591074,119.011942 806.333135,117.371307 798.979817,117.371307 C789.333529,117.371307 782.098922,121.482778 777.275778,129.705843 L777.275778,220.198641 L743,220.198641 L743,91.8720261 L775.259556,91.8720261 Z M868,152.475165 C868,132.314499 872.572123,116.257925 881.716506,104.304961 C890.860889,92.3519967 903.368766,86.3756044 919.240515,86.3756044 C931.97014,86.3756044 942.484009,91.077033 950.782435,100.480031 L950.782435,34.5 L985.829014,34.5 L985.829014,218.096609 L954.287093,218.096609 L952.595189,204.350769 C943.893926,215.108437 932.695247,220.48719 918.998814,220.48719 C903.610469,220.48719 891.263724,214.490876 881.958206,202.498069 C872.652689,190.505262 868,173.831127 868,152.475165 Z M903,155.020345 C903,167.132682 905.135,176.416012 909.405064,182.870612 C913.675129,189.325213 919.878714,192.552465 928.016006,192.552465 C938.812017,192.552465 946.425508,188.050249 950.856707,179.045683 L950.856707,128.006782 C946.506076,119.002216 938.973151,114.5 928.257707,114.5 C911.419151,114.5 903,128.006647 903,155.020345 Z M1074.72857,181.620184 C1074.72857,177.390715 1072.63381,174.059061 1068.44424,171.625121 C1064.25468,169.191182 1057.53152,167.016629 1048.27457,165.101398 C1017.47127,158.637492 1002.06985,145.550276 1002.06985,125.839355 C1002.06985,114.347968 1006.8379,104.752006 1016.37416,97.0511803 C1025.91041,89.3503549 1038.37918,85.5 1053.78083,85.5 C1070.2199,85.5 1083.36696,89.3703049 1093.22242,97.1110309 C1103.07788,104.851757 1108.00554,114.90657 1108.00554,127.275771 L1073.41185,127.275771 C1073.41185,122.328091 1071.81585,118.238335 1068.6238,115.006383 C1065.43174,111.77443 1060.44424,110.158478 1053.66113,110.158478 C1047.83563,110.158478 1043.32693,111.47518 1040.13488,114.108623 C1036.94282,116.742065 1035.34682,120.09367 1035.34682,124.163536 C1035.34682,127.993998 1037.16227,131.086252 1040.79323,133.440391 C1044.42419,135.794529 1050.54885,137.829432 1059.16739,139.545159 C1067.78593,141.260887 1075.04774,143.19604 1080.95304,145.350675 C1099.22753,152.053984 1108.36464,163.664899 1108.36464,180.183768 C1108.36464,191.99436 1103.29734,201.550422 1093.16257,208.852241 C1083.02781,216.15406 1069.94059,219.804914 1053.90053,219.804914 C1043.04755,219.804914 1033.41169,217.869762 1024.99265,213.999399 C1016.57362,210.129036 1009.97016,204.822329 1005.18208,198.079119 C1000.394,191.33591 998,184.05415 998,176.233623 L1030.79817,176.233623 C1031.11738,182.378323 1033.39168,187.086529 1037.62115,190.358382 C1041.85062,193.630236 1047.51642,195.266138 1054.61874,195.266138 C1061.24225,195.266138 1066.2497,194.009286 1069.64126,191.495545 C1073.03281,188.981804 1074.72857,185.69005 1074.72857,181.620184 Z" id="Barfriends" fill="#FF8700"></path>
    </g>
</svg>