<?xml version="1.0" encoding="UTF-8"?>
<svg width="1881px" height="271px" viewBox="0 0 1881 271" version="1.1" xmlns="http://www.w3.org/2000/svg" xmlns:xlink="http://www.w3.org/1999/xlink">
    <!-- Generator: Sketch 47.1 (45422) - http://www.bohemiancoding.com/sketch -->
    <title>bfthanks</title>
    <desc>Created with Sketch.</desc>
    <defs></defs>
    <g id="Page-1" stroke="none" stroke-width="1" fill="none" fill-rule="evenodd">
        <g id="bfthanks" transform="translate(0.000000, -8.000000)" fill="#FFFFFF">
            <g id="logoLight" transform="translate(1567.000000, 0.000000)">
                <g id="logoMain-Copy" transform="translate(-25.000000, -50.000000)">
                    <ellipse id="Oval-3" cx="227" cy="123" rx="28" ry="54"></ellipse>
                    <ellipse id="Oval-3-Copy-3" cx="133" cy="123" rx="28" ry="54"></ellipse>
                    <path d="M50.348373,223.080496 C50.348373,223.080496 112.386477,314.16078 185.888757,310.915279 C201.852398,285.159524 186.346191,283.610087 183.570697,248.720435 C125.336365,247.215949 89.23365,231.651814 54.8843285,199.920279 C49.5793147,195.731352 40.200315,188.308997 34.2759192,207.971166 C28.3515234,227.633334 25.8943188,236.584269 26.0034734,241.328446 C26.112628,246.072624 41.580078,221.910433 41.580078,221.910433 C41.580078,221.910433 45.6525252,216.636552 48.7707896,221.054488 C51.889054,225.472425 50.348373,223.080496 50.348373,223.080496 Z" id="Combined-Shape"></path>
                    <path d="M196.348373,223.080496 C196.348373,223.080496 258.386477,314.16078 331.888757,310.915279 C347.852398,285.159524 332.346191,283.610087 329.570697,248.720435 C271.336365,247.215949 235.23365,231.651814 200.884328,199.920279 C195.579315,195.731352 186.200315,188.308997 180.275919,207.971166 C174.351523,227.633334 171.894319,236.584269 172.003473,241.328446 C172.112628,246.072624 187.580078,221.910433 187.580078,221.910433 C187.580078,221.910433 191.652525,216.636552 194.77079,221.054488 C197.889054,225.472425 196.348373,223.080496 196.348373,223.080496 Z" id="Combined-Shape-Copy-4" transform="translate(255.500000, 253.000000) scale(-1, 1) translate(-255.500000, -253.000000) "></path>
                </g>
            </g>
            <path d="M130.361344,274.161966 L130.361344,57.678732 L206.148607,57.678732 L206.148607,12.532731 L0,12.532731 L0,57.678732 L75.6059534,57.678732 L75.6059534,274.161966 L130.361344,274.161966 Z M467.056666,274.161966 L467.056666,12.532731 L412.301275,12.532731 L412.301275,118.779946 L294.450268,118.779946 L294.450268,12.532731 L239.694878,12.532731 L239.694878,274.161966 L294.450268,274.161966 L294.450268,163.925947 L412.301275,163.925947 L412.301275,274.161966 L467.056666,274.161966 Z M685.175744,274.161966 L665.231727,210.703731 L573.307942,210.703731 L553.363926,274.161966 L497.158061,274.161966 L587.993991,12.532731 L652.358771,12.532731 L743.37601,274.161966 L685.175744,274.161966 Z M618.635252,62.5740815 L585.093043,169.727843 L653.446627,169.727843 L619.904417,62.5740815 L618.635252,62.5740815 Z M825.694467,274.161966 L825.694467,102.824733 L827.32625,102.824733 L949.709987,274.161966 L995.037298,274.161966 L995.037298,12.532731 L942.638927,12.532731 L942.638927,182.963417 L941.188453,182.963417 L818.986025,12.532731 L773.296096,12.532731 L773.296096,274.161966 L825.694467,274.161966 Z M1096.57453,274.161966 L1096.57453,194.20459 L1121.05128,164.832493 L1198.65164,274.161966 L1264.10427,274.161966 L1160.5767,128.570645 L1257.39583,12.532731 L1196.47593,12.532731 L1098.20632,131.834211 L1096.57453,131.834211 L1096.57453,12.532731 L1041.81914,12.532731 L1041.81914,274.161966 L1096.57453,274.161966 Z M1278.79438,199.643868 C1280.42617,248.778672 1320.49551,278.694697 1383.40981,278.694697 C1448.31852,278.694697 1489.47572,246.602961 1489.47572,195.836373 C1489.47572,155.948341 1466.63076,133.465995 1414.23239,122.224822 L1382.50327,115.51638 C1352.40593,108.626629 1339.71429,99.5611666 1339.71429,83.4246442 C1339.71429,64.0245554 1357.84521,51.1515993 1384.86029,51.1515993 C1412.23798,51.1515993 1431.63807,64.5684831 1433.45116,86.6882105 L1484.76168,86.6882105 C1483.85513,39.3664987 1445.59888,8 1384.67898,8 C1326.2974,8 1284.59628,39.9104264 1284.59628,88.1386844 C1284.59628,126.394934 1308.34779,150.871682 1356.57605,161.206309 L1390.66218,168.639987 C1422.20999,175.711048 1434.72033,185.139128 1434.72033,202.182197 C1434.72033,221.400976 1414.77631,235.361788 1385.58553,235.361788 C1356.57605,235.361788 1334.0937,221.219667 1331.55537,199.643868 L1278.79438,199.643868 Z" id="THANKS"></path>
        </g>
    </g>
</svg>