<?xml version="1.0" encoding="UTF-8"?>
<svg width="526px" height="615px" viewBox="0 0 526 615" version="1.1" xmlns="http://www.w3.org/2000/svg" xmlns:xlink="http://www.w3.org/1999/xlink">
    <!-- Generator: Sketch 47 (45396) - http://www.bohemiancoding.com/sketch -->
    <title>message-icon white</title>
    <desc>Created with Sketch.</desc>
    <defs></defs>
    <g id="Page-1" stroke="none" stroke-width="1" fill="none" fill-rule="evenodd">
        <g id="ask-icons" transform="translate(-1613.000000, 0.000000)">
            <g id="message-icon-white" transform="translate(1613.000000, 0.000000)">
                <g></g>
                <ellipse id="Oval-2-Copy-2" fill="#FFFFFF" cx="263" cy="260" rx="263" ry="260"></ellipse>
                <ellipse id="Oval-6-Copy-2" fill-opacity="0.430000007" fill="#000000" cx="263.5" cy="586" rx="189.5" ry="29"></ellipse>
                <g id="messages" transform="translate(133.462687, 155.223881)" fill="#00FFA3">
                    <path d="M0,104.520271 C0,151.623157 24.8574254,191.6778 67.2318284,204.570926 C66.8981716,206.118101 66.7313433,207.493368 66.7313433,209.040543 L66.7313433,245.828928 C66.7313433,258.206328 75.2395896,259.06587 83.9146642,250.298545 L133.462687,206.290009 L163.825448,206.290009 C220.713918,206.290009 266.925373,159.53094 266.925373,101.769738 C266.925373,44.0085353 220.713918,0 163.825448,0 L103.099925,0 C46.2114552,9.77185783e-13 0,46.7590688 0,104.520271 L0,104.520271 Z M66.7313433,68.7633364 L200.19403,68.7633364 L200.19403,85.9541705 L66.7313433,85.9541705 L66.7313433,68.7633364 L66.7313433,68.7633364 Z M66.7313433,103.145005 L200.19403,103.145005 L200.19403,120.335839 L66.7313433,120.335839 L66.7313433,103.145005 L66.7313433,103.145005 Z M66.7313433,137.526673 L150.145522,137.526673 L150.145522,154.717507 L66.7313433,154.717507 L66.7313433,137.526673 L66.7313433,137.526673 Z" id="Shape"></path>
                </g>
            </g>
        </g>
    </g>
</svg>