<?xml version="1.0" encoding="UTF-8"?>
<svg width="841px" height="101px" viewBox="0 0 841 101" version="1.1" xmlns="http://www.w3.org/2000/svg" xmlns:xlink="http://www.w3.org/1999/xlink">
    <!-- Generator: Sketch 48.2 (47327) - http://www.bohemiancoding.com/sketch -->
    <title>usingBarfriends</title>
    <desc>Created with Sketch.</desc>
    <defs></defs>
    <g id="Page-1" stroke="none" stroke-width="1" fill="none" fill-rule="evenodd">
        <g id="usingBarfriends" fill="#FF8700">
            <g id="smileyIcon-Android-Copy" transform="translate(729.000000, 11.000000)">
                <g id="Group-8">
                    <g id="Group-7-Copy">
                        <g id="eyes" transform="translate(32.000000, 0.000000)">
                            <path d="M10.2418879,33.6623114 C16.7217053,33.6623114 20.4837758,26.0918345 20.4837758,16.8043809 C20.4837758,7.51692732 16.6627542,0.0162064509 10.2418879,2.68435165e-05 C3.82102158,-0.0161527639 0,7.28359428 0,16.8043809 C3.54747847e-16,26.3251675 3.76207056,33.6623114 10.2418879,33.6623114 Z" id="right"></path>
                            <path d="M39.5358899,33.6623114 C46.0157072,33.6623114 49.7777778,26.0918345 49.7777778,16.8043809 C49.7777778,7.51692732 45.9567562,0.0162064509 39.5358899,2.68435165e-05 C33.1150235,-0.0161527639 29.294002,7.28359428 29.294002,16.8043809 C29.294002,26.3251675 33.0560725,33.6623114 39.5358899,33.6623114 Z" id="left" transform="translate(39.535890, 16.831156) scale(-1, 1) translate(-39.535890, -16.831156) "></path>
                        </g>
                        <path d="M2.89260203,41.9796778 C3.28317607,41.1403678 4.23438447,39.0543093 7.20092333,39.0044666 C7.71091746,38.9839222 8.41146521,39.1283806 9.16588792,39.4667436 C13.7910228,42.3815142 32.0541632,54.4284186 57.1740508,53.7349655 C60.752986,53.7659455 81.7915151,53.5667997 102.276503,39.8041777 C103.509207,38.981918 104.566488,38.9219355 105.529466,39.0543093 C107.160672,39.3638047 108.358611,40.2503993 109.051117,41.8916501 C110.188001,45.3956716 110.967411,49.9496117 111.980903,52.9822316 C112.095103,53.3386438 111.690237,54.0688524 110.95101,53.6686498 C110.06512,52.9305643 106.35472,47.8785444 105.666841,46.9465477 C105.13667,46.302444 104.47555,46.4809074 104.20789,46.6826741 C99.6284698,53.5263092 87.8794202,77.6417617 56.0902644,78 C23.5486551,77.5594448 12.1996788,52.9822316 7.7930937,46.6826741 C7.52140491,46.4975545 6.82470329,46.2403308 6.23158486,47.0723771 C4.55905311,49.3375479 1.8860537,52.9355362 1.04915963,53.6686498 C0.537394974,53.9631828 -0.0887611652,53.6686498 0.0104662665,53.0005983 C0.436316626,51.6368485 1.60688158,46.5074901 2.89260203,41.9796778 Z" id="smile" transform="translate(56.000000, 58.500000) scale(-1, 1) translate(-56.000000, -58.500000) "></path>
                    </g>
                </g>
            </g>
            <g>
                <path d="M60.9,54.4 C60.9,64.066715 58.200027,71.2499765 52.8,75.95 C47.399973,80.6500235 39.933381,83 30.4,83 C20.733285,83 13.2500265,80.66669 7.95,76 C2.6499735,71.33331 0,64.133382 0,54.4 L0,10 L15.7,10 L15.7,54.4 C15.7,56.333343 15.866665,58.233324 16.2,60.1 C16.533335,61.966676 17.233328,63.6166595 18.3,65.05 C19.366672,66.4833405 20.8499905,67.6499955 22.75,68.55 C24.6500095,69.4500045 27.199984,69.9 30.4,69.9 C36.000028,69.9 39.866656,68.6500125 42,66.15 C44.133344,63.6499875 45.2,59.73336 45.2,54.4 L45.2,10 L60.9,10 L60.9,54.4 Z M85.2200001,64.6 C85.2200001,66.133341 85.5366636,67.4499945 86.1700001,68.55 C86.8033366,69.6500055 87.6199951,70.5499965 88.6200001,71.25 C89.6200051,71.9500035 90.7699936,72.466665 92.0700001,72.8 C93.3700066,73.133335 94.7199931,73.3 96.1200001,73.3 C97.1200051,73.3 98.1699946,73.1833345 99.2700001,72.95 C100.370006,72.7166655 101.369996,72.3500025 102.27,71.85 C103.170005,71.3499975 103.919997,70.6833375 104.52,69.85 C105.120003,69.0166625 105.42,67.966673 105.42,66.7 C105.42,64.566656 104.003348,62.966672 101.17,61.9 C98.3366526,60.833328 94.3866921,59.766672 89.3200001,58.7 C87.2533231,58.233331 85.2366766,57.6833365 83.2700001,57.05 C81.3033236,56.4166635 79.5533411,55.5833385 78.0200001,54.55 C76.4866591,53.5166615 75.2533381,52.2166745 74.3200001,50.65 C73.3866621,49.0833255 72.9200001,47.166678 72.9200001,44.9 C72.9200001,41.56665 73.5699936,38.833344 74.8700001,36.7 C76.1700066,34.566656 77.8866561,32.8833395 80.0200001,31.65 C82.1533441,30.4166605 84.5533201,29.5500025 87.2200001,29.05 C89.8866801,28.5499975 92.6199861,28.3 95.4200001,28.3 C98.2200141,28.3 100.936654,28.566664 103.57,29.1 C106.203347,29.633336 108.553323,30.533327 110.62,31.8 C112.686677,33.066673 114.403327,34.7499895 115.77,36.85 C117.136674,38.9500105 117.953332,41.599984 118.22,44.8 L104.72,44.8 C104.519999,42.066653 103.486676,40.2166715 101.62,39.25 C99.7533241,38.2833285 97.5533461,37.8 95.0200001,37.8 C94.2199961,37.8 93.3533381,37.8499995 92.4200001,37.95 C91.4866621,38.0500005 90.6366706,38.266665 89.8700001,38.6 C89.1033296,38.933335 88.4533361,39.4166635 87.9200001,40.05 C87.3866641,40.6833365 87.1200001,41.533328 87.1200001,42.6 C87.1200001,43.866673 87.5866621,44.899996 88.5200001,45.7 C89.4533381,46.500004 90.6699926,47.1499975 92.1700001,47.65 C93.6700076,48.1500025 95.3866571,48.599998 97.3200001,49 C99.2533431,49.400002 101.21999,49.833331 103.22,50.3 C105.286677,50.766669 107.303324,51.33333 109.27,52 C111.236677,52.66667 112.986659,53.5499945 114.52,54.65 C116.053341,55.7500055 117.286662,57.1166585 118.22,58.75 C119.153338,60.3833415 119.62,62.399988 119.62,64.8 C119.62,68.200017 118.936674,71.0499885 117.57,73.35 C116.203327,75.6500115 114.420011,77.499993 112.22,78.9 C110.019989,80.300007 107.503348,81.2833305 104.67,81.85 C101.836653,82.4166695 98.9533481,82.7 96.0200001,82.7 C93.0199851,82.7 90.0866811,82.400003 87.2200001,81.8 C84.3533191,81.199997 81.8033446,80.200007 79.5700001,78.8 C77.3366556,77.399993 75.5033406,75.5500115 74.0700001,73.25 C72.6366596,70.9499885 71.8533341,68.066684 71.7200001,64.6 L85.2200001,64.6 Z M143.84,21.7 L129.64,21.7 L129.64,10 L143.84,10 L143.84,21.7 Z M129.64,29.7 L143.84,29.7 L143.84,81.4 L129.64,81.4 L129.64,29.7 Z M156.36,29.7 L169.86,29.7 L169.86,36.9 L170.16,36.9 C171.960009,33.899985 174.293319,31.7166735 177.16,30.35 C180.026681,28.9833265 182.959985,28.3 185.96,28.3 C189.760019,28.3 192.876655,28.8166615 195.31,29.85 C197.743346,30.8833385 199.659993,32.3166575 201.06,34.15 C202.460007,35.9833425 203.443331,38.2166535 204.01,40.85 C204.57667,43.4833465 204.86,46.399984 204.86,49.6 L204.86,81.4 L190.66,81.4 L190.66,52.2 C190.66,47.933312 189.99334,44.7500105 188.66,42.65 C187.32666,40.5499895 184.960017,39.5 181.56,39.5 C177.693314,39.5 174.893342,40.6499885 173.16,42.95 C171.426658,45.2500115 170.56,49.033307 170.56,54.3 L170.56,81.4 L156.36,81.4 L156.36,29.7 Z M241.08,69.2 C243.08001,69.2 244.846659,68.800004 246.38,68 C247.913341,67.199996 249.179995,66.13334 250.18,64.8 C251.180005,63.46666 251.929998,61.9500085 252.43,60.25 C252.930003,58.5499915 253.18,56.766676 253.18,54.9 C253.18,52.766656 252.980002,50.7500095 252.58,48.85 C252.179998,46.9499905 251.513338,45.266674 250.58,43.8 C249.646662,42.333326 248.413341,41.166671 246.88,40.3 C245.346659,39.433329 243.413345,39 241.08,39 C239.07999,39 237.363341,39.399996 235.93,40.2 C234.49666,41.000004 233.296672,42.0833265 232.33,43.45 C231.363329,44.8166735 230.663336,46.3833245 230.23,48.15 C229.796665,49.9166755 229.58,51.766657 229.58,53.7 C229.58,55.566676 229.763332,57.4166575 230.13,59.25 C230.496669,61.0833425 231.129996,62.733326 232.03,64.2 C232.930005,65.666674 234.113326,66.866662 235.58,67.8 C237.046674,68.733338 238.879989,69.2 241.08,69.2 Z M266.68,78.1 C266.68,80.166677 266.39667,82.53332 265.83,85.2 C265.263331,87.86668 264.046676,90.3499885 262.18,92.65 C260.313324,94.9500115 257.613351,96.899992 254.08,98.5 C250.546649,100.100008 245.813363,100.9 239.88,100.9 C237.346654,100.9 234.763347,100.583336 232.13,99.95 C229.496654,99.3166635 227.096678,98.33334 224.93,97 C222.763323,95.66666 220.963341,93.9500105 219.53,91.85 C218.09666,89.7499895 217.280001,87.233348 217.08,84.3 L231.18,84.3 C231.84667,86.96668 233.146657,88.8166615 235.08,89.85 C237.013343,90.8833385 239.246654,91.4 241.78,91.4 C245.78002,91.4 248.696658,90.200012 250.53,87.8 C252.363343,85.399988 253.246667,82.366685 253.18,78.7 L253.18,71.9 L252.98,71.9 C251.446659,74.633347 249.263348,76.6499935 246.43,77.95 C243.596653,79.2500065 240.613349,79.9 237.48,79.9 C233.613314,79.9 230.280014,79.2166735 227.48,77.85 C224.679986,76.4833265 222.380009,74.6166785 220.58,72.25 C218.779991,69.8833215 217.463338,67.1166825 216.63,63.95 C215.796663,60.7833175 215.38,57.433351 215.38,53.9 C215.38,50.56665 215.863329,47.3500155 216.83,44.25 C217.796672,41.1499845 219.213324,38.4166785 221.08,36.05 C222.946676,33.6833215 225.26332,31.800007 228.03,30.4 C230.796681,28.999993 233.979982,28.3 237.58,28.3 C240.980017,28.3 243.963321,28.933327 246.53,30.2 C249.09668,31.466673 251.246658,33.599985 252.98,36.6 L253.18,36.6 L253.18,29.7 L266.68,29.7 L266.68,78.1 Z" id="Using"></path>
                <path d="M447.904491,28.1886665 L447.904491,28.1185227 L447.881655,28.1185227 L447.881655,28.1014302 L447.904491,28.1014302 L447.904491,28.0940127 C447.904491,28.0842301 447.909432,28.076638 447.919314,28.0712361 C447.929196,28.0658342 447.943026,28.0631333 447.960804,28.0631333 C447.966477,28.0631333 447.973428,28.0636708 447.981655,28.0647458 L447.981229,28.0828058 C447.977825,28.082322 447.973664,28.0820802 447.968747,28.0820802 C447.953333,28.0820802 447.945626,28.086192 447.945626,28.0944158 L447.945626,28.1014302 L447.976123,28.1014302 L447.976123,28.1185227 L447.945626,28.1185227 L447.945626,28.1886665 L447.904491,28.1886665 Z M298,82.1205029 L298,2.60958897 L325.850664,2.60958897 C335.498327,2.60958897 342.815879,4.45717987 347.803539,8.1524171 C352.7912,11.8476543 355.284992,17.263007 355.284992,24.3986375 C355.284992,28.2941093 354.283835,31.7253495 352.281489,34.6924612 C350.279144,37.6595728 347.494106,39.8348153 343.92629,41.2182539 C348.003793,42.2376297 351.216599,44.2945535 353.564804,47.3890872 C355.913009,50.4836208 357.087094,54.269817 357.087094,58.7477892 C357.087094,66.3931076 354.64791,72.181619 349.769469,76.113497 C344.891027,80.0453751 337.937533,82.0476903 328.908776,82.1205029 L298,82.1205029 Z M314.403131,47.3453999 L314.403131,68.8067935 L328.437681,68.8067935 C332.296746,68.8067935 335.309321,67.8875488 337.475494,66.0490318 C339.641668,64.2105147 340.724738,61.6712149 340.724738,58.4310561 C340.724738,51.1498005 336.956745,47.4546187 329.420645,47.3453999 L314.403131,47.3453999 Z M314.403131,35.6990897 L326.526361,35.6990897 C334.790586,35.5534646 338.922636,32.2587459 338.922636,25.8148346 C338.922636,22.2106131 337.875972,19.6167047 335.782611,18.0330316 C333.68925,16.4493585 330.385429,15.6575338 325.871051,15.6575338 L314.403131,15.6575338 L314.403131,35.6990897 Z M392.581759,81.3352847 C391.972935,80.1551285 391.531544,78.6875203 391.257573,76.9324162 C388.061244,80.4728849 383.906079,82.2430926 378.791953,82.2430926 C373.951798,82.2430926 369.941226,80.8511344 366.760118,78.0671761 C363.57901,75.2832179 361.988479,71.7730623 361.988479,67.5366041 C361.988479,62.3318126 363.929079,58.3374977 367.810335,55.5535394 C371.691591,52.7695812 377.300303,51.362493 384.636639,51.3322325 L390.709633,51.3322325 L390.709633,48.5180279 C390.709633,46.2484968 390.123649,44.4328991 388.951661,43.0711804 C387.779674,41.7094616 385.930397,41.0286125 383.403775,41.0286125 C381.181566,41.0286125 379.438832,41.5581618 378.175521,42.6172764 C376.91221,43.6763909 376.280564,45.1288691 376.280564,46.9747545 L363.084358,46.9747545 C363.084358,44.1302754 363.96714,41.4976587 365.732732,39.0768255 C367.498323,36.6559922 369.994466,34.7571796 373.221236,33.3803307 C376.448006,32.0034818 380.070458,31.3150676 384.0887,31.3150676 C390.176945,31.3150676 395.009417,32.8356307 398.586261,35.8768025 C402.163106,38.9179743 403.951501,43.1921939 403.951501,48.6995895 L403.951501,69.9876855 C403.981942,74.6477896 404.636419,78.1730751 405.91495,80.5636479 L405.91495,81.3352847 L392.581759,81.3352847 Z M378.863529,73.993587 C381.021599,73.993587 383.01104,73.5130865 384.831911,72.552071 C386.652783,71.5910555 388.001556,70.3012909 388.878272,68.6827384 L388.878272,59.2749494 L383.415685,59.2749494 C376.098479,59.2749494 372.203896,61.8038997 371.731818,66.861876 L371.681238,67.7217277 C371.681238,69.5425992 372.321906,71.0431097 373.60326,72.2233042 C374.884614,73.4034987 376.638019,73.993587 378.863529,73.993587 Z M438.911363,45.2692699 C437.115327,45.0271866 435.532403,44.9061467 434.162545,44.9061467 C429.170172,44.9061467 425.897782,46.5855746 424.345276,49.9444807 L424.345276,82.0808815 L411.14904,82.0808815 L411.14904,32.9684724 L423.614688,32.9684724 L423.979982,38.8238336 C426.628375,34.3150316 430.296496,32.0606645 434.984456,32.0606645 C436.445638,32.0606645 437.815475,32.2573542 439.09401,32.6507396 L438.911363,45.2692699 Z M444.337972,82.2617016 L444.337972,36.296589 C444.321455,36.2993943 444.313194,36.2993943 444.313188,36.296589 C444.313182,36.2937856 444.296248,32.5498064 444.296254,25.0958949 C444.296254,25.0924246 444.301899,25.0924246 444.313188,25.0958949 L444.337972,20.2352163 C444.337972,13.8247241 446.178319,8.84962273 449.859069,5.30976302 C453.539819,1.76990331 458.69103,0 465.312857,0 C467.426206,0 470.01502,0.352219563 473.079376,1.05666926 L472.920876,12.8913649 C471.652866,12.5743626 470.1031,12.4158638 468.271531,12.4158638 C462.530266,12.4158638 459.659676,15.1103434 459.659676,20.4993836 L459.659676,25.0958949 L471.018871,25.0958949 L471.018871,36.296589 L459.659676,36.296589 L459.659676,82.2617016 L444.337972,82.2617016 Z M503.763314,45.2687805 C501.967282,45.0267062 500.384361,44.9056708 499.014506,44.9056708 C494.022145,44.9056708 490.749762,46.5850365 489.19726,49.9438182 L489.19726,82.0790284 L476.001054,82.0790284 L476.001054,32.9684388 L488.466674,32.9684388 L488.831967,38.823583 C491.480354,34.3149481 495.148466,32.0606645 499.836415,32.0606645 C501.297594,32.0606645 502.667429,32.2573469 503.94596,32.6507178 L503.763314,45.2687805 Z M522.600857,82.0808815 L509.180114,82.0808815 L509.180114,32.0606645 L522.600857,32.0606645 L522.600857,82.0808815 Z M509.180114,16.580325 C509.180114,14.6856404 509.814095,13.1261926 511.082076,11.9019349 C512.350057,10.6776771 514.077109,10.0655575 516.263284,10.0655575 C518.420309,10.0655575 520.140074,10.6776771 521.42263,11.9019349 C522.705185,13.1261926 523.346454,14.6856404 523.346454,16.580325 C523.346454,18.5041586 522.697898,20.0781806 521.400768,21.3024384 C520.103638,22.5266961 518.39116,23.1388158 516.263284,23.1388158 C514.135407,23.1388158 512.422929,22.5266961 511.125799,21.3024384 C509.828669,20.0781806 509.180114,18.5041586 509.180114,16.580325 Z M551.171527,82.0808815 C544.477283,82.0808815 539.027744,79.91128 534.822746,75.5720119 C530.617749,71.2327438 528.515281,65.4520933 528.515281,58.2298868 L528.515281,56.9816104 C528.515281,52.1370851 529.401271,47.8053122 531.173277,43.9861619 C532.945282,40.1670115 535.455586,37.2246752 538.704263,35.1590647 C541.952941,33.0934542 545.658627,32.0606645 549.821435,32.0606645 C556.065645,32.0606645 560.980778,34.1411043 564.56698,38.3020463 C568.153183,42.4629883 569.946257,48.3625212 569.946257,56.0008218 L569.946257,61.2614151 L540.877069,61.2614151 C541.270848,64.4118426 542.459199,66.9380909 544.442158,68.8402358 C546.425117,70.7423808 548.935421,71.693439 551.973145,71.693439 C556.670367,71.693439 560.340895,69.8953446 562.98484,66.2991018 L568.975877,73.3875283 C567.147618,76.1218616 564.672472,78.2543124 561.550367,79.7849447 C558.428261,81.3155769 554.968683,82.0808815 551.171527,82.0808815 Z M549.593233,42.4990204 C547.174304,42.4990204 545.21247,43.3609168 543.707672,45.0847357 C542.202873,46.8085545 541.239535,49.2753617 540.817629,52.4852313 L557.778171,52.4852313 L557.778171,51.4598614 C557.721917,48.606644 556.990624,46.3998918 555.58427,44.8395385 C554.177916,43.2791853 552.180924,42.4990204 549.593233,42.4990204 Z M586.818948,34.2497466 L587.216877,39.7765441 C590.63614,35.502466 595.219651,33.365459 600.96755,33.365459 C606.037491,33.365459 609.810413,34.8539949 612.286431,37.8311114 C614.762449,40.8082279 616.029915,45.2590977 616.088868,51.1838543 L616.088868,82.0897063 L603.310912,82.0897063 L603.310912,51.493355 C603.310912,48.7815261 602.721393,46.8140058 601.542336,45.5907352 C600.36328,44.3674645 598.403129,43.7558384 595.661824,43.7558384 C592.065703,43.7558384 589.368653,45.2885882 587.570592,48.354134 L587.570592,82.0897063 L574.792636,82.0897063 L574.792636,34.2497466 L586.818948,34.2497466 Z M621.392439,56.8425011 C621.392439,49.3266367 623.096919,43.3407711 626.505931,38.884725 C629.914943,34.4286788 634.57786,32.2006892 640.494822,32.2006892 C645.240407,32.2006892 649.15996,33.9533744 652.253601,37.4587974 L652.253601,12.8615456 L665.31891,12.8615456 L665.31891,81.3060722 L653.560132,81.3060722 L652.929393,76.1816447 C649.685575,80.1920862 645.510725,82.1972769 640.404717,82.1972769 C634.667966,82.1972769 630.065119,79.9618606 626.596037,75.490961 C623.126954,71.0200614 621.392439,64.8039703 621.392439,56.8425011 Z M634.440384,57.7913405 C634.440384,62.3068006 635.236309,65.7676111 636.828182,68.1738761 C638.420055,70.580141 640.732742,71.7832554 643.766312,71.7832554 C647.791048,71.7832554 650.629345,70.1048365 652.281289,66.7479484 L652.281289,47.7207265 C650.659381,44.3638384 647.851118,42.6854196 643.856417,42.6854196 C637.57903,42.6854196 634.440384,47.7206762 634.440384,57.7913405 Z M698.460523,67.7077184 C698.460523,66.130979 697.679602,64.8889436 696.117738,63.9815747 C694.555873,63.0742059 692.04949,62.263536 688.598514,61.5495409 C677.115092,59.1398072 671.373467,54.2609134 671.373467,46.9127132 C671.373467,42.6287422 673.15099,39.0513826 676.706091,36.1805271 C680.261192,33.3096715 684.909528,31.8742653 690.65124,31.8742653 C696.779698,31.8742653 701.680904,33.3171089 705.355004,36.2028393 C709.029104,39.0885698 710.866127,42.8369881 710.866127,47.4482069 L697.969653,47.4482069 C697.969653,45.6037194 697.374666,44.0790651 696.184674,42.8741983 C694.994682,41.6693314 693.135348,41.066907 690.606615,41.066907 C688.43488,41.066907 686.754041,41.5577713 685.564049,42.5395147 C684.374058,43.521258 683.779071,44.7707308 683.779071,46.2879706 C683.779071,47.7159609 684.455868,48.8687483 685.809484,49.7463673 C687.1631,50.6239864 689.446363,51.3825949 692.659341,52.0222155 C695.872319,52.6618362 698.57951,53.383258 700.780995,54.1865026 C707.593699,56.6854856 711,61.0140164 711,67.1722247 C711,71.5751948 709.110916,75.1376798 705.332692,77.8597863 C701.554467,80.5818929 696.675574,81.9429258 690.695864,81.9429258 C686.649891,81.9429258 683.057657,81.221504 679.919053,79.7786387 C676.78045,78.3357735 674.318691,76.3574416 672.533703,73.8435836 C670.748715,71.3297256 669.856234,68.6150973 669.856234,65.699617 L682.08334,65.699617 C682.20234,67.9903515 683.050196,69.7455633 684.626936,70.965305 C686.203675,72.1850467 688.315879,72.7949085 690.963611,72.7949085 C693.432844,72.7949085 695.299616,72.3263562 696.563982,71.3892375 C697.828349,70.4521189 698.460523,69.2249581 698.460523,67.7077184 Z" id="Barfriends"></path>
            </g>
        </g>
    </g>
</svg>