<?xml version="1.0" encoding="UTF-8"?>
<svg width="308px" height="308px" viewBox="0 0 308 308" version="1.1" xmlns="http://www.w3.org/2000/svg" xmlns:xlink="http://www.w3.org/1999/xlink">
    <!-- Generator: Sketch 47.1 (45422) - http://www.bohemiancoding.com/sketch -->
    <title>Xit</title>
    <desc>Created with Sketch.</desc>
    <defs></defs>
    <g id="Page-1" stroke="none" stroke-width="1" fill="none" fill-rule="evenodd">
        <path d="M5.78244958,27.0272049 C0.0450749557,21.2898303 0.0450749557,11.7409131 5.78244958,5.80293097 C11.7204317,0.0655563449 21.0687414,0.0655563449 27.0067235,5.80293097 L154.365741,133.37593 L281.93874,5.80293097 C287.676114,0.0655563449 297.225032,0.0655563449 302.949032,5.80293097 C308.887015,11.7409131 308.887015,21.3032041 302.949032,27.0272049 L175.590015,154.399596 L302.949032,281.972595 C308.887015,287.70997 308.887015,297.258887 302.949032,303.196869 C297.211658,308.934244 287.662741,308.934244 281.93874,303.196869 L154.365741,175.62387 L27.0067235,303.196869 C21.0687414,308.934244 11.7204317,308.934244 5.78244958,303.196869 C0.0450749557,297.258887 0.0450749557,287.696596 5.78244958,281.972595 L133.141467,154.399596 L5.78244958,27.0272049 Z" id="Xit" stroke="#FFFFFF" fill="#FFFFFF" fill-rule="nonzero"></path>
    </g>
</svg>