<?xml version="1.0" encoding="UTF-8"?>
<svg width="268px" height="294px" viewBox="0 0 268 294" version="1.1" xmlns="http://www.w3.org/2000/svg" xmlns:xlink="http://www.w3.org/1999/xlink">
    <!-- Generator: Sketch 48.2 (47327) - http://www.bohemiancoding.com/sketch -->
    <title>google-play</title>
    <desc>Created with Sketch.</desc>
    <defs></defs>
    <g id="Page-1" stroke="none" stroke-width="1" fill="none" fill-rule="evenodd">
        <g id="google-play" transform="translate(1.000000, 1.000000)" fill="#FF8700" fill-rule="nonzero" stroke="#272727">
            <path d="M1.18897172,9.72256041 C0.482732726,12.2000619 0,14.8722169 0,17.9245069 L0,268.992938 C0,271.999367 0.482732726,274.642987 1.16141616,277.092972 L142.273479,143.594267 C142.273479,143.593247 1.18897172,9.72256041 1.18897172,9.72256041 Z" id="Shape"></path>
            <path d="M194.440421,93.030417 L32.4181686,4.08176348 C25.9587964,0.204870049 19.5997873,-0.777725322 14.2273479,0.574333832 L153.58158,131.254566 C153.58158,131.254566 194.440421,93.030417 194.440421,93.030417 Z" id="Shape"></path>
            <path d="M253.782435,120.65822 L212.753785,97.2256041 L170.728175,138.0924 L213.533641,179.867368 L253.452972,157.360521 C272.939867,145.959971 265.831649,127.608821 253.782435,120.65822 Z" id="Shape"></path>
            <path d="M9.48489861,290.989079 C15.0554776,292.496058 21.7083991,291.593854 28.4730397,287.613248 L194.440421,199.467872 L151.957454,160.422247 C151.957454,160.423238 9.48489861,290.989079 9.48489861,290.989079 Z" id="Shape"></path>
        </g>
    </g>
</svg>