<?xml version="1.0" encoding="UTF-8"?>
<svg width="279px" height="203px" viewBox="0 0 279 203" version="1.1" xmlns="http://www.w3.org/2000/svg" xmlns:xlink="http://www.w3.org/1999/xlink">
    <!-- Generator: Sketch 47.1 (45422) - http://www.bohemiancoding.com/sketch -->
    <title>Acesoftlogo</title>
    <desc>Created with Sketch.</desc>
    <defs>
        <linearGradient x1="52.1807313%" y1="-20.4361592%" x2="53.3946993%" y2="126.301444%" id="linearGradient-1">
            <stop stop-color="#FF482A" offset="0%"></stop>
            <stop stop-color="#8F0F0F" offset="100%"></stop>
        </linearGradient>
        <path d="M21.4497446,130.316323 C0.824236386,135.490517 -4.86373019,138.495261 4.38584483,139.330557 C18.2602074,140.583501 112.746085,132.313855 126.349473,128.331284" id="path-2"></path>
        <filter x="-26.5%" y="-265.1%" width="149.9%" height="666.2%" filterUnits="objectBoundingBox" id="filter-3">
            <feMorphology radius="0.5" operator="dilate" in="SourceAlpha" result="shadowSpreadOuter1"></feMorphology>
            <feOffset dx="-2" dy="2" in="shadowSpreadOuter1" result="shadowOffsetOuter1"></feOffset>
            <feMorphology radius="1" operator="erode" in="SourceAlpha" result="shadowInner"></feMorphology>
            <feOffset dx="-2" dy="2" in="shadowInner" result="shadowInner"></feOffset>
            <feComposite in="shadowOffsetOuter1" in2="shadowInner" operator="out" result="shadowOffsetOuter1"></feComposite>
            <feGaussianBlur stdDeviation="10" in="shadowOffsetOuter1" result="shadowBlurOuter1"></feGaussianBlur>
            <feColorMatrix values="0 0 0 0 1   0 0 0 0 0.92623267   0 0 0 0 0  0 0 0 1 0" type="matrix" in="shadowBlurOuter1"></feColorMatrix>
        </filter>
        <path d="M161.588612,120.979384 C177.436029,115.604653 179.764582,112.453235 168.57427,111.525128 C151.788803,110.132969 26.613276,102.428415 19.6350984,100.705953 C14.9829799,99.5576455 17.8385879,98.1663167 28.2019222,96.5319667" id="path-4"></path>
        <filter x="-21.2%" y="-120.7%" width="139.9%" height="357.7%" filterUnits="objectBoundingBox" id="filter-5">
            <feMorphology radius="0.5" operator="dilate" in="SourceAlpha" result="shadowSpreadOuter1"></feMorphology>
            <feOffset dx="-2" dy="2" in="shadowSpreadOuter1" result="shadowOffsetOuter1"></feOffset>
            <feMorphology radius="1" operator="erode" in="SourceAlpha" result="shadowInner"></feMorphology>
            <feOffset dx="-2" dy="2" in="shadowInner" result="shadowInner"></feOffset>
            <feComposite in="shadowOffsetOuter1" in2="shadowInner" operator="out" result="shadowOffsetOuter1"></feComposite>
            <feGaussianBlur stdDeviation="10" in="shadowOffsetOuter1" result="shadowBlurOuter1"></feGaussianBlur>
            <feColorMatrix values="0 0 0 0 1   0 0 0 0 0.92623267   0 0 0 0 0  0 0 0 1 0" type="matrix" in="shadowBlurOuter1"></feColorMatrix>
        </filter>
        <path d="M76.4036689,99.6674306 C102.733372,102.808952 165.038783,95.7018707 148.115628,90.5088755 C131.192474,85.3158803 -2.44409543,64.7471489 47.4622769,65.2135797" id="path-6"></path>
        <filter x="-29.2%" y="-83.7%" width="155.0%" height="278.8%" filterUnits="objectBoundingBox" id="filter-7">
            <feMorphology radius="0.5" operator="dilate" in="SourceAlpha" result="shadowSpreadOuter1"></feMorphology>
            <feOffset dx="-2" dy="2" in="shadowSpreadOuter1" result="shadowOffsetOuter1"></feOffset>
            <feMorphology radius="1" operator="erode" in="SourceAlpha" result="shadowInner"></feMorphology>
            <feOffset dx="-2" dy="2" in="shadowInner" result="shadowInner"></feOffset>
            <feComposite in="shadowOffsetOuter1" in2="shadowInner" operator="out" result="shadowOffsetOuter1"></feComposite>
            <feGaussianBlur stdDeviation="10" in="shadowOffsetOuter1" result="shadowBlurOuter1"></feGaussianBlur>
            <feColorMatrix values="0 0 0 0 1   0 0 0 0 0.92623267   0 0 0 0 0  0 0 0 1 0" type="matrix" in="shadowBlurOuter1"></feColorMatrix>
        </filter>
        <path d="M87.284451,65.2832334 C121.096637,67.4438575 136.008306,66.9160517 132.019458,63.699816 C126.036186,58.8754624 44.1149804,50.000646 54.6472575,44.9254874 C65.1795347,39.8503288 110.303306,40.0585467 112.126432,39.5850627 C113.949558,39.1115786 115.158917,36.4741371 109.326724,36.4028771 C103.49453,36.3316172 46.4346548,30.6145486 68.1667246,28.4693106" id="path-8"></path>
        <filter x="-42.4%" y="-77.4%" width="179.8%" height="265.3%" filterUnits="objectBoundingBox" id="filter-9">
            <feMorphology radius="0.5" operator="dilate" in="SourceAlpha" result="shadowSpreadOuter1"></feMorphology>
            <feOffset dx="-2" dy="2" in="shadowSpreadOuter1" result="shadowOffsetOuter1"></feOffset>
            <feMorphology radius="1" operator="erode" in="SourceAlpha" result="shadowInner"></feMorphology>
            <feOffset dx="-2" dy="2" in="shadowInner" result="shadowInner"></feOffset>
            <feComposite in="shadowOffsetOuter1" in2="shadowInner" operator="out" result="shadowOffsetOuter1"></feComposite>
            <feGaussianBlur stdDeviation="10" in="shadowOffsetOuter1" result="shadowBlurOuter1"></feGaussianBlur>
            <feColorMatrix values="0 0 0 0 1   0 0 0 0 0.92623267   0 0 0 0 0  0 0 0 1 0" type="matrix" in="shadowBlurOuter1"></feColorMatrix>
        </filter>
        <path d="M99.5484351,18.6778911 C107.086061,18.5768365 109.214935,18.2772427 105.935056,17.7791097 C101.015236,17.0319101 85.2978809,13.4614183 85.3040595,5.20391548" id="path-10"></path>
        <filter x="-151.4%" y="-218.9%" width="384.8%" height="567.6%" filterUnits="objectBoundingBox" id="filter-11">
            <feMorphology radius="0.5" operator="dilate" in="SourceAlpha" result="shadowSpreadOuter1"></feMorphology>
            <feOffset dx="-2" dy="2" in="shadowSpreadOuter1" result="shadowOffsetOuter1"></feOffset>
            <feMorphology radius="1" operator="erode" in="SourceAlpha" result="shadowInner"></feMorphology>
            <feOffset dx="-2" dy="2" in="shadowInner" result="shadowInner"></feOffset>
            <feComposite in="shadowOffsetOuter1" in2="shadowInner" operator="out" result="shadowOffsetOuter1"></feComposite>
            <feGaussianBlur stdDeviation="10" in="shadowOffsetOuter1" result="shadowBlurOuter1"></feGaussianBlur>
            <feColorMatrix values="0 0 0 0 1   0 0 0 0 0.92623267   0 0 0 0 0  0 0 0 1 0" type="matrix" in="shadowBlurOuter1"></feColorMatrix>
        </filter>
    </defs>
    <g id="Page-1" stroke="none" stroke-width="1" fill="none" fill-rule="evenodd">
        <g id="Acesoftlogo" transform="translate(0.000000, 8.000000)">
            <ellipse id="Oval" fill-opacity="0.160000011" fill="#FFFFFF" cx="140" cy="82" rx="68" ry="67"></ellipse>
            <g id="Group-2" transform="translate(51.000000, 0.000000)">
                <g id="Group-Copy-4" transform="translate(66.000000, 0.000000)" fill="url(#linearGradient-1)">
                    <path d="M-10.5674288,63.0609804 C13.8367262,66.1904182 32.6748604,68.6736645 45.9469738,70.5107192 C57.9466806,73.4561815 83.273426,79.2687505 121.92721,87.9484264 L121.927214,87.9484104 C122.466089,88.0694144 122.80484,88.6043522 122.683836,89.1432274 C122.580381,89.603953 122.168751,89.9295254 121.696585,89.9240801 L-23.8177098,88.2459285 L-23.8177098,88.2459285 C-24.6460818,88.2363753 -25.3098656,87.5571026 -25.3003123,86.7287306 C-25.2971017,86.4503281 -25.2164692,86.1783131 -25.0674409,85.9431348 L-10.5674288,63.0609804 Z" id="Triangle-Copy-6" transform="translate(52.359043, 76.547474) rotate(-121.000000) translate(-52.359043, -76.547474) "></path>
                    <path d="M42.8763105,86.3050483 L81.0079698,127.979605 L81.0079698,127.979605 C81.0638929,128.040723 81.0596807,128.135605 80.9985618,128.191528 C80.9529112,128.233297 80.8862969,128.242749 80.8308287,128.215328 L16.7024784,96.5123561 L16.7024784,96.5123561 C16.3311618,96.3287892 16.1789605,95.8789672 16.3625274,95.5076505 C16.4506812,95.3293341 16.6060617,95.1933412 16.7944856,95.1295897 L42.8763105,86.3050483 Z" id="Triangle-Copy-7" transform="translate(48.916398, 107.437488) rotate(-341.000000) translate(-48.916398, -107.437488) "></path>
                    <path d="M69.3776434,32.9210729 L62.4204534,58.8856596 L62.4204534,58.8856596 C62.313247,59.2857591 61.9019943,59.523196 61.5018947,59.4159897 C61.5002685,59.4155539 61.4986437,59.4151127 61.4970205,59.414666 L-9.04365486,40.0032664 L-9.04365486,40.0032664 C-9.84239195,39.7834698 -10.3117159,38.957785 -10.0919192,38.1590479 C-9.92057619,37.5363904 -9.36993775,37.093294 -8.72503982,37.0591259 L69.3776434,32.9210729 Z" id="Triangle-Copy-8" transform="translate(25.706917, 46.268036) rotate(-645.000000) translate(-25.706917, -46.268036) "></path>
                </g>
                <g id="Group-Copy-5" transform="translate(63.500000, 76.000000) scale(-1, 1) translate(-63.500000, -76.000000) ">
                    <g id="Path-9" stroke-linecap="round" transform="translate(63.219850, 133.894864) scale(-1, 1) translate(-63.219850, -133.894864) ">
                        <use fill="black" fill-opacity="1" filter="url(#filter-3)" xlink:href="#path-2"></use>
                        <use stroke="#FFEC00" stroke-width="1" xlink:href="#path-2"></use>
                    </g>
                    <path d="M7.43257122,63.0609804 C31.8367262,66.1904182 50.6748604,68.6736645 63.9469738,70.5107192 C75.9466806,73.4561815 101.273426,79.2687505 139.92721,87.9484264 L139.927214,87.9484104 C140.466089,88.0694144 140.80484,88.6043522 140.683836,89.1432274 C140.580381,89.603953 140.168751,89.9295254 139.696585,89.9240801 L-5.81770977,88.2459285 L-5.81770977,88.2459285 C-6.64608181,88.2363753 -7.30986559,87.5571026 -7.30031235,86.7287306 C-7.29710165,86.4503281 -7.21646921,86.1783131 -7.0674409,85.9431348 L7.43257122,63.0609804 Z" id="Triangle-Copy-6" fill="url(#linearGradient-1)" transform="translate(70.359043, 76.547474) rotate(-121.000000) translate(-70.359043, -76.547474) "></path>
                    <path d="M60.8763105,86.3050483 L99.0079698,127.979605 L99.0079698,127.979605 C99.0638929,128.040723 99.0596807,128.135605 98.9985618,128.191528 C98.9529112,128.233297 98.8862969,128.242749 98.8308287,128.215328 L34.7024784,96.5123561 L34.7024784,96.5123561 C34.3311618,96.3287892 34.1789605,95.8789672 34.3625274,95.5076505 C34.4506812,95.3293341 34.6060617,95.1933412 34.7944856,95.1295897 L60.8763105,86.3050483 Z" id="Triangle-Copy-7" fill="url(#linearGradient-1)" transform="translate(66.916398, 107.437488) rotate(-341.000000) translate(-66.916398, -107.437488) "></path>
                    <path d="M87.3776434,32.9210729 L80.4204534,58.8856596 L80.4204534,58.8856596 C80.313247,59.2857591 79.9019943,59.523196 79.5018947,59.4159897 C79.5002685,59.4155539 79.4986437,59.4151127 79.4970205,59.414666 L8.95634514,40.0032664 L8.95634514,40.0032664 C8.15760805,39.7834698 7.68828411,38.957785 7.90808077,38.1590479 C8.07942381,37.5363904 8.63006225,37.093294 9.27496018,37.0591259 L87.3776434,32.9210729 Z" id="Triangle-Copy-8" fill="url(#linearGradient-1)" transform="translate(43.706917, 46.268036) rotate(-645.000000) translate(-43.706917, -46.268036) "></path>
                </g>
                <g id="Path-10" stroke-linecap="round">
                    <use fill="black" fill-opacity="1" filter="url(#filter-5)" xlink:href="#path-4"></use>
                    <use stroke="#FFEC00" stroke-width="1" xlink:href="#path-4"></use>
                </g>
                <g id="Path-11" stroke-linecap="round">
                    <use fill="black" fill-opacity="1" filter="url(#filter-7)" xlink:href="#path-6"></use>
                    <use stroke="#FFEC00" stroke-width="1" xlink:href="#path-6"></use>
                </g>
                <g id="Path-12" stroke-linecap="round">
                    <use fill="black" fill-opacity="1" filter="url(#filter-9)" xlink:href="#path-8"></use>
                    <use stroke="#FFEC00" stroke-width="1" xlink:href="#path-8"></use>
                </g>
                <g id="Path-13" stroke-linecap="round">
                    <use fill="black" fill-opacity="1" filter="url(#filter-11)" xlink:href="#path-10"></use>
                    <use stroke="#FFEC00" stroke-width="1" xlink:href="#path-10"></use>
                </g>
            </g>
            <rect id="Rectangle-2" fill="#FFFFFF" x="0" y="159" width="279" height="36" rx="2"></rect>
            <path d="M8.11996385,185.576265 L15.755236,168.487799 L23.4008963,185.576265 L19.7546643,185.576265 L18.6223586,183.031175 L12.8881134,183.031175 L11.7558077,185.576265 L8.11996385,185.576265 Z M14.2177935,180.060171 L17.2926786,180.060171 L15.7656241,176.51782 L14.2177935,180.060171 Z M37.2358838,183.218171 C35.8614759,184.580192 33.822786,185.690535 31.210771,185.690535 C28.8699835,185.683606 26.8720041,184.859485 25.2168328,183.218161 C23.5547328,181.556061 22.7236827,179.554612 22.7236827,177.213824 C22.7236827,174.879955 23.5547328,172.875047 25.2168328,171.1991 C26.8858617,169.530071 28.8838411,168.695562 31.2107812,168.695562 L31.2003931,168.737124 C33.7862349,168.737124 35.841775,169.88558 37.2255058,171.219886 L34.8258488,173.619543 C33.8147413,172.622283 32.6131781,172.123653 31.2211693,172.123653 C29.8083843,172.123653 28.6102905,172.622283 27.6268779,173.619543 C26.6296179,174.630651 26.1309879,175.832214 26.1309879,177.224223 C26.1309879,178.630079 26.6296179,179.831642 27.6268779,180.828902 C28.6172092,181.819233 29.8153029,182.314404 31.2211592,182.314404 C32.6339442,182.314404 33.8389668,181.815774 34.8362268,180.818514 L37.2358838,183.218171 Z M38.7505748,168.789055 L38.7505748,185.597042 L48.8478327,185.597042 L48.8478327,182.252065 L42.1163274,182.252065 L42.1163274,178.875924 L47.1649564,178.875924 L47.1649564,175.52056 L42.1163274,175.52056 L42.1163274,172.144419 L48.8478327,172.144419 L48.8478327,168.789055 L38.7505748,168.789055 Z M55.0443524,182.294957 C54.0996518,182.294957 53.0838372,181.533103 53.0838372,180.598548 L49.7418231,181.309617 C50.1227548,183.803436 52.4641916,185.703002 55.0545173,185.703002 C57.873392,185.703002 60.4078308,183.422505 60.4078308,180.598548 C60.4078308,178.267266 58.5438217,176.657208 56.4309338,176.047727 C55.2678391,175.702342 53.3581081,175.301101 53.3581081,173.792621 C53.3581081,172.863158 54.1301263,172.091139 55.064662,172.091139 C55.9839705,172.091139 56.7559888,172.863158 56.7559888,173.782466 L60.0980131,173.07648 C59.7526282,170.592825 57.6194307,168.683094 55.0443524,168.683094 C52.2203953,168.683094 49.9297528,170.958509 49.9297528,173.782466 C49.9297528,176.062954 51.7328128,177.739054 53.7745867,178.434875 C54.9326192,178.836127 56.984558,179.049439 56.984558,180.578238 C56.984558,181.507701 55.9585784,182.27972 55.0291151,182.27972 L55.0443524,182.294957 Z M69.7967209,168.695562 C72.1305898,168.695562 74.1320184,169.530071 75.8010472,171.1991 C77.4700761,172.868129 78.3045855,174.873037 78.3045855,177.213824 C78.3045855,179.561541 77.4700761,181.56299 75.8010472,183.218161 C74.1389472,184.866413 72.1374983,185.690535 69.7967107,185.690535 C67.4489944,185.683606 65.4475455,184.859485 63.7923743,183.218161 C62.1302742,181.556061 61.2992242,179.554612 61.2992242,177.213824 C61.2992242,174.879955 62.1302742,172.875047 63.7923743,171.1991 C65.4614031,169.530071 67.462852,168.695562 69.7967209,168.695562 Z M69.7967006,172.092479 C68.3769867,172.092479 67.1754337,172.591119 66.1920211,173.588379 C65.194761,174.599486 64.696131,175.801049 64.696131,177.193058 C64.696131,178.598915 65.194761,179.800478 66.1920211,180.797738 C67.1823523,181.788069 68.3839155,182.28324 69.7967006,182.28324 C71.1887094,182.28324 72.3868031,181.788069 73.390992,180.797738 C74.3951808,179.807407 74.8972702,178.605843 74.8972702,177.193058 C74.8972702,175.794121 74.3951808,174.592557 73.390992,173.588369 C72.3937319,172.591109 71.1956382,172.092479 69.7967006,172.092479 Z M79.7984901,168.789055 L79.7984901,185.597042 L83.1642427,185.597042 L83.1642427,178.875924 L88.2128716,178.875924 L88.2128716,175.52056 L83.1642427,175.52056 L83.1642427,172.144419 L89.895748,172.144419 L89.895748,168.789055 L79.7984901,168.789055 Z M90.7871413,168.830607 L90.7871413,172.165195 L94.9112271,172.165195 L94.9112271,185.576265 L98.2873678,185.576265 L98.2873678,172.165195 L102.401066,172.165195 L102.401066,168.830607 L90.7871413,168.830607 Z M109.585677,168.830607 L109.585677,172.165195 L113.709763,172.165195 L113.709763,185.576265 L117.085904,185.576265 L117.085904,172.165195 L121.199602,172.165195 L121.199602,168.830607 L109.585677,168.830607 Z M122.714282,168.789055 L122.714282,185.597042 L132.81154,185.597042 L132.81154,182.252065 L126.080035,182.252065 L126.080035,178.875924 L131.128664,178.875924 L131.128664,175.52056 L126.080035,175.52056 L126.080035,172.144419 L132.81154,172.144419 L132.81154,168.789055 L122.714282,168.789055 Z M148.215135,183.218171 L145.815478,180.818514 C144.818218,181.815774 143.613195,182.314404 142.20041,182.314404 C140.794554,182.314404 139.59646,181.819233 138.606129,180.828902 C137.608869,179.831642 137.110239,178.630079 137.110239,177.224223 C137.110239,175.832214 137.608869,174.630651 138.606129,173.619543 C139.589541,172.622283 140.787635,172.123653 142.20042,172.123653 C143.592429,172.123653 144.793992,172.622283 145.8051,173.619543 L148.204757,171.219886 C146.821026,169.88558 144.765486,168.737124 142.179644,168.737124 L142.190032,168.695562 C139.863092,168.695562 137.865113,169.530071 136.196084,171.1991 C134.533984,172.875047 133.702934,174.879955 133.702934,177.213824 C133.702934,179.554612 134.533984,181.556061 136.196084,183.218161 C137.851255,184.859485 139.849234,185.683606 142.190022,185.690535 C144.802037,185.690535 146.840727,184.580192 148.215135,183.218171 Z M149.729826,168.830607 L149.729826,185.576265 L153.08519,185.576265 L153.08519,178.865536 L158.68439,178.865536 L158.68439,185.576265 L162.039754,185.576265 L162.039754,168.830607 L158.68439,168.830607 L158.68439,175.530948 L153.08519,175.530948 L153.08519,168.830607 L149.729826,168.830607 Z M164.177723,168.477411 L164.177723,185.597042 L167.543475,185.597042 L167.543475,176.299669 L177.640733,185.919073 L177.640733,168.789055 L174.264593,168.789055 L174.264593,178.086427 L164.177723,168.477411 Z M187.652911,168.695562 C189.98678,168.695562 191.988208,169.530071 193.657237,171.1991 C195.326266,172.868129 196.160775,174.873037 196.160775,177.213824 C196.160775,179.561541 195.326266,181.56299 193.657237,183.218161 C191.995137,184.866413 189.993688,185.690535 187.652901,185.690535 C185.305184,185.683606 183.303736,184.859485 181.648564,183.218161 C179.986464,181.556061 179.155414,179.554612 179.155414,177.213824 C179.155414,174.879955 179.986464,172.875047 181.648564,171.1991 C183.317593,169.530071 185.319042,168.695562 187.652911,168.695562 Z M187.652891,172.092479 C186.233177,172.092479 185.031624,172.591119 184.048211,173.588379 C183.050951,174.599486 182.552321,175.801049 182.552321,177.193058 C182.552321,178.598915 183.050951,179.800478 184.048211,180.797738 C185.038542,181.788069 186.240106,182.28324 187.652891,182.28324 C189.044899,182.28324 190.242993,181.788069 191.247182,180.797738 C192.251371,179.807407 192.75346,178.605843 192.75346,177.193058 C192.75346,175.794121 192.251371,174.592557 191.247182,173.588369 C190.249922,172.591109 189.051828,172.092479 187.652891,172.092479 Z M197.65468,168.830607 L201.020433,168.830607 L201.020433,182.231289 L207.751938,182.231289 L207.751938,185.576265 L197.65468,185.576265 L197.65468,168.830607 Z M216.102015,168.695562 C218.435884,168.695562 220.437313,169.530071 222.106342,171.1991 C223.775371,172.868129 224.60988,174.873037 224.60988,177.213824 C224.60988,179.561541 223.775371,181.56299 222.106342,183.218161 C220.444242,184.866413 218.442793,185.690535 216.102005,185.690535 C213.754289,185.683606 211.75284,184.859485 210.097669,183.218161 C208.435569,181.556061 207.604519,179.554612 207.604519,177.213824 C207.604519,174.879955 208.435569,172.875047 210.097669,171.1991 C211.766698,169.530071 213.768147,168.695562 216.102015,168.695562 Z M216.101995,172.092479 C214.682281,172.092479 213.480728,172.591119 212.497316,173.588379 C211.500056,174.599486 211.001426,175.801049 211.001426,177.193058 C211.001426,178.598915 211.500056,179.800478 212.497316,180.797738 C213.487647,181.788069 214.68921,182.28324 216.101995,182.28324 C217.494004,182.28324 218.692098,181.788069 219.696287,180.797738 C220.700475,179.807407 221.202565,178.605843 221.202565,177.193058 C221.202565,175.794121 220.700475,174.592557 219.696287,173.588369 C218.699027,172.591109 217.500933,172.092479 216.101995,172.092479 Z M233.967596,168.695562 C231.619879,168.695562 229.6219,169.530071 227.973647,171.1991 C226.311547,172.875047 225.480497,174.879955 225.480497,177.213824 C225.480497,179.56847 226.311547,181.569918 227.973647,183.218171 C229.614971,184.873342 231.61295,185.700933 233.967596,185.700933 C236.301464,185.700933 238.302913,184.873342 239.971942,183.218171 C241.625643,181.576533 242.652667,179.304678 242.413152,176.175022 L233.811784,176.175022 L233.811784,179.384953 L238.590322,179.384953 C237.857238,180.961797 236.175153,182.314404 233.99878,182.314404 C232.585995,182.314404 231.387901,181.815774 230.404489,180.818514 C229.407229,179.821254 228.908599,178.619691 228.908599,177.213835 C228.908599,175.807978 229.407229,174.606415 230.404489,173.609155 C231.39482,172.604966 232.592914,172.102877 233.99877,172.102877 C235.376931,172.102877 236.575025,172.604966 237.593062,173.609155 L239.992718,171.209498 C238.624428,169.865849 236.563237,168.726736 233.977984,168.726736 L233.967596,168.695562 Z M243.958987,185.576265 L247.324739,185.576265 L247.324739,168.830607 L243.958987,168.830607 L243.958987,185.576265 Z M249.462708,168.789055 L249.462708,185.597042 L259.559966,185.597042 L259.559966,182.252065 L252.82846,182.252065 L252.82846,178.875924 L257.877089,178.875924 L257.877089,175.52056 L252.82846,175.52056 L252.82846,172.144419 L259.559966,172.144419 L259.559966,168.789055 L249.462708,168.789055 Z M265.756485,182.294957 C264.811785,182.294957 263.79597,181.533103 263.79597,180.598548 L260.453956,181.309617 C260.834888,183.803436 263.176325,185.703002 265.76665,185.703002 C268.585525,185.703002 271.119964,183.422505 271.119964,180.598548 C271.119964,178.267266 269.255955,176.657208 267.143067,176.047727 C265.979972,175.702342 264.070241,175.301101 264.070241,173.792621 C264.070241,172.863158 264.842259,172.091139 265.776795,172.091139 C266.696104,172.091139 267.468122,172.863158 267.468122,173.782466 L270.810146,173.07648 C270.464761,170.592825 268.331564,168.683094 265.756485,168.683094 C262.932528,168.683094 260.641886,170.958509 260.641886,173.782466 C260.641886,176.062954 262.444946,177.739054 264.48672,178.434875 C265.644752,178.836127 267.696691,179.049439 267.696691,180.578238 C267.696691,181.507701 266.670711,182.27972 265.741248,182.27972 L265.756485,182.294957 Z" id="Acesoft-Technologies" fill="#E7222B"></path>
        </g>
    </g>
</svg>