<?xml version="1.0" encoding="UTF-8"?>
<svg width="1272px" height="276px" viewBox="0 0 1272 276" version="1.1" xmlns="http://www.w3.org/2000/svg" xmlns:xlink="http://www.w3.org/1999/xlink">
    <!-- Generator: Sketch 47.1 (45422) - http://www.bohemiancoding.com/sketch -->
    <title>Barfriends</title>
    <desc>Created with Sketch.</desc>
    <defs></defs>
    <g id="Page-1" stroke="none" stroke-width="1" fill="none" fill-rule="evenodd">
        <path d="M0.583952784,275.6355 L0.583952784,0.365787443 L94.8290728,0.365787443 C125.929488,0.365787443 149.600705,6.6046677 165.843432,19.0826154 C182.086159,31.5605631 190.207401,50.1511659 190.207401,74.8549815 C190.207401,87.4589691 186.807811,98.8023877 180.00853,108.885578 C173.209249,118.968768 163.262302,126.783123 150.16739,132.328877 C165.025078,136.362153 176.514432,143.955942 184.635795,155.110471 C192.757159,166.265 196.81778,179.656536 196.81778,195.285481 C196.81778,221.123655 188.53915,240.974638 171.981641,254.839024 C155.424132,268.70341 131.721438,275.6355 100.872848,275.6355 L0.583952784,275.6355 Z M48.5839528,150.365787 L48.5839528,236.387572 L101.655854,236.387572 C116.639455,236.387572 128.349152,232.669452 136.785298,225.233099 C145.221443,217.796747 149.439452,207.461632 149.439452,194.227445 C149.439452,165.616393 134.833808,150.995987 105.622082,150.365787 L48.5839528,150.365787 Z M48.5839528,116.690865 L95.4232108,116.690865 C110.280899,116.690865 121.896164,113.319348 130.269352,106.576215 C138.642541,99.8330817 142.829073,90.2857044 142.829073,77.9337966 C142.829073,64.32149 138.957318,54.4905271 131.213692,48.4406131 C123.470067,42.3906991 111.414115,39.3657874 95.0454749,39.3657874 L48.5839528,39.3657874 L48.5839528,116.690865 Z M300.834996,266.759654 C299.272057,263.728399 297.904506,258.790461 296.732301,251.945692 C285.400994,263.777364 271.530118,269.693112 255.119258,269.693112 C239.196817,269.693112 226.205081,265.146298 216.143661,256.052533 C206.082241,246.958768 201.051607,235.713958 201.051607,222.317767 C201.051607,205.401408 207.32769,192.420987 219.880044,183.376113 C232.432398,174.331239 250.381506,169.80887 273.727908,169.80887 L295.560103,169.80887 L295.560103,159.395094 C295.560103,151.181371 293.264571,144.605602 288.673437,139.66759 C284.082304,134.729578 277.098025,132.260609 267.720391,132.260609 C259.612645,132.260609 252.970254,134.289563 247.793018,138.347534 C242.615783,142.405504 240.027204,147.56345 240.027204,153.821524 L204.421677,153.821524 C204.421677,145.118889 207.303303,136.978625 213.06664,129.400487 C218.829978,121.82235 226.668976,115.882157 236.583871,111.57973 C246.498765,107.277304 257.561277,105.126123 269.771738,105.126123 C288.331639,105.126123 303.130496,109.795163 314.168753,119.133384 C325.20701,128.471606 330.872579,141.598698 331.16563,158.515057 L331.16563,230.09143 C331.16563,244.367663 333.168115,255.759144 337.173146,264.266215 L337.173146,266.759654 L300.834996,266.759654 Z M259.884332,243.372566 C267.289397,243.372566 274.257253,241.570932 280.788109,237.967609 C287.318965,234.364286 292.22989,229.525611 295.52103,223.451439 L295.52103,191.948261 L275.311474,191.948261 C261.426977,191.948261 250.988049,194.367598 243.994376,199.206346 C237.000703,204.045093 233.50392,210.891304 233.50392,219.745182 C233.50392,226.951828 235.895103,232.69132 240.67754,236.963831 C245.459978,241.236342 251.862178,243.372566 259.884332,243.372566 Z M431.171736,140.620964 C426.482919,139.838704 421.647649,139.447581 416.665781,139.447581 C400.352605,139.447581 389.363355,145.705562 383.697701,158.221711 L383.697701,266.759654 L348.092175,266.759654 L348.092175,108.059581 L382.085928,108.059581 L382.965077,125.807001 C391.561242,112.01968 403.478473,105.126123 418.717128,105.126123 C423.79668,105.126123 427.997016,105.81059 431.318261,107.179543 L431.171736,140.620964 Z M470.272123,269.413456 L470.272123,137.323262 L442.491454,137.323262 L442.491454,106.986447 L470.272123,106.986447 L470.272123,70.3702372 C470.272123,50.1455923 475.884324,34.5279063 487.108892,23.5167108 C498.333461,12.5055152 514.047622,7 534.251846,7 C541.435571,7 549.068163,8.01121708 557.149853,10.0336816 L556.139646,42.0558759 C551.649819,41.1570028 546.430473,40.707573 540.481451,40.707573 C520.950701,40.707573 511.185473,50.763565 511.185473,70.8758508 L511.185473,106.986447 L548.226365,106.986447 L548.226365,137.323262 L511.185473,137.323262 L511.185473,269.413456 L470.272123,269.413456 Z M642.079562,140.494841 C637.390745,139.712581 632.555475,139.321458 627.573607,139.321458 C611.260431,139.321458 600.27118,145.579439 594.605527,158.095588 L594.605527,266.633531 L559,266.633531 L559,107.933458 L592.993754,107.933458 L593.872903,125.680878 C602.469067,111.893557 614.386298,105 629.624954,105 C634.704506,105 638.904841,105.684467 642.226087,107.053421 L642.079562,140.494841 Z M686.605527,266.700073 L651,266.700073 L651,108 L686.605527,108 L686.605527,266.700073 Z M648,67.0674765 C648,61.591661 649.733859,57.0448467 653.20163,53.4268971 C656.669401,49.8089476 661.626774,48 668.073898,48 C674.521021,48 679.502815,49.8089476 683.019427,53.4268971 C686.53604,57.0448467 688.29432,61.591661 688.29432,67.0674765 C688.29432,72.4455095 686.53604,76.9189881 683.019427,80.4880464 C679.502815,84.0571047 674.521021,85.8416071 668.073898,85.8416071 C661.626774,85.8416071 656.669401,84.0571047 653.20163,80.4880464 C649.733859,76.9189881 648,72.4455095 648,67.0674765 Z M774.899847,269.566989 C752.334915,269.566989 734.043918,262.453425 720.026309,248.226083 C706.0087,233.998741 699,215.053681 699,191.390336 L699,186.990149 C699,171.149397 702.052569,156.995604 708.1578,144.528345 C714.263031,132.061087 722.834646,122.356327 733.872903,115.413776 C744.911159,108.471224 757.21912,105 770.797152,105 C792.385247,105 809.064487,111.893557 820.835372,125.680878 C832.606256,139.468199 838.49161,158.9755 838.49161,184.203364 L838.49161,198.577308 L734.898576,198.577308 C735.973097,211.680152 740.344376,222.044933 748.012546,229.671961 C755.680715,237.29899 765.326835,241.112447 776.951194,241.112447 C793.26437,241.112447 806.549152,234.512233 816.80594,221.311606 L836.000689,239.645718 C829.651249,249.130613 821.177316,256.48863 810.578636,261.719989 C799.979955,266.951349 788.087145,269.566989 774.899847,269.566989 Z M770.165952,134 C760.397583,134 752.509744,137.422333 746.502197,144.267103 C740.49465,151.111872 736.660623,160.645515 735,172.868317 L802.840983,172.868317 L802.840983,170.228205 C802.059513,158.29875 798.884841,149.278457 793.316871,143.167056 C787.7489,137.055655 780.032005,134 770.165952,134 Z M882.554179,107.933458 L883.579853,126.26757 C895.301896,112.089119 910.686846,105 929.735165,105 C962.752252,105 979.553594,123.920614 980.139696,161.762411 L980.139696,266.633531 L944.53417,266.633531 L944.53417,163.815831 C944.53417,153.744242 942.36074,146.288444 938.013816,141.448215 C933.666892,136.607985 926.56051,134.187906 916.694458,134.187906 C902.334956,134.187906 891.638752,140.69034 884.605527,153.695401 L884.605527,266.633531 L849,266.633531 L849,107.933458 L882.554179,107.933458 Z M991,185.766148 C991,161.320543 996.665569,141.691017 1007.99688,126.87698 C1019.32818,112.062944 1034.51777,104.656037 1053.56609,104.656037 C1070.36768,104.656037 1083.94551,110.522894 1094.29998,122.256784 L1094.29998,41 L1129.90551,41 L1129.90551,266.289568 L1097.67005,266.289568 L1095.91176,249.862204 C1085.26424,262.769483 1071.05147,269.223026 1053.27304,269.223026 C1034.71314,269.223026 1019.6945,261.742783 1008.21666,246.782073 C996.738831,231.821363 991,211.482924 991,185.766148 Z M1027,189.002336 C1027,205.136435 1030.10141,217.725733 1036.30432,226.770607 C1042.50724,235.81548 1051.32306,240.337849 1062.75205,240.337849 C1077.30692,240.337849 1087.95428,233.835416 1094.69446,220.830354 L1094.69446,153.067476 C1088.14965,140.355762 1077.59997,134 1063.0451,134 C1051.51843,134 1042.62934,138.57126 1036.37759,147.713916 C1030.12583,156.856572 1027,170.619241 1027,189.002336 Z M1236.12027,223.5117 C1236.12027,217.155843 1233.50727,212.315685 1228.28119,208.991083 C1223.05511,205.666481 1214.38582,202.733052 1202.27304,200.190709 C1190.16026,197.648366 1180.05015,194.421595 1171.94241,190.510298 C1154.16398,181.905445 1145.27489,169.438374 1145.27489,153.10871 C1145.27489,139.419171 1151.03814,127.9788 1162.56482,118.787252 C1174.09149,109.595705 1188.74383,105 1206.52226,105 C1225.4729,105 1240.78458,109.693486 1252.45778,119.080598 C1264.13099,128.46771 1269.9675,140.641439 1269.9675,155.602149 L1234.36197,155.602149 C1234.36197,148.75738 1231.82223,143.061639 1226.74268,138.514757 C1221.66313,133.967874 1214.92306,131.694467 1206.52226,131.694467 C1198.70756,131.694467 1192.3338,133.503415 1187.40077,137.121364 C1182.46775,140.739314 1180.00127,145.579471 1180.00127,151.641981 C1180.00127,157.117796 1182.2968,161.371268 1186.88794,164.402523 C1191.47907,167.433778 1200.75888,170.489433 1214.72765,173.569579 C1228.69642,176.649725 1239.66125,180.316511 1247.62247,184.570046 C1255.58369,188.823581 1261.49346,193.932636 1265.35197,199.897364 C1269.21047,205.862091 1271.1397,213.097882 1271.1397,221.604952 C1271.1397,235.881185 1265.22992,247.443783 1253.4102,256.293092 C1241.59047,265.142401 1226.10784,269.566989 1206.96183,269.566989 C1193.9699,269.566989 1182.39456,267.220246 1172.23546,262.52669 C1162.07635,257.833134 1154.16409,251.379591 1148.49844,243.165868 C1142.83278,234.952145 1140,226.102968 1140,216.618074 L1174.57985,216.618074 C1175.06827,225.027362 1178.24294,231.50535 1184.10396,236.052232 C1189.96499,240.599115 1197.73072,242.872522 1207.40141,242.872522 C1216.77904,242.872522 1223.90984,241.08802 1228.79403,237.518961 C1233.67821,233.949903 1236.12027,229.280863 1236.12027,223.5117 Z" id="Barfriends" fill="#FF8700"></path>
    </g>
</svg>