<?xml version="1.0" encoding="UTF-8"?>
<svg width="1335px" height="231px" viewBox="0 0 1335 231" version="1.1" xmlns="http://www.w3.org/2000/svg" xmlns:xlink="http://www.w3.org/1999/xlink">
    <!-- Generator: Sketch 47.1 (45422) - http://www.bohemiancoding.com/sketch -->
    <title>Barfriends Copy 2</title>
    <desc>Created with Sketch.</desc>
    <defs></defs>
    <g id="Page-1" stroke="none" stroke-width="1" fill="none" fill-rule="evenodd">
        <path d="M0,228.076172 L0,14.7949219 L74.7070312,14.7949219 C100.586067,14.7949219 120.214777,19.750927 133.59375,29.6630859 C146.972723,39.5752449 153.662109,54.1014668 153.662109,73.2421875 C153.662109,83.6914585 150.976589,92.895468 145.605469,100.854492 C140.234348,108.813516 132.76372,114.648419 123.193359,118.359375 C134.130914,121.093764 142.748992,126.611287 149.047852,134.912109 C155.346711,143.212932 158.496094,153.369081 158.496094,165.380859 C158.496094,185.888774 151.95319,201.415963 138.867188,211.962891 C125.781185,222.509818 107.129027,227.880858 82.9101562,228.076172 L0,228.076172 Z M43.9453125,135.205078 L43.9453125,192.773438 L81.5917969,192.773438 C91.9434111,192.773438 100.024385,190.307642 105.834961,185.375977 C111.645537,180.444311 114.550781,173.632856 114.550781,164.941406 C114.550781,145.410059 104.44346,135.498048 84.2285156,135.205078 L43.9453125,135.205078 Z M43.9453125,104.150391 L76.4648438,104.150391 C98.6329233,103.759764 109.716797,94.9219614 109.716797,77.6367188 C109.716797,67.9687017 106.909208,61.0107634 101.293945,56.7626953 C95.6786829,52.5146272 86.8164668,50.390625 74.7070312,50.390625 L43.9453125,50.390625 L43.9453125,104.150391 Z M274.97576,228.076172 C273.022625,224.267559 271.606624,219.531278 270.727713,213.867188 C260.473756,225.293026 247.143811,231.005859 230.737479,231.005859 C215.210057,231.005859 202.343975,226.513717 192.138846,217.529297 C181.933717,208.544877 176.831229,197.216865 176.831229,183.544922 C176.831229,166.747963 183.056752,153.857467 195.507987,144.873047 C207.959221,135.888627 225.952205,131.347657 249.487479,131.25 L268.969901,131.25 L268.969901,122.167969 C268.969901,114.843713 267.090037,108.984397 263.330252,104.589844 C259.570468,100.195291 253.63791,97.9980469 245.532401,97.9980469 C238.403459,97.9980469 232.812694,99.7070142 228.75994,103.125 C224.707185,106.542986 222.680838,111.230439 222.680838,117.1875 L180.346854,117.1875 C180.346854,108.007767 183.178857,99.5117578 188.842947,91.6992188 C194.507038,83.8866797 202.514771,77.7588113 212.866385,73.3154297 C223.217999,68.8720481 234.838977,66.6503906 247.729666,66.6503906 C267.261014,66.6503906 282.763789,71.5575681 294.238455,81.3720703 C305.713122,91.1865725 311.450369,104.98038 311.450369,122.753906 L311.450369,191.455078 C311.548026,206.494216 313.647614,217.871055 317.749197,225.585938 L317.749197,228.076172 L274.97576,228.076172 Z M239.965994,198.632812 C246.216026,198.632812 251.977687,197.241225 257.251151,194.458008 C262.524614,191.674791 266.430825,187.939477 268.969901,183.251953 L268.969901,156.005859 L253.149588,156.005859 C231.958076,156.005859 220.678892,163.330005 219.311697,177.978516 L219.165213,180.46875 C219.165213,185.742214 221.020663,190.087874 224.731619,193.505859 C228.442575,196.923845 233.52065,198.632812 239.965994,198.632812 Z M427.490582,109.277344 C421.728835,108.49609 416.650761,108.105469 412.256207,108.105469 C396.240502,108.105469 385.74256,113.525336 380.762067,124.365234 L380.762067,228.076172 L338.428082,228.076172 L338.428082,69.5800781 L378.418317,69.5800781 L379.590192,88.4765625 C388.086328,73.9257085 399.853789,66.6503906 414.892926,66.6503906 C419.58045,66.6503906 423.974937,67.2851499 428.07652,68.5546875 L427.490582,109.277344 Z M462.583984,228.076172 L462.583984,100.634766 L439,100.634766 L439,69.5800781 L462.583984,69.5800781 L462.583984,56.1035156 C462.583984,38.3299893 467.686472,24.5361819 477.891602,14.7216797 C488.096731,4.90717749 502.378814,0 520.738281,0 C526.597686,0 533.775348,0.976552734 542.271484,2.9296875 L541.832031,35.7421875 C538.316389,34.8632769 534.019557,34.4238281 528.941406,34.4238281 C513.023358,34.4238281 505.064453,41.8944565 505.064453,56.8359375 L505.064453,69.5800781 L536.558594,69.5800781 L536.558594,100.634766 L505.064453,100.634766 L505.064453,228.076172 L462.583984,228.076172 Z M636.279993,109.277344 C630.518245,108.49609 625.440171,108.105469 621.045618,108.105469 C605.029913,108.105469 594.531971,113.525336 589.551477,124.365234 L589.551477,228.076172 L547.217493,228.076172 L547.217493,69.5800781 L587.207727,69.5800781 L588.379602,88.4765625 C596.875739,73.9257085 608.643199,66.6503906 623.682337,66.6503906 C628.36986,66.6503906 632.764348,67.2851499 636.865931,68.5546875 L636.279993,109.277344 Z M695.777237,228.076172 L653.296769,228.076172 L653.296769,69.5800781 L695.777237,69.5800781 L695.777237,228.076172 Z M650.806534,28.5644531 C650.806534,22.2167651 652.930536,16.992208 657.178605,12.890625 C661.426673,8.78904199 667.212748,6.73828125 674.537003,6.73828125 C681.763602,6.73828125 687.525263,8.78904199 691.822159,12.890625 C696.119056,16.992208 698.267472,22.2167651 698.267472,28.5644531 C698.267472,35.0097979 696.094642,40.2831826 691.748917,44.3847656 C687.403192,48.4863486 681.665945,50.5371094 674.537003,50.5371094 C667.408061,50.5371094 661.670814,48.4863486 657.325089,44.3847656 C652.979364,40.2831826 650.806534,35.0097979 650.806534,28.5644531 Z M798.047919,231.005859 C774.805616,231.005859 755.884906,223.877024 741.285224,209.619141 C726.685542,195.361257 719.38581,176.367306 719.38581,152.636719 L719.38581,148.535156 C719.38581,132.617108 722.461951,118.383852 728.614326,105.834961 C734.7667,93.2860701 743.482433,83.618198 754.761786,76.8310547 C766.04114,70.0439114 778.907222,66.6503906 793.360419,66.6503906 C815.040215,66.6503906 832.105474,73.4862598 844.556708,87.1582031 C857.007942,100.830146 863.233466,120.214718 863.233466,145.3125 L863.233466,162.597656 L762.305732,162.597656 C763.672926,172.949271 767.798861,181.249969 774.683661,187.5 C781.568462,193.750031 790.284195,196.875 800.831122,196.875 C817.139798,196.875 829.883811,190.966856 839.063544,179.150391 L859.864326,202.441406 C853.516638,211.425826 844.922973,218.432592 834.083076,223.461914 C823.243178,228.491236 811.231579,231.005859 798.047919,231.005859 Z M793.213935,100.927734 C784.815455,100.927734 778.004,103.759737 772.779365,109.423828 C767.554729,115.087919 764.210036,123.193307 762.745185,133.740234 L821.631904,133.740234 L821.631904,130.371094 C821.43659,120.996047 818.897553,113.745143 814.014716,108.618164 C809.131879,103.491185 802.198355,100.927734 793.213935,100.927734 Z M920.679929,69.5800781 L921.998289,87.890625 C933.32647,73.7303979 948.511865,66.6503906 967.554929,66.6503906 C984.351888,66.6503906 996.851763,71.5819819 1005.05493,81.4453125 C1013.2581,91.3086431 1017.45727,106.054589 1017.65259,125.683594 L1017.65259,228.076172 L975.318601,228.076172 L975.318601,126.708984 C975.318601,117.724564 973.365496,111.206075 969.459226,107.15332 C965.552957,103.100566 959.058881,101.074219 949.976804,101.074219 C938.062682,101.074219 929.127225,106.152293 923.170164,116.308594 L923.170164,228.076172 L880.836179,228.076172 L880.836179,69.5800781 L920.679929,69.5800781 Z M1037.59905,147.65625 C1037.59905,122.949095 1043.14099,103.271558 1054.22503,88.6230469 C1065.30906,73.9745361 1080.47005,66.6503906 1099.70842,66.6503906 C1115.13819,66.6503906 1127.8822,72.4120518 1137.94085,83.9355469 L1137.94085,3.07617188 L1180.42131,3.07617188 L1180.42131,228.076172 L1142.18889,228.076172 L1140.13811,211.230469 C1129.59118,224.414128 1116.0171,231.005859 1099.41545,231.005859 C1080.76302,231.005859 1065.79735,223.6573 1054.51799,208.959961 C1043.23864,194.262622 1037.59905,173.828256 1037.59905,147.65625 Z M1079.93303,150.732422 C1079.93303,165.576246 1082.5209,176.953085 1087.6967,184.863281 C1092.87251,192.773477 1100.39197,196.728516 1110.2553,196.728516 C1123.3413,196.728516 1132.56972,191.210993 1137.94085,180.175781 L1137.94085,117.626953 C1132.66738,106.591742 1123.53661,101.074219 1110.54827,101.074219 C1090.13801,101.074219 1079.93303,117.626788 1079.93303,150.732422 Z M1293.53184,184.277344 C1293.53184,179.101537 1290.96839,175.024429 1285.84141,172.045898 C1280.71443,169.067368 1272.48697,166.406262 1261.15879,164.0625 C1223.46329,156.152304 1204.61582,140.136839 1204.61582,116.015625 C1204.61582,101.953055 1210.45073,90.2100081 1222.12071,80.7861328 C1233.79069,71.3622576 1249.04932,66.6503906 1267.89707,66.6503906 C1288.01436,66.6503906 1304.10307,71.3866714 1316.16368,80.859375 C1328.22428,90.3320786 1334.2545,102.636643 1334.2545,117.773438 L1291.92051,117.773438 C1291.92051,111.71872 1289.96741,106.713887 1286.06114,102.758789 C1282.15487,98.8036912 1276.05141,96.8261719 1267.75059,96.8261719 C1260.62165,96.8261719 1255.10413,98.4374839 1251.19786,101.660156 C1247.29159,104.882829 1245.33848,108.98435 1245.33848,113.964844 C1245.33848,118.652367 1247.56014,122.436509 1252.00352,125.317383 C1256.4469,128.198257 1263.94194,130.688466 1274.48887,132.788086 C1285.0358,134.887706 1293.92243,137.255846 1301.14903,139.892578 C1323.51242,148.095744 1334.69395,162.304586 1334.69395,182.519531 C1334.69395,196.972729 1328.49284,208.666948 1316.09043,217.602539 C1303.68803,226.538131 1287.67256,231.005859 1268.04356,231.005859 C1254.76224,231.005859 1242.97037,228.637719 1232.66758,223.901367 C1222.3648,219.165015 1214.28382,212.67094 1208.42442,204.418945 C1202.56501,196.166951 1199.63536,187.255907 1199.63536,177.685547 L1239.77207,177.685547 C1240.1627,185.205116 1242.94588,190.966777 1248.12168,194.970703 C1253.29749,198.974629 1260.23102,200.976562 1268.92246,200.976562 C1277.02797,200.976562 1283.15584,199.438492 1287.30625,196.362305 C1291.45667,193.286117 1293.53184,189.257837 1293.53184,184.277344 Z" id="Barfriends-Copy-2" fill="#FFFFFF"></path>
    </g>
</svg>