<?xml version="1.0" encoding="UTF-8"?>
<svg width="335px" height="335px" viewBox="0 0 335 335" version="1.1" xmlns="http://www.w3.org/2000/svg" xmlns:xlink="http://www.w3.org/1999/xlink">
    <!-- Generator: Sketch 47.1 (45422) - http://www.bohemiancoding.com/sketch -->
    <title>coasterOrange</title>
    <desc>Created with Sketch.</desc>
    <defs>
        <filter x="-2.5%" y="-1.8%" width="105.1%" height="105.1%" filterUnits="objectBoundingBox" id="filter-1">
            <feOffset dx="0" dy="2" in="SourceAlpha" result="shadowOffsetOuter1"></feOffset>
            <feGaussianBlur stdDeviation="2" in="shadowOffsetOuter1" result="shadowBlurOuter1"></feGaussianBlur>
            <feColorMatrix values="0 0 0 0 0   0 0 0 0 0   0 0 0 0 0  0 0 0 0.0616791214 0" type="matrix" in="shadowBlurOuter1" result="shadowMatrixOuter1"></feColorMatrix>
            <feMerge>
                <feMergeNode in="shadowMatrixOuter1"></feMergeNode>
                <feMergeNode in="SourceGraphic"></feMergeNode>
            </feMerge>
        </filter>
    </defs>
    <g id="Page-1" stroke="none" stroke-width="1" fill="none" fill-rule="evenodd">
        <g id="coasterOrange">
            <rect id="Rectangle-10" fill="#FF8700" x="0" y="0" width="335" height="335" rx="59"></rect>
            <g id="mainLogoDark" transform="translate(30.000000, 80.000000)" fill="#1F1F1F">
                <g id="mainLogo" filter="url(#filter-1)">
                    <ellipse id="Oval-3" cx="177.955836" cy="45.1100285" rx="17.9558364" ry="30.1100285"></ellipse>
                    <ellipse id="Oval-3-Copy-3" cx="102.955836" cy="45.1100285" rx="17.9558364" ry="30.1100285"></ellipse>
                    <path d="M139.503781,122.686486 C113.699104,121.897732 68.1436596,109.988931 42.4073543,88.4568804 C38.2919281,85.5138318 31.0160598,80.2990482 26.4201407,94.1132567 C21.8242217,107.927465 19.9180166,114.216196 20.0026945,117.549351 C20.0873725,120.882506 32.086427,103.90668 32.086427,103.90668 C32.086427,103.90668 35.2456754,100.201367 37.6647053,103.305312 C40.0837353,106.409258 38.888534,104.728741 38.888534,104.728741 C38.888534,104.728741 82.8984364,168.05781 139.503781,166.45143 C196.109132,168.057801 240.119028,104.728741 240.119028,104.728741 L241.342857,103.305312 C243.761887,100.201367 246.921135,103.90668 246.921135,103.90668 C246.921135,103.90668 258.92019,120.882506 259.004867,117.549351 C259.089545,114.216196 257.18334,107.927465 252.587421,94.1132567 C247.991502,80.2990482 240.715634,85.5138318 236.600208,88.4568804 C210.863902,109.988931 165.308458,121.897732 139.503781,122.686486 Z" id="Combined-Shape"></path>
                </g>
            </g>
        </g>
    </g>
</svg>