<?xml version="1.0" encoding="UTF-8"?>
<svg width="526px" height="620px" viewBox="0 0 526 620" version="1.1" xmlns="http://www.w3.org/2000/svg" xmlns:xlink="http://www.w3.org/1999/xlink">
    <!-- Generator: Sketch 47 (45396) - http://www.bohemiancoding.com/sketch -->
    <title>drink-icon white</title>
    <desc>Created with Sketch.</desc>
    <defs></defs>
    <g id="Page-1" stroke="none" stroke-width="1" fill="none" fill-rule="evenodd">
        <g id="ask-icons" transform="translate(-810.000000, -212.000000)">
            <g id="drink-icon-white" transform="translate(810.000000, 212.000000)">
                <ellipse id="Oval-6-Copy-3" fill-opacity="0.430000007" fill="#000000" cx="263.5" cy="588.5" rx="206.5" ry="31.5"></ellipse>
                <ellipse id="Oval-2-Copy" fill="#FFFFFF" cx="263" cy="260" rx="263" ry="260"></ellipse>
                <g transform="translate(132.000000, 58.000000)" id="large-bottle" fill="#FF8700">
                    <g transform="translate(131.132893, 201.951631) scale(-1, 1) rotate(-25.000000) translate(-131.132893, -201.951631) translate(78.632893, 4.451631)">
                        <g id="g4036" transform="translate(25.797452, 0.000000)">
                            <path d="M30.0656678,0.33248053 C27.5853045,0.344206902 25.1081105,0.421917381 22.6321487,0.529831245 C20.7978628,0.609778643 18.9666182,0.771877119 17.1460022,0.997240833 C15.3253886,1.22260455 13.5083692,1.5107449 11.7017374,1.83857809 C10.3894893,2.0883518 8.9997022,2.15234495 7.649946,2.35792208 C6.97506655,2.46071064 6.306608,2.60056291 5.67116415,2.81494479 C5.0357203,3.02932666 4.43384028,3.32125282 3.87036797,3.7289902 C3.4717712,4.02556636 3.14632462,4.38605923 2.88621192,4.78845193 C2.62609922,5.19084464 2.4313097,5.63227207 2.26849695,6.09719911 C1.94287414,7.02705552 1.76103393,8.04367412 1.57749377,8.96397792 C1.52021706,9.54028887 1.41011085,10.1058869 1.27387116,10.6674262 C1.13763146,11.2289648 0.985127643,11.7814109 0.834141856,12.3397132 C0.683156069,12.8980154 0.537804177,13.4557856 0.436291538,14.0223877 C0.334778898,14.5889898 0.277530331,15.1705613 0.289715104,15.7569966 C0.334712562,16.0088111 0.407085806,16.2183835 0.509579754,16.4009831 C0.612073702,16.5835828 0.739093656,16.7381968 0.886490582,16.8580058 C1.03388751,16.9778149 1.19886021,17.0646137 1.37856861,17.1280647 C1.55827701,17.1915158 1.75498091,17.2288032 1.95440459,17.2423204 C2.35325699,17.2693565 2.77718954,17.1998688 3.17936479,17.0657434 C3.58154003,16.9316181 3.96345322,16.7279415 4.26821829,16.4840782 C4.6520435,16.8185453 5.07761972,17.0714873 5.52458772,17.2423204 C5.97155571,17.4131535 6.44165397,17.5038574 6.91706383,17.5227662 C7.39247369,17.5416749 7.87179403,17.4882784 8.34094918,17.366963 C8.81010433,17.2456475 9.26334747,17.0559017 9.69154631,16.8060715 C9.92213634,16.676962 10.14252,16.6064044 10.36161,16.5775601 C10.5807001,16.5487158 10.7994658,16.5661628 11.0107342,16.6087207 C11.4332687,16.6938393 11.8433319,16.888984 12.2566339,17.0865172 C12.6699359,17.2840504 13.0899908,17.4852797 13.5234731,17.5643137 C13.7402115,17.60383 13.9557693,17.6081041 14.183067,17.5747006 C14.4103647,17.541297 14.6430098,17.4709916 14.8845399,17.3358023 C15.2838755,17.1865075 15.694128,17.0429651 16.1095001,16.930714 C16.5248723,16.8184629 16.9447332,16.7312686 17.3658669,16.6918158 C17.7870033,16.6523629 18.2160839,16.6642688 18.6327061,16.7333633 C19.0493282,16.8024578 19.4558234,16.9354371 19.8576662,17.1488385 C20.094846,17.3183251 20.3351744,17.4242822 20.5800787,17.4916055 C20.8249829,17.5589288 21.0734245,17.5802476 21.3234306,17.5747006 C21.8234479,17.563606 22.3368232,17.4418482 22.8415436,17.3150286 C23.3462641,17.1882089 23.8397683,17.0635461 24.3282475,17.0553566 C24.572487,17.0512613 24.8144108,17.0689476 25.0506599,17.1384516 C25.2869089,17.207952 25.5264915,17.3295998 25.7521328,17.5019924 C26.2623642,17.7330371 26.7600249,17.8518395 27.2597761,17.8863069 C27.7595274,17.9207744 28.2608382,17.8650845 28.7464799,17.7616644 C29.2321217,17.6582443 29.7024729,17.4976508 30.1703653,17.3150286 C30.6382577,17.1324063 31.0953939,16.9261179 31.5419019,16.7229764 C31.9895705,16.7771311 32.4426374,16.9549252 32.892499,17.1592254 C33.3423607,17.3635255 33.7943284,17.5934265 34.2430962,17.7824381 C34.691864,17.9714498 35.1388424,18.1169193 35.5832236,18.1252052 C35.8054143,18.1293463 36.0223394,18.1037796 36.2428175,18.0317233 C36.4632956,17.9596669 36.6840602,17.8371213 36.9024115,17.6681825 C37.0817979,17.450417 37.267503,17.2794732 37.457308,17.1488385 C37.6471129,17.0182038 37.8451998,16.9273972 38.0436137,16.8683927 C38.4404365,16.7503838 38.8481944,16.7616887 39.2685739,16.8372321 C40.1093383,16.9883162 40.9856376,17.4036747 41.8336615,17.5850874 C42.3002553,17.4343457 42.7564611,17.3245177 43.2051981,17.2527073 C43.6539351,17.1808969 44.093782,17.150507 44.5348557,17.1592254 C44.9759295,17.1679437 45.4208987,17.2137982 45.8645134,17.3046417 C46.308128,17.3954875 46.7482969,17.5247734 47.2046408,17.6993431 C48.1593559,17.3861114 49.2535106,17.2020356 50.2827459,16.9099402 C50.7973635,16.7638924 51.2998959,16.598869 51.7589799,16.3698225 C52.218064,16.140776 52.6298346,15.8474509 52.9839401,15.4765508 C53.0610166,14.8491604 53.0485889,14.2252692 52.9630006,13.6069125 C52.8774124,12.9885558 52.7203816,12.3755703 52.5337411,11.7684348 C52.1604496,10.5541677 51.6538121,9.37236344 51.2459624,8.21612258 C50.8268965,7.25513511 50.6159374,6.11926949 50.2513366,5.08967145 C50.0690364,4.5748711 49.8483586,4.08403868 49.539394,3.65628204 C49.3849091,3.44240206 49.2091216,3.24332297 49.0054369,3.0642299 C48.8017523,2.88513683 48.5685346,2.72206115 48.303964,2.58643343 C47.4732911,2.16845874 46.6122874,1.85251811 45.7284067,1.59967986 C44.844526,1.3468416 43.9423131,1.15584932 43.0272124,1.01801459 C42.1121118,0.880179867 41.1875381,0.789759171 40.2631997,0.71679508 C39.3388612,0.643830989 38.4107808,0.598441156 37.4991869,0.540218125 C35.0239204,0.38212483 32.5460312,0.320754158 30.0656678,0.33248053 L30.0656678,0.33248053 Z" id="path3932"></path>
                            <path d="M47.4071699,8.43306744 C47.1190421,9.33873687 48.6132815,11.374332 48.755671,10.2243635 C47.2620964,9.49355921 50.0505708,9.53291336 48.5797813,9.1076991 C48.0447355,9.24058435 47.7535918,8.69787437 47.4071699,8.43306744 L47.4071699,8.43306744 Z M34.2601808,5.66896053 C34.4206624,5.77535574 34.5938732,5.89258589 34.8984161,6.17491026 C35.0518634,7.28748634 35.4498822,9.01174128 35.4227416,6.85206768 C35.3322867,6.45626939 35.3054835,6.03487817 35.0026124,5.72752624 C34.5329001,5.13592214 34.1519662,4.99755262 33.6778981,4.93190721 C31.3869514,5.0880265 32.3143162,7.95802939 32.4114781,9.47002637 C32.7682877,11.2663739 32.8892318,13.1241469 33.4319817,14.8746938 C33.8745585,13.4012519 33.4554363,11.0084808 33.2607798,9.62022929 C33.1100165,8.1779321 32.656387,6.84871064 33.1237528,5.96022559 C33.2661423,5.68973429 33.9432403,5.45932836 34.2601801,5.66896053 L34.2601808,5.66896053 Z M11.2954258,5.68797234 C9.77639246,5.60846701 8.73008767,8.8256413 10.3663842,9.01360228 C10.5007323,9.61540978 11.665637,10.5017347 11.9051838,10.131297 C12.2817599,8.90155726 12.8312118,6.24530804 11.2954258,5.68797267 L11.2954258,5.68797234 Z M15.6572071,5.43207319 C13.9026454,6.23620049 14.8122558,8.77398976 14.5817552,10.3595425 C14.5392065,11.2054829 14.6561323,14.4610471 15.0226551,11.9622456 C14.4433864,9.80696046 17.5172996,9.99146468 17.0800877,7.97478135 C17.0717113,7.03447823 16.8830873,5.46577654 15.6572068,5.43207319 L15.6572071,5.43207319 Z M20.9098344,5.11800685 C19.5774111,5.27179915 21.372175,8.13658401 19.7090803,6.58702774 C18.9978073,6.90511588 19.4584761,8.3684195 20.340951,8.21585701 C21.1205688,9.83720672 20.5222033,12.352792 20.7138385,13.60673 C20.7996056,12.2846218 21.6777247,10.478967 22.4881688,11.9359879 C22.890206,10.0562456 22.8533522,8.02606761 22.4905154,6.13934525 C22.2375646,5.54471683 21.5497463,5.13000611 20.9094971,5.11800685 L20.9098344,5.11800685 L20.9098344,5.11800685 Z M27.4754535,5.02494041 C24.8223343,4.91701658 25.4354429,7.79263703 25.6223904,9.49847877 C26.1443697,11.0475687 24.980137,13.8552507 26.5903001,14.574854 C27.3484771,12.9508772 26.5186016,10.8859003 26.7176088,9.089252 C26.5839355,8.30227518 27.0288537,5.65506704 27.487181,7.7351685 C27.571941,8.53809956 28.1337901,9.89344611 27.9656045,8.1942852 C27.4483133,7.23433809 29.0661854,5.03820271 27.4754539,5.02494074 L27.4754535,5.02494041 Z M38.5552914,5.0016738 C36.9766193,5.94809304 38.463492,8.32477765 38.5552914,9.81503696 C39.0380703,11.5634234 39.3787974,13.3909485 40.1366421,15.0371941 C40.4904357,13.3276636 39.4987391,11.4669653 39.2638804,9.71941153 C39.1469546,8.9579286 37.9555814,5.47877194 39.4659087,6.88191541 C39.8924025,9.28256396 40.4314668,11.7134255 41.3652012,13.9936867 C42.8839022,15.2659717 41.7782961,11.3134393 41.419145,10.4199356 C40.868686,8.5506632 40.9229618,6.02653476 38.912101,5.03664019 L38.5552914,5.0016738 L38.5552914,5.0016738 Z M46.7508371,4.92027357 C45.4830776,5.68026112 48.0701939,9.51409998 48.0169248,6.87443653 C47.8423746,6.16387424 47.601821,5.09031926 46.7508371,4.92027357 L46.7508371,4.92027357 Z M42.7994745,4.92027357 C41.668742,6.48322509 43.207544,8.94253873 43.4209573,10.7826953 C43.7539799,11.7144892 43.9667235,13.2941597 44.5399623,13.7925295 C44.4900469,12.3387659 43.7767597,10.9080694 43.9874991,9.4660049 C45.128952,9.81875929 44.7135105,12.9926244 45.9688728,12.9237543 C44.8089959,10.5155278 44.7925807,7.7122007 43.5610002,5.3384078 C43.3985095,5.08699545 43.1073658,4.90451875 42.7994745,4.92027357 L42.7994745,4.92027357 Z M51.241269,8.21206754 C50.4030196,6.29011255 50.4221188,3.67520777 48.3053899,2.59019598 C44.9828767,0.918293899 41.1464257,0.768011538 37.4999381,0.535119413 C32.5495122,0.218929499 27.5793127,0.316014417 22.6275424,0.531842145 C18.9589447,0.691736941 15.3171502,1.18540788 11.7041654,1.84107427 C9.07952588,2.34062501 6.11972187,2.09769169 3.86582795,3.72863456 C2.27141039,4.91492258 1.94968065,7.12089707 1.58258525,8.96151797 C1.35349047,11.2667402 0.235758225,13.4077005 0.284505694,15.7534398 C0.644497749,17.7679633 3.04580401,17.4646987 4.26485189,16.4892626 C5.80016749,17.8271263 7.97928297,17.8091113 9.69230047,16.8097775 C11.5369848,15.7769055 12.9548403,18.4143756 14.8869683,17.332877 C16.4844018,16.7356896 18.2510207,16.2918624 19.8585048,17.1454479 C21.7561255,18.5013591 23.9425437,16.119291 25.7476956,17.4984356 C27.7883706,18.4226183 29.7600364,17.539452 31.5460891,16.7268812 C33.3368347,16.943493 35.1584018,19.0230294 36.9049269,17.6715053 C38.3402023,15.9294015 40.1376448,17.223391 41.8335801,17.5861836 C43.7000421,16.9832464 45.3829054,17.0053157 47.2081583,17.7036142 C49.1175064,17.0771441 51.5716137,16.9638015 52.9881274,15.4801891 C53.296356,12.9706202 52.0567392,10.5245685 51.2412696,8.21210011 L51.2412696,8.21206721 L51.241269,8.21206754 Z M9.74791509,3.4546403 C13.4057925,2.89045491 17.0660164,2.26751468 20.7580637,1.97095513 C27.3873398,1.68430717 34.058827,1.62262738 40.6656554,2.30309265 C43.2832605,2.77314466 46.0754156,3.06100282 48.3921585,4.44334162 C49.9524061,6.91335824 50.3990009,9.8889254 51.4627284,12.5804727 C52.3401778,14.1439225 51.61684,15.8271285 49.7098384,15.7635442 C48.0142459,16.7040145 46.3712474,16.5934981 44.722891,15.7605202 C42.9840751,15.5674728 41.2978631,17.4926528 39.8009402,15.7418397 C38.2048458,14.2933277 36.9313917,17.2767055 35.2398173,16.8476024 C33.4497414,15.7425052 30.9842391,14.9533346 29.092988,16.2885393 C27.1853166,17.3214428 25.6317709,15.0189461 23.647376,15.8304197 C21.6200999,17.0125955 19.9529821,15.3658845 17.8834897,15.4501765 C15.9728071,14.9717814 12.9993995,17.8131993 12.0810755,15.1143057 C11.89614,13.3260672 10.7523406,16.0473636 9.58676343,15.3522566 C8.25032206,15.9440601 6.30455693,17.3644864 5.00942466,15.6779892 C5.34948165,14.3826379 5.01240778,11.9318325 6.33950142,11.2766122 C6.81675429,11.9147485 6.67681082,13.5488955 7.15091438,11.762418 C7.54400792,9.94426637 7.93271254,7.92010415 7.16682873,6.15456726 C5.32887719,4.78479542 5.50366531,8.60138375 5.05297813,9.66782546 C4.57492286,11.6397698 4.50345956,13.7727203 3.56011173,15.5946618 C2.32176534,16.7087662 0.826618716,15.7633118 1.56409149,14.1907542 C1.86468273,11.9511099 2.89259394,9.89254735 3.21857959,7.64924757 C3.50942175,6.0755605 4.35953122,4.23148185 6.20331064,4.13379532 C7.3848353,3.9074112 8.56625743,3.68102675 9.74791509,3.45464263 L9.74791509,3.4546393 L9.74791509,3.4546403 Z" id="path2991" fill-rule="nonzero"></path>
                        </g>
                        <path d="M30.6624457,14.5001679 C26.2587881,15.9878679 26.2536936,30.8164775 28.9872864,32.9992183 C30.2635909,34.0184614 29.9662153,34.6047799 29.5840797,38.057545 C27.8996725,53.276568 25.6942906,76.420864 24.6213846,97.5535947 C23.3599565,122.40034 26.4818834,139.694079 18.4756619,154.193493 C11.2789775,163.266808 0.102126418,171.127272 0.0698494496,183.99337 C-0.0873139899,246.64005 0.0698494496,309.286405 0.0698494496,371.933065 C0.0698494496,377.294358 7.02732214,385.603862 17.2925639,389.459463 C27.5578385,393.315065 40.5936272,394.907179 52.4571036,394.903852 C64.3235935,394.900525 77.3643718,393.295143 87.6284132,389.439501 C97.8921172,385.5839 104.840674,377.271069 104.840674,371.913103 C104.840674,309.273767 104.997802,246.632077 104.840674,183.99337 C104.808181,171.128936 93.6408994,163.27612 86.4450867,154.203799 C78.4401638,139.706373 81.560649,122.407319 80.2995865,97.5639005 C79.2268159,76.4338275 77.0209665,53.295516 75.3367638,38.0784862 C74.9548278,34.6260533 74.6573192,34.0390702 75.9337898,33.019992 C78.6669763,30.8375504 78.6616185,16.0084422 74.2586306,14.5209416 C69.4921308,12.9107928 59.4348108,13.0962935 52.4601148,13.08589 C45.4854242,13.0755197 35.429446,12.8898186 30.6624453,14.5001679 L30.6624453,14.5001679 L30.6624457,14.5001679 Z" id="path3828" fill-rule="nonzero"></path>
                    </g>
                </g>
            </g>
        </g>
    </g>
</svg>