<?xml version="1.0" encoding="UTF-8"?>
<svg width="103px" height="117px" viewBox="0 0 103 117" version="1.1" xmlns="http://www.w3.org/2000/svg" xmlns:xlink="http://www.w3.org/1999/xlink">
    <!-- Generator: Sketch 47.1 (45422) - http://www.bohemiancoding.com/sketch -->
    <title>google-play</title>
    <desc>Created with Sketch.</desc>
    <defs></defs>
    <g id="Page-1" stroke="none" stroke-width="1" fill="none" fill-rule="evenodd">
        <g id="google-play" fill-rule="nonzero" fill="#FF8700">
            <path d="M0.461392012,3.89568345 C0.187329117,4.88838097 0,5.95907323 0,7.18207983 L0,107.781417 C0,108.986048 0.187329117,110.045306 0.450698807,111.026978 L55.2106038,57.5360589 C55.2106038,57.5356505 0.461392012,3.89568345 0.461392012,3.89568345 Z" id="Shape"></path>
            <path d="M75.4544919,37.2758863 L12.5801848,1.63550112 C10.0735628,0.0820883414 7.60588759,-0.311622818 5.52106038,0.230126912 L59.5988221,52.5917266 C59.5988221,52.5917266 75.4544919,37.2758863 75.4544919,37.2758863 Z" id="Shape"></path>
            <path d="M98.4827359,48.3459307 L82.5611702,38.9568345 L66.2527246,55.3315436 L82.8638011,72.0701439 L98.3548845,63.0519895 C105.916963,58.4839611 103.15855,51.1309317 98.4827359,48.3459307 Z" id="Shape"></path>
            <path d="M3.68070692,116.594939 C5.84242415,117.198763 8.42415489,116.837263 11.0492393,115.242295 L75.4544919,79.9237705 L58.9685641,64.278777 C58.9685641,64.2791742 3.68070692,116.594939 3.68070692,116.594939 Z" id="Shape"></path>
        </g>
    </g>
</svg>