<?xml version="1.0" encoding="UTF-8"?>
<svg width="3506px" height="2309px" viewBox="0 0 3506 2309" version="1.1" xmlns="http://www.w3.org/2000/svg" xmlns:xlink="http://www.w3.org/1999/xlink">
    <!-- Generator: Sketch 47.1 (45422) - http://www.bohemiancoding.com/sketch -->
    <title>Icon SIngle Line</title>
    <desc>Created with Sketch.</desc>
    <defs></defs>
    <g id="Page-1" stroke="none" stroke-width="1" fill="none" fill-rule="evenodd">
        <g id="Icon-SIngle-Line" transform="translate(1.000000, 1.000000)" stroke="#000000" fill="#FF8700">
            <ellipse id="Oval-3-Copy-2" cx="2274.5" cy="517" rx="315.5" ry="517"></ellipse>
            <ellipse id="Oval-3-Copy-4" cx="1218.5" cy="517" rx="315.5" ry="517"></ellipse>
            <path d="M63.0119091,1399.97332 C88.0876799,1303.28167 120.535667,1240.037 160.355871,1210.23932 C199.973124,1179.63959 254.619899,1189.71767 324.296195,1240.47357 C744.179031,1550.06328 1238.10178,1704.85814 1806.06443,1704.85814 C1812.10334,1704.9818 1992.09562,1695.19479 2087.07876,1683.74815 C2336.08654,1653.73963 2737.78357,1586.39674 3182.11395,1238.83946 C3296.93994,1154.65969 3328.10615,1183.58311 3371.59388,1238.83946 C3400.58571,1275.67703 3442.06411,1389.3745 3496.02908,1579.93189 C3508.83465,1632.52519 3506.21076,1651.33609 3488.1574,1636.36458 C3461.07736,1613.90733 3410.74848,1559.19742 3329.57175,1451.8459 C3322.62284,1442.28035 3298.38338,1419.36346 3286.1221,1420.06096 C3273.86081,1420.75845 3261.35181,1431.53762 3250.98914,1442.36019 C3132.59152,1566.01225 2506.3226,2320.84176 1766.41907,2306.80677 C1212.54301,2282.40149 708.643403,1993.89709 254.72024,1441.29356 C228.858153,1414.12896 198.502365,1421.95246 163.652878,1464.76404 C111.378646,1528.98142 40.1688119,1622.74078 17.2983002,1636.36458 C-5.57221148,1649.98839 -1.47137136,1634.82319 5.41696792,1593.91344 C10.0091941,1566.64028 29.2075078,1501.99357 63.0119091,1399.97332 Z" id="Path-34-Copy"></path>
        </g>
    </g>
</svg>