<?xml version="1.0" encoding="UTF-8"?>
<svg width="264px" height="264px" viewBox="0 0 264 264" version="1.1" xmlns="http://www.w3.org/2000/svg" xmlns:xlink="http://www.w3.org/1999/xlink">
    <!-- Generator: Sketch 49 (51002) - http://www.bohemiancoding.com/sketch -->
    <title>logoOrange</title>
    <desc>Created with Sketch.</desc>
    <defs>
        <rect id="path-1" x="0" y="0" width="254" height="254" rx="33"></rect>
        <filter x="-3.0%" y="-3.0%" width="105.9%" height="105.9%" filterUnits="objectBoundingBox" id="filter-2">
            <feOffset dx="0" dy="0" in="SourceAlpha" result="shadowOffsetOuter1"></feOffset>
            <feGaussianBlur stdDeviation="2.5" in="shadowOffsetOuter1" result="shadowBlurOuter1"></feGaussianBlur>
            <feColorMatrix values="0 0 0 0 0   0 0 0 0 0   0 0 0 0 0  0 0 0 0.5 0" type="matrix" in="shadowBlurOuter1"></feColorMatrix>
        </filter>
    </defs>
    <g id="Page-1" stroke="none" stroke-width="1" fill="none" fill-rule="evenodd">
        <g id="logoOrange" transform="translate(5.000000, 5.000000)">
            <g id="Rectangle-16">
                <use fill="black" fill-opacity="1" filter="url(#filter-2)" xlink:href="#path-1"></use>
                <use fill="#161616" fill-rule="evenodd" xlink:href="#path-1"></use>
            </g>
            <g id="Perfect-smiley-Copy-2" transform="translate(29.000000, 60.000000)" fill="#FF8700">
                <g id="eyes" transform="translate(55.000000, 0.000000)">
                    <path d="M17.6975567,62.4064194 C28.8944118,62.4064194 35.3951134,48.3715436 35.3951134,31.153572 C35.3951134,13.9356003 28.7925469,0.030045072 17.6975567,4.97650838e-05 C6.60256651,-0.0299455418 0,13.5030252 0,31.153572 C6.12989538e-16,48.8041187 6.50070159,62.4064194 17.6975567,62.4064194 Z" id="Oval-3-Copy-6"></path>
                    <path d="M68.3163748,62.4064194 C79.5132299,62.4064194 86.0139315,48.3715436 86.0139315,31.153572 C86.0139315,13.9356003 79.411365,0.030045072 68.3163748,4.97650838e-05 C57.2213846,-0.0299455418 50.6188181,13.5030252 50.6188181,31.153572 C50.6188181,48.8041187 57.1195197,62.4064194 68.3163748,62.4064194 Z" id="Oval-3-Copy-7" transform="translate(68.316375, 31.203210) scale(-1, 1) translate(-68.316375, -31.203210) "></path>
                </g>
                <path d="M5.06205356,71.1953356 C5.74555813,69.7319233 7.41017282,66.0946931 12.6016158,66.0077879 C13.4941055,65.971967 14.7200641,66.2238431 16.0403039,66.8138094 C24.1342899,71.8959735 56.0947856,92.9008324 100.054589,91.6917348 C106.317726,91.7457512 143.135151,91.3985225 178.98388,67.4021561 C181.141112,65.9684724 182.991354,65.8638875 184.676565,66.0946931 C187.531177,66.6343262 189.627569,68.1801834 190.839455,71.0418514 C192.829002,77.1514273 194.19297,85.0916307 195.96658,90.3792756 C196.16643,91.0007123 195.457915,92.2738965 194.164268,91.5761073 C192.61396,90.2891891 186.12076,81.480539 184.916972,79.855519 C183.989172,78.7324664 182.832212,79.0436334 182.363808,79.3954318 C174.349822,91.3279237 153.788985,133.375379 98.1579628,134 C41.2101465,133.231852 21.349438,90.3792756 13.637914,79.3954318 C13.1624586,79.0726592 11.9432308,78.6241664 10.9052735,80.0749139 C7.97834295,84.0244424 3.30059397,90.2978579 1.83602936,91.5761073 C0.940441205,92.089652 -0.155332039,91.5761073 0.0183159664,90.4112996 C0.763554095,88.0334795 2.81204276,79.0899828 5.06205356,71.1953356 Z" id="Path-34-Copy-3" transform="translate(98.000000, 100.000000) scale(-1, 1) translate(-98.000000, -100.000000) "></path>
            </g>
        </g>
    </g>
</svg>