<?xml version="1.0" encoding="UTF-8"?>
<svg width="3216px" height="2204px" viewBox="0 0 3216 2204" version="1.1" xmlns="http://www.w3.org/2000/svg" xmlns:xlink="http://www.w3.org/1999/xlink">
    <!-- Generator: Sketch 47.1 (45422) - http://www.bohemiancoding.com/sketch -->
    <title>Perfect smiley</title>
    <desc>Created with Sketch.</desc>
    <defs></defs>
    <g id="Page-1" stroke="none" stroke-width="1" fill="none" fill-rule="evenodd">
        <g id="Perfect-smiley" transform="translate(1608.000000, 1102.000000) scale(-1, 1) translate(-1608.000000, -1102.000000) " fill="#FF8700">
            <g id="eyes" transform="translate(898.000000, 0.000000)">
                <path d="M292.168142,1019.40927 C477.016503,1019.40927 584.336283,790.149482 584.336283,508.893802 C584.336283,227.638123 475.334819,0.490786448 292.168142,0.000812912969 C109.001464,-0.489160622 0,220.572005 0,508.893802 C1.01198158e-14,797.2156 107.319781,1019.40927 292.168142,1019.40927 Z" id="right"></path>
                <path d="M1127.83186,1019.40927 C1312.68022,1019.40927 1420,790.149482 1420,508.893802 C1420,227.638123 1310.99854,0.490786448 1127.83186,0.000812912969 C944.665181,-0.489160622 835.663717,220.572005 835.663717,508.893802 C835.663717,797.2156 942.983497,1019.40927 1127.83186,1019.40927 Z" id="left" transform="translate(1127.831858, 509.704635) scale(-1, 1) translate(-1127.831858, -509.704635) "></path>
            </g>
            <path d="M83.0590012,1177.88262 C94.2740558,1153.97304 121.587325,1094.54712 206.76937,1093.12724 C221.413487,1092.54199 241.529215,1096.6572 263.191925,1106.29621 C395.99937,1189.3298 920.4124,1532.51213 1641.71203,1512.75761 C1744.4786,1513.64014 2348.58493,1507.96704 2936.79672,1115.90876 C2972.19294,1092.4849 3002.55201,1090.77616 3030.20323,1094.54712 C3077.04217,1103.36377 3111.44011,1128.62035 3131.32493,1175.37496 C3163.96974,1275.19464 3186.34995,1404.92355 3215.45163,1491.31434 C3218.73081,1501.46752 3207.10538,1522.2691 3185.879,1510.86846 C3160.44131,1489.84249 3053.89982,1345.92469 3034.14787,1319.37473 C3018.92438,1301.02603 2999.94079,1306.10995 2992.25514,1311.85772 C2860.76035,1506.81358 2523.39478,2193.7948 1610.59188,2204 C676.182811,2191.44983 350.305064,1491.31434 223.773119,1311.85772 C215.97177,1306.58418 195.96648,1299.2566 178.935508,1322.95925 C130.909954,1387.48758 54.1566847,1489.98412 30.1258695,1510.86846 C15.4309128,1519.25887 -2.54871346,1510.86846 0.300531366,1491.83756 C12.5285202,1452.98817 46.1404568,1306.86722 83.0590012,1177.88262 Z" id="smile" transform="translate(1608.000000, 1648.500000) scale(-1, 1) translate(-1608.000000, -1648.500000) "></path>
        </g>
    </g>
</svg>