<?xml version="1.0" encoding="UTF-8"?>
<svg width="233px" height="38px" viewBox="0 0 233 38" version="1.1" xmlns="http://www.w3.org/2000/svg" xmlns:xlink="http://www.w3.org/1999/xlink">
    <!-- Generator: Sketch 47.1 (45422) - http://www.bohemiancoding.com/sketch -->
    <title>Made with</title>
    <desc>Created with Sketch.</desc>
    <defs></defs>
    <g id="Page-1" stroke="none" stroke-width="1" fill="none" fill-rule="evenodd">
        <path d="M37.4862227,37 L37.4862227,1.77050781 L28.9413009,1.77050781 L18.9315352,26.7460938 L18.7362227,26.7460938 L8.72645711,1.77050781 L0.181535234,1.77050781 L0.181535234,37 L6.74891805,37 L6.74891805,13.2207031 L6.94423055,13.2207031 L16.514543,36.6582031 L21.1532149,36.6582031 L30.7235274,13.2207031 L30.9188399,13.2207031 L30.9188399,37 L37.4862227,37 Z M52.4229628,32.2636719 C55.5235487,32.2636719 58.0870253,30.2373047 58.0870253,27.4052734 L58.0870253,25.5009766 L52.5694472,25.8427734 C49.9083144,26.0380859 48.3946425,27.234375 48.3946425,29.0898438 C48.3946425,31.0429688 50.0059706,32.2636719 52.4229628,32.2636719 Z M50.0792128,37.4150391 C45.0987441,37.4150391 41.3145644,34.1923828 41.3145644,29.4804688 C41.3145644,24.7197266 44.9766737,21.9609375 51.4952284,21.5703125 L58.0870253,21.1796875 L58.0870253,19.4462891 C58.0870253,17.0048828 56.3780409,15.5888672 53.6924941,15.5888672 C51.0313612,15.5888672 49.3467909,16.9072266 49.0049941,18.8359375 L42.4864394,18.8359375 C42.7549941,13.7578125 47.0762831,10.2666016 54.0098769,10.2666016 C60.7237441,10.2666016 65.0938612,13.7333984 65.0938612,19.0068359 L65.0938612,37 L58.2090956,37 L58.2090956,32.9960938 L58.0626112,32.9960938 C56.5977675,35.7792969 53.3506972,37.4150391 50.0792128,37.4150391 Z M79.5423201,37.4150391 C72.9993513,37.4150391 68.8733747,32.2392578 68.8733747,23.8652344 C68.8733747,15.5644531 73.0237654,10.4130859 79.5911482,10.4130859 C83.3753279,10.4130859 86.3050154,12.4150391 87.5745466,15.3203125 L87.721031,15.3203125 L87.721031,1.77050781 L94.8499372,1.77050781 L94.8499372,37 L87.8186872,37 L87.8186872,32.5078125 L87.6966169,32.5078125 C86.4270857,35.3886719 83.3997419,37.4150391 79.5423201,37.4150391 Z M81.9593122,16.1259766 C78.3704451,16.1259766 76.1731794,19.1289062 76.1731794,23.9140625 C76.1731794,28.7236328 78.3704451,31.6777344 81.9593122,31.6777344 C85.4993513,31.6777344 87.7698591,28.6992188 87.7698591,23.9140625 C87.7698591,19.1533203 85.4993513,16.1259766 81.9593122,16.1259766 Z M111.495662,15.5400391 C108.370662,15.5400391 106.124568,17.9082031 105.880427,21.1796875 L116.988826,21.1796875 C116.842341,17.8349609 114.66949,15.5400391 111.495662,15.5400391 Z M117.086482,28.9921875 L123.629451,28.9921875 C122.848201,34.1191406 118.160701,37.5615234 111.690974,37.5615234 C103.634334,37.5615234 98.8003492,32.4101562 98.8003492,24.0361328 C98.8003492,15.6865234 103.683162,10.2666016 111.42242,10.2666016 C119.039607,10.2666016 123.849177,15.4179688 123.849177,23.3769531 L123.849177,25.5498047 L105.807185,25.5498047 L105.807185,25.9892578 C105.807185,29.7246094 108.175349,32.2880859 111.813045,32.2880859 C114.425349,32.2880859 116.427302,30.9941406 117.086482,28.9921875 Z M174.401368,10.828125 L167.370118,10.828125 L163.390626,30.2373047 L163.244142,30.2373047 L158.581056,10.828125 L151.745118,10.828125 L147.106447,30.2373047 L146.959962,30.2373047 L143.004884,10.828125 L135.82715,10.828125 L142.785157,37 L150.280275,37 L154.992189,18.4941406 L155.138673,18.4941406 L159.875001,37 L167.467775,37 L174.401368,10.828125 Z M177.44846,37 L184.577366,37 L184.577366,10.828125 L177.44846,10.828125 L177.44846,37 Z M181.012913,7.94726563 C183.161351,7.94726563 184.821507,6.31152344 184.821507,4.26074219 C184.821507,2.18554688 183.161351,0.57421875 181.012913,0.57421875 C178.864476,0.57421875 177.204319,2.18554688 177.204319,4.26074219 C177.204319,6.31152344 178.864476,7.94726563 181.012913,7.94726563 Z M191.359809,4.79785156 L191.359809,10.828125 L187.673286,10.828125 L187.673286,16.1992188 L191.359809,16.1992188 L191.359809,29.9443359 C191.359809,35.046875 193.752388,37.0976562 199.904731,37.0976562 C201.345161,37.0976562 202.565864,36.9755859 203.298286,36.8046875 L203.298286,31.5556641 C202.858833,31.6289062 202.199653,31.6777344 201.564888,31.6777344 C199.465278,31.6777344 198.488716,30.7255859 198.488716,28.7236328 L198.488716,16.1992188 L203.3227,16.1992188 L203.3227,10.828125 L198.488716,10.828125 L198.488716,4.79785156 L191.359809,4.79785156 Z M207.541667,37 L214.670573,37 L214.670573,22.0585938 C214.670573,18.6162109 216.648112,16.2480469 220.017253,16.2480469 C223.264323,16.2480469 224.924479,18.2988281 224.924479,21.6679688 L224.924479,37 L232.053385,37 L232.053385,20.1542969 C232.053385,14.0996094 228.733073,10.3398438 222.922526,10.3398438 C218.943034,10.3398438 216.086589,12.1953125 214.694987,15.4912109 L214.548503,15.4912109 L214.548503,1.77050781 L207.541667,1.77050781 L207.541667,37 Z" id="Made-with" fill="#FFFFFF"></path>
    </g>
</svg>