<?xml version="1.0" encoding="UTF-8"?>
<svg width="1862px" height="228px" viewBox="0 0 1862 228" version="1.1" xmlns="http://www.w3.org/2000/svg" xmlns:xlink="http://www.w3.org/1999/xlink">
    <!-- Generator: Sketch 48.2 (47327) - http://www.bohemiancoding.com/sketch -->
    <title>selectOne</title>
    <desc>Created with Sketch.</desc>
    <defs></defs>
    <g id="Page-1" stroke="none" stroke-width="1" fill="none" fill-rule="evenodd">
        <path d="M120.467004,169.042969 C120.467004,160.742146 117.537345,154.370139 111.677941,149.926758 C105.818537,145.483376 95.2717674,140.795923 80.0373162,135.864258 C64.802865,130.932593 52.7424388,126.074243 43.8556756,121.289063 C19.6368045,108.20306 7.52755058,90.5762827 7.52755058,68.4082031 C7.52755058,56.884708 10.7745884,46.6064905 17.2687615,37.5732422 C23.7629346,28.5399939 33.0890132,21.4844004 45.2472771,16.40625 C57.4055411,11.3280996 71.0528655,8.7890625 86.18966,8.7890625 C101.424111,8.7890625 114.998194,11.547824 126.912316,17.0654297 C138.826438,22.5830354 148.079275,30.3710435 154.671105,40.4296875 C161.262935,50.4883315 164.558801,61.9139985 164.558801,74.7070312 L120.613488,74.7070312 C120.613488,64.9413574 117.537347,57.3486599 111.384972,51.9287109 C105.232598,46.508762 96.5901062,43.7988281 85.4572381,43.7988281 C74.7149969,43.7988281 66.365471,46.0693132 60.40841,50.6103516 C54.4513489,55.1513899 51.4728631,61.1327754 51.4728631,68.5546875 C51.4728631,75.4883159 54.9640391,81.2988047 61.9464959,85.9863281 C68.9289527,90.6738516 79.2071702,95.0683389 92.7814568,99.1699219 C117.781582,106.689491 135.99429,116.015569 147.420129,127.148438 C158.845967,138.281306 164.558801,152.148354 164.558801,168.75 C164.558801,187.207124 157.576449,201.684518 143.611535,212.182617 C129.646621,222.680717 110.847981,227.929688 87.2150506,227.929688 C70.8087185,227.929688 55.8674617,224.926788 42.3908318,218.920898 C28.9142019,212.915009 18.6359844,204.687552 11.5558709,194.238281 C4.47575736,183.78901 0.935753701,171.679756 0.935753701,157.910156 L45.0275506,157.910156 C45.0275506,181.44543 59.08991,193.212891 87.2150506,193.212891 C97.6643216,193.212891 105.818537,191.088888 111.677941,186.84082 C117.537345,182.592752 120.467004,176.660194 120.467004,169.042969 Z M258.919326,227.929688 C235.677022,227.929688 216.756313,220.800853 202.156631,206.542969 C187.556948,192.285085 180.257217,173.291134 180.257217,149.560547 L180.257217,145.458984 C180.257217,129.540936 183.333358,115.30768 189.485732,102.758789 C195.638107,90.2098982 204.35384,80.5420261 215.633193,73.7548828 C226.912547,66.9677395 239.778629,63.5742188 254.231826,63.5742188 C275.911622,63.5742188 292.976881,70.4100879 305.428115,84.0820312 C317.879349,97.7539746 324.104873,117.138546 324.104873,142.236328 L324.104873,159.521484 L223.177139,159.521484 C224.544333,169.873099 228.670268,178.173797 235.555068,184.423828 C242.439868,190.673859 251.155602,193.798828 261.702529,193.798828 C278.011205,193.798828 290.755218,187.890684 299.934951,176.074219 L320.735732,199.365234 C314.388044,208.349654 305.79438,215.35642 294.954482,220.385742 C284.114584,225.415064 272.102986,227.929688 258.919326,227.929688 Z M254.085342,97.8515625 C245.686862,97.8515625 238.875407,100.683565 233.650771,106.347656 C228.426136,112.011747 225.081443,120.117135 223.616592,130.664062 L282.503311,130.664062 L282.503311,127.294922 C282.307997,117.919875 279.76896,110.668971 274.886123,105.541992 C270.003286,100.415013 263.069762,97.8515625 254.085342,97.8515625 Z M387.264227,225 L344.783758,225 L344.783758,0 L387.264227,0 L387.264227,225 Z M489.534909,227.929688 C466.292605,227.929688 447.371896,220.800853 432.772213,206.542969 C418.172531,192.285085 410.872799,173.291134 410.872799,149.560547 L410.872799,145.458984 C410.872799,129.540936 413.94894,115.30768 420.101315,102.758789 C426.253689,90.2098982 434.969423,80.5420261 446.248776,73.7548828 C457.528129,66.9677395 470.394211,63.5742188 484.847409,63.5742188 C506.527205,63.5742188 523.592464,70.4100879 536.043698,84.0820312 C548.494932,97.7539746 554.720456,117.138546 554.720456,142.236328 L554.720456,159.521484 L453.792721,159.521484 C455.159915,169.873099 459.285851,178.173797 466.170651,184.423828 C473.055451,190.673859 481.771184,193.798828 492.318112,193.798828 C508.626787,193.798828 521.3708,187.890684 530.550534,176.074219 L551.351315,199.365234 C545.003627,208.349654 536.409963,215.35642 525.570065,220.385742 C514.730167,225.415064 502.718568,227.929688 489.534909,227.929688 Z M484.700924,97.8515625 C476.302445,97.8515625 469.490989,100.683565 464.266354,106.347656 C459.041718,112.011747 455.697025,120.117135 454.232174,130.664062 L513.118893,130.664062 L513.118893,127.294922 C512.92358,117.919875 510.384542,110.668971 505.501706,105.541992 C500.618869,100.415013 493.685344,97.8515625 484.700924,97.8515625 Z M639.120044,193.798828 C646.932583,193.798828 653.280175,191.650412 658.163012,187.353516 C663.045849,183.056619 665.584886,177.343786 665.7802,170.214844 L705.477466,170.214844 C705.379809,180.957085 702.450151,190.795854 696.688403,199.731445 C690.926655,208.667037 683.040992,215.600561 673.031176,220.532227 C663.021361,225.463892 651.961901,227.929688 639.852466,227.929688 C617.196102,227.929688 599.325187,220.727611 586.239184,206.323242 C573.153181,191.918873 566.610278,172.021611 566.610278,146.630859 L566.610278,143.847656 C566.610278,119.433472 573.104354,99.9512446 586.0927,85.4003906 C599.081046,70.8495366 616.903133,63.5742188 639.559497,63.5742188 C659.383815,63.5742188 675.27721,69.2138108 687.240161,80.4931641 C699.203111,91.7725173 705.282152,106.787016 705.477466,125.537109 L665.7802,125.537109 C665.584886,117.333943 663.045849,110.668971 658.163012,105.541992 C653.280175,100.415013 646.834927,97.8515625 638.827075,97.8515625 C628.963744,97.8515625 621.51753,101.440394 616.488208,108.618164 C611.458886,115.795934 608.944262,127.441326 608.944262,143.554688 L608.944262,147.949219 C608.944262,164.257894 611.434472,175.976527 616.414966,183.105469 C621.395459,190.234411 628.963743,193.798828 639.120044,193.798828 Z M774.789163,27.5390625 L774.789163,66.5039062 L801.888772,66.5039062 L801.888772,97.5585937 L774.789163,97.5585937 L774.789163,176.660156 C774.789163,182.519561 775.912199,186.718737 778.158304,189.257812 C780.404409,191.796888 784.701241,193.066406 791.048929,193.066406 C795.736452,193.066406 799.886801,192.724613 803.5001,192.041016 L803.5001,224.121094 C795.199278,226.660169 786.654441,227.929687 777.865335,227.929687 C748.177686,227.929687 733.041119,212.939603 732.455179,182.958984 L732.455179,97.5585937 L709.310647,97.5585937 L709.310647,66.5039062 L732.455179,66.5039062 L732.455179,27.5390625 L774.789163,27.5390625 Z M1012.28951,181.054687 L935.23873,181.054687 L920.590292,225 L873.861777,225 L953.256308,11.71875 L993.978964,11.71875 L1073.81295,225 L1027.08443,225 L1012.28951,181.054687 Z M947.103964,145.458984 L1000.42428,145.458984 L973.617636,65.625 L947.103964,145.458984 Z M1117.3434,66.5039062 L1118.66176,84.8144531 C1129.98994,70.6542261 1145.17533,63.5742188 1164.2184,63.5742188 C1181.01536,63.5742188 1193.51523,68.5058101 1201.7184,78.3691406 C1209.92156,88.2324712 1214.12074,102.978417 1214.31605,122.607422 L1214.31605,225 L1171.98207,225 L1171.98207,123.632812 C1171.98207,114.648393 1170.02896,108.129903 1166.12269,104.077148 C1162.21642,100.024394 1155.72235,97.9980469 1146.64027,97.9980469 C1134.72615,97.9980469 1125.79069,103.076121 1119.83363,113.232422 L1119.83363,225 L1077.49965,225 L1077.49965,66.5039062 L1117.3434,66.5039062 Z M1433.21288,181.054687 L1356.1621,181.054687 L1341.51367,225 L1294.78515,225 L1374.17968,11.71875 L1414.90234,11.71875 L1494.73632,225 L1448.00781,225 L1433.21288,181.054687 Z M1368.02734,145.458984 L1421.34765,145.458984 L1394.54101,65.625 L1368.02734,145.458984 Z M1619.71208,169.042969 C1619.71208,160.742146 1616.78242,154.370139 1610.92302,149.926758 C1605.06362,145.483376 1594.51685,140.795923 1579.28239,135.864258 C1564.04794,130.932593 1551.98752,126.074243 1543.10075,121.289063 C1518.88188,108.20306 1506.77263,90.5762827 1506.77263,68.4082031 C1506.77263,56.884708 1510.01967,46.6064905 1516.51384,37.5732422 C1523.00801,28.5399939 1532.33409,21.4844004 1544.49236,16.40625 C1556.65062,11.3280996 1570.29794,8.7890625 1585.43474,8.7890625 C1600.66919,8.7890625 1614.24327,11.547824 1626.15739,17.0654297 C1638.07152,22.5830354 1647.32435,30.3710435 1653.91618,40.4296875 C1660.50801,50.4883315 1663.80388,61.9139985 1663.80388,74.7070312 L1619.85857,74.7070312 C1619.85857,64.9413574 1616.78243,57.3486599 1610.63005,51.9287109 C1604.47768,46.508762 1595.83518,43.7988281 1584.70232,43.7988281 C1573.96008,43.7988281 1565.61055,46.0693132 1559.65349,50.6103516 C1553.69643,55.1513899 1550.71794,61.1327754 1550.71794,68.5546875 C1550.71794,75.4883159 1554.20912,81.2988047 1561.19157,85.9863281 C1568.17403,90.6738516 1578.45225,95.0683389 1592.02654,99.1699219 C1617.02666,106.689491 1635.23937,116.015569 1646.66521,127.148438 C1658.09105,138.281306 1663.80388,152.148354 1663.80388,168.75 C1663.80388,187.207124 1656.82153,201.684518 1642.85661,212.182617 C1628.8917,222.680717 1610.09306,227.929688 1586.46013,227.929688 C1570.0538,227.929688 1555.11254,224.926788 1541.63591,218.920898 C1528.15928,212.915009 1517.88106,204.687552 1510.80095,194.238281 C1503.72084,183.78901 1500.18083,171.679756 1500.18083,157.910156 L1544.27263,157.910156 C1544.27263,181.44543 1558.33499,193.212891 1586.46013,193.212891 C1596.9094,193.212891 1605.06362,191.088888 1610.92302,186.84082 C1616.78242,182.592752 1619.71208,176.660194 1619.71208,169.042969 Z M1754.79526,139.453125 L1731.9437,164.0625 L1731.9437,225 L1687.99839,225 L1687.99839,11.71875 L1731.9437,11.71875 L1731.9437,108.398437 L1751.27964,81.8847656 L1805.62534,11.71875 L1859.67808,11.71875 L1783.94565,106.494141 L1861.87534,225 L1809.58042,225 L1754.79526,139.453125 Z" id="selectOne" fill="#FFFFFF"></path>
    </g>
</svg>