<?xml version="1.0" encoding="UTF-8"?>
<svg width="1662px" height="186px" viewBox="0 0 1662 186" version="1.1" xmlns="http://www.w3.org/2000/svg" xmlns:xlink="http://www.w3.org/1999/xlink">
    <!-- Generator: Sketch 49.3 (51167) - http://www.bohemiancoding.com/sketch -->
    <title>Select &amp; Message</title>
    <desc>Created with Sketch.</desc>
    <defs></defs>
    <g id="Page-1" stroke="none" stroke-width="1" fill="none" fill-rule="evenodd">
        <path d="M30.4076924,98.8 C30.4076924,103.600024 31.2743504,107.66665 33.0076924,111 C34.7410344,114.33335 37.0410114,117.033323 39.9076924,119.1 C42.7743734,121.166677 46.1410064,122.699995 50.0076924,123.7 C53.8743784,124.700005 57.8743384,125.2 62.0076924,125.2 C64.8077064,125.2 67.8076764,124.966669 71.0076924,124.5 C74.2077084,124.033331 77.2076784,123.13334 80.0076924,121.8 C82.8077064,120.46666 85.1410164,118.633345 87.0076924,116.3 C88.8743684,113.966655 89.8076924,111.000018 89.8076924,107.4 C89.8076924,103.533314 88.5743714,100.400012 86.1076924,98 C83.6410134,95.599988 80.4077124,93.600008 76.4076924,92 C72.4076724,90.399992 67.8743844,89.000006 62.8076924,87.8 C57.7410004,86.599994 52.6077184,85.266674 47.4076924,83.8 C42.0743324,82.46666 36.8743844,80.833343 31.8076924,78.9 C26.7410004,76.966657 22.2077124,74.466682 18.2076924,71.4 C14.2076724,68.333318 10.9743714,64.500023 8.50769245,59.9 C6.04101345,55.299977 4.80769245,49.733366 4.80769245,43.2 C4.80769245,35.86663 6.37434345,29.500027 9.50769245,24.1 C12.6410414,18.699973 16.7410004,14.200018 21.8076924,10.6 C26.8743844,6.999982 32.6076604,4.333342 39.0076924,2.6 C45.4077244,0.866658 51.8076604,0 58.2076924,0 C65.6743964,0 72.8409914,0.833325 79.7076924,2.5 C86.5743934,4.166675 92.6743324,6.866648 98.0076924,10.6 C103.341052,14.333352 107.574343,19.099971 110.707692,24.9 C113.841041,30.700029 115.407692,37.733292 115.407692,46 L85.0076924,46 C84.7410244,41.733312 83.8410334,38.200014 82.3076924,35.4 C80.7743514,32.599986 78.7410384,30.400008 76.2076924,28.8 C73.6743464,27.199992 70.7743754,26.06667 67.5076924,25.4 C64.2410094,24.73333 60.6743784,24.4 56.8076924,24.4 C54.2743464,24.4 51.7410384,24.666664 49.2076924,25.2 C46.6743464,25.733336 44.3743694,26.66666 42.3076924,28 C40.2410154,29.33334 38.5410324,30.99999 37.2076924,33 C35.8743524,35.00001 35.2076924,37.533318 35.2076924,40.6 C35.2076924,43.400014 35.7410204,45.666658 36.8076924,47.4 C37.8743644,49.133342 39.9743434,50.733326 43.1076924,52.2 C46.2410414,53.666674 50.5743314,55.133326 56.1076924,56.6 C61.6410534,58.066674 68.8743144,59.933322 77.8076924,62.2 C80.4743724,62.733336 84.1743354,63.699993 88.9076924,65.1 C93.6410494,66.500007 98.3410024,68.733318 103.007692,71.8 C107.674382,74.866682 111.707675,78.966641 115.107692,84.1 C118.507709,89.233359 120.207692,95.79996 120.207692,103.8 C120.207692,110.333366 118.941038,116.399972 116.407692,122 C113.874346,127.600028 110.107717,132.433313 105.107692,136.5 C100.107667,140.566687 93.9077294,143.733322 86.5076924,146 C79.1076554,148.266678 70.5410744,149.4 60.8076924,149.4 C52.9409864,149.4 45.3077294,148.433343 37.9076924,146.5 C30.5076554,144.566657 23.9743874,141.533354 18.3076924,137.4 C12.6409974,133.266646 8.14104245,128.000032 4.80769245,121.6 C1.47434245,115.199968 -0.12564155,107.600044 0.00769244993,98.8 L30.4076924,98.8 Z M203.093406,83.4 C201.760066,76.199964 199.393423,70.733352 195.993406,67 C192.593389,63.266648 187.426774,61.4 180.493406,61.4 C175.96005,61.4 172.193421,62.166659 169.193406,63.7 C166.193391,65.233341 163.793415,67.133322 161.993406,69.4 C160.193397,71.666678 158.926743,74.066654 158.193406,76.6 C157.460069,79.133346 157.02674,81.39999 156.893406,83.4 L203.093406,83.4 Z M156.893406,101.4 C157.293408,110.600046 159.626718,117.266646 163.893406,121.4 C168.160094,125.533354 174.293366,127.6 182.293406,127.6 C188.026768,127.6 192.960052,126.166681 197.093406,123.3 C201.22676,120.433319 203.760068,117.400016 204.693406,114.2 L229.693406,114.2 C225.693386,126.600062 219.560114,135.46664 211.293406,140.8 C203.026698,146.13336 193.026798,148.8 181.293406,148.8 C173.160032,148.8 165.826772,147.500013 159.293406,144.9 C152.76004,142.299987 147.226762,138.600024 142.693406,133.8 C138.16005,128.999976 134.660085,123.2667 132.193406,116.6 C129.726727,109.9333 128.493406,102.60004 128.493406,94.6 C128.493406,86.866628 129.76006,79.6667 132.293406,73 C134.826752,66.3333 138.426716,60.566691 143.093406,55.7 C147.760096,50.833309 153.326707,47.000014 159.793406,44.2 C166.260105,41.399986 173.4267,40 181.293406,40 C190.09345,40 197.76004,41.699983 204.293406,45.1 C210.826772,48.500017 216.193385,53.066638 220.393406,58.8 C224.593427,64.533362 227.62673,71.06663 229.493406,78.4 C231.360082,85.73337 232.026742,93.39996 231.493406,101.4 L156.893406,101.4 Z M246.77912,3.4 L275.17912,3.4 L275.17912,146.2 L246.77912,146.2 L246.77912,3.4 Z M364.864834,83.4 C363.531494,76.199964 361.164851,70.733352 357.764834,67 C354.364817,63.266648 349.198202,61.4 342.264834,61.4 C337.731478,61.4 333.964849,62.166659 330.964834,63.7 C327.964819,65.233341 325.564843,67.133322 323.764834,69.4 C321.964825,71.666678 320.698171,74.066654 319.964834,76.6 C319.231497,79.133346 318.798168,81.39999 318.664834,83.4 L364.864834,83.4 Z M318.664834,101.4 C319.064836,110.600046 321.398146,117.266646 325.664834,121.4 C329.931522,125.533354 336.064794,127.6 344.064834,127.6 C349.798196,127.6 354.73148,126.166681 358.864834,123.3 C362.998188,120.433319 365.531496,117.400016 366.464834,114.2 L391.464834,114.2 C387.464814,126.600062 381.331542,135.46664 373.064834,140.8 C364.798126,146.13336 354.798226,148.8 343.064834,148.8 C334.93146,148.8 327.5982,147.500013 321.064834,144.9 C314.531468,142.299987 308.99819,138.600024 304.464834,133.8 C299.931478,128.999976 296.431513,123.2667 293.964834,116.6 C291.498155,109.9333 290.264834,102.60004 290.264834,94.6 C290.264834,86.866628 291.531488,79.6667 294.064834,73 C296.59818,66.3333 300.198144,60.566691 304.864834,55.7 C309.531524,50.833309 315.098135,47.000014 321.564834,44.2 C328.031533,41.399986 335.198128,40 343.064834,40 C351.864878,40 359.531468,41.699983 366.064834,45.1 C372.5982,48.500017 377.964813,53.066638 382.164834,58.8 C386.364855,64.533362 389.398158,71.06663 391.264834,78.4 C393.13151,85.73337 393.79817,93.39996 393.264834,101.4 L318.664834,101.4 Z M478.150548,79.2 C476.283872,67.333274 469.283942,61.4 457.150548,61.4 C452.617192,61.4 448.81723,62.433323 445.750548,64.5 C442.683866,66.566677 440.183891,69.233317 438.250548,72.5 C436.317205,75.766683 434.950552,79.366647 434.150548,83.3 C433.350544,87.233353 432.950548,91.133314 432.950548,95 C432.950548,98.733352 433.350544,102.533314 434.150548,106.4 C434.950552,110.266686 436.250539,113.766651 438.050548,116.9 C439.850557,120.033349 442.283866,122.59999 445.350548,124.6 C448.41723,126.60001 452.150526,127.6 456.550548,127.6 C463.350582,127.6 468.583863,125.700019 472.250548,121.9 C475.917233,118.099981 478.21721,113.000032 479.150548,106.6 L506.550548,106.6 C504.683872,120.333402 499.350592,130.799964 490.550548,138 C481.750504,145.200036 470.48395,148.8 456.750548,148.8 C449.017176,148.8 441.917247,147.500013 435.450548,144.9 C428.983849,142.299987 423.483904,138.66669 418.950548,134 C414.417192,129.33331 410.883894,123.766699 408.350548,117.3 C405.817202,110.833301 404.550548,103.733372 404.550548,96 C404.550548,87.99996 405.717203,80.566701 408.050548,73.7 C410.383893,66.833299 413.817192,60.900025 418.350548,55.9 C422.883904,50.899975 428.417182,47.000014 434.950548,44.2 C441.483914,41.399986 448.950506,40 457.350548,40 C463.483912,40 469.383853,40.799992 475.050548,42.4 C480.717243,44.000008 485.783859,46.433317 490.250548,49.7 C494.717237,52.966683 498.350534,57.033309 501.150548,61.9 C503.950562,66.766691 505.550546,72.5333 505.950548,79.2 L478.150548,79.2 Z M556.236262,42.8 L577.036262,42.8 L577.036262,61.8 L556.236262,61.8 L556.236262,113 C556.236262,117.800024 557.036254,120.999992 558.636262,122.6 C560.23627,124.200008 563.436238,125 568.236262,125 C569.83627,125 571.369588,124.933334 572.836262,124.8 C574.302936,124.666666 575.702922,124.466668 577.036262,124.2 L577.036262,146.2 C574.63625,146.600002 571.96961,146.866666 569.036262,147 C566.102914,147.133334 563.236276,147.2 560.436262,147.2 C556.03624,147.2 551.869615,146.900003 547.936262,146.3 C544.002909,145.699997 540.536277,144.533342 537.536262,142.8 C534.536247,141.066658 532.169604,138.600016 530.436262,135.4 C528.70292,132.199984 527.836262,128.000026 527.836262,122.8 L527.836262,61.8 L510.636262,61.8 L510.636262,42.8 L527.836262,42.8 L527.836262,11.8 L556.236262,11.8 L556.236262,42.8 Z M723.60769,132 C717.874328,137.600028 711.774389,141.799986 705.30769,144.6 C698.840991,147.400014 691.541064,148.8 683.40769,148.8 C677.007658,148.8 670.974385,147.866676 665.30769,146 C659.640995,144.133324 654.741044,141.366685 650.60769,137.7 C646.474336,134.033315 643.207702,129.566693 640.80769,124.3 C638.407678,119.033307 637.20769,113.000034 637.20769,106.2 C637.20769,101.133308 638.074348,96.500021 639.80769,92.3 C641.541032,88.099979 643.907675,84.300017 646.90769,80.9 C649.907705,77.499983 653.341004,74.46668 657.20769,71.8 C661.074376,69.13332 665.074336,66.80001 669.20769,64.8 C665.341004,60.13331 662.107703,55.46669 659.50769,50.8 C656.907677,46.13331 655.60769,40.666698 655.60769,34.4 C655.60769,29.466642 656.641013,25.00002 658.70769,21 C660.774367,16.99998 663.541006,13.566681 667.00769,10.7 C670.474374,7.833319 674.441001,5.633341 678.90769,4.1 C683.374379,2.566659 688.007666,1.8 692.80769,1.8 C698.274384,1.8 703.374333,2.533326 708.10769,4 C712.841047,5.466674 716.974339,7.633319 720.50769,10.5 C724.041041,13.366681 726.841013,16.933312 728.90769,21.2 C730.974367,25.466688 732.00769,30.399972 732.00769,36 C732.00769,44.400042 729.574381,51.466638 724.70769,57.2 C719.840999,62.933362 713.807726,67.733314 706.60769,71.6 L725.00769,94.2 C726.474364,91.53332 727.607686,88.766681 728.40769,85.9 C729.207694,83.033319 729.807688,80.133348 730.20769,77.2 L754.80769,77.2 C754.14102,83.600032 752.674368,89.79997 750.40769,95.8 C748.141012,101.80003 745.00771,107.333308 741.00769,112.4 L770.00769,146.2 L735.20769,146.2 L723.60769,132 Z M684.20769,83.2 C681.674344,84.266672 679.207702,85.533326 676.80769,87 C674.407678,88.466674 672.274366,90.19999 670.40769,92.2 C668.541014,94.20001 667.041029,96.399988 665.90769,98.8 C664.774351,101.200012 664.20769,103.866652 664.20769,106.8 C664.20769,109.333346 664.774351,111.766655 665.90769,114.1 C667.041029,116.433345 668.541014,118.433325 670.40769,120.1 C672.274366,121.766675 674.441011,123.099995 676.90769,124.1 C679.374369,125.100005 681.94101,125.6 684.60769,125.6 C689.674382,125.6 694.107671,124.433345 697.90769,122.1 C701.707709,119.766655 705.27434,116.733352 708.60769,113 L684.20769,83.2 Z M707.20769,34.4 C707.20769,30.666648 705.907703,27.46668 703.30769,24.8 C700.707677,22.13332 697.674374,20.8 694.20769,20.8 C690.741006,20.8 687.741036,21.966655 685.20769,24.3 C682.674344,26.633345 681.40769,29.666648 681.40769,33.4 C681.40769,37.933356 682.607678,41.799984 685.00769,45 C687.407702,48.200016 689.94101,51.46665 692.60769,54.8 C696.60771,52.266654 700.041009,49.533348 702.90769,46.6 C705.774371,43.666652 707.20769,39.600026 707.20769,34.4 Z M832.579118,3.4 L876.779118,3.4 L910.179118,101.6 L910.579118,101.6 L942.179118,3.4 L986.379118,3.4 L986.379118,146.2 L956.979118,146.2 L956.979118,45 L956.579118,45 L921.579118,146.2 L897.379118,146.2 L862.379118,46 L861.979118,46 L861.979118,146.2 L832.579118,146.2 L832.579118,3.4 Z M1078.26483,83.4 C1076.93149,76.199964 1074.56485,70.733352 1071.16483,67 C1067.76482,63.266648 1062.5982,61.4 1055.66483,61.4 C1051.13148,61.4 1047.36485,62.166659 1044.36483,63.7 C1041.36482,65.233341 1038.96484,67.133322 1037.16483,69.4 C1035.36482,71.666678 1034.09817,74.066654 1033.36483,76.6 C1032.6315,79.133346 1032.19817,81.39999 1032.06483,83.4 L1078.26483,83.4 Z M1032.06483,101.4 C1032.46483,110.600046 1034.79814,117.266646 1039.06483,121.4 C1043.33152,125.533354 1049.46479,127.6 1057.46483,127.6 C1063.19819,127.6 1068.13148,126.166681 1072.26483,123.3 C1076.39819,120.433319 1078.93149,117.400016 1079.86483,114.2 L1104.86483,114.2 C1100.86481,126.600062 1094.73154,135.46664 1086.46483,140.8 C1078.19812,146.13336 1068.19822,148.8 1056.46483,148.8 C1048.33146,148.8 1040.9982,147.500013 1034.46483,144.9 C1027.93147,142.299987 1022.39819,138.600024 1017.86483,133.8 C1013.33148,128.999976 1009.83151,123.2667 1007.36483,116.6 C1004.89815,109.9333 1003.66483,102.60004 1003.66483,94.6 C1003.66483,86.866628 1004.93149,79.6667 1007.46483,73 C1009.99818,66.3333 1013.59814,60.566691 1018.26483,55.7 C1022.93152,50.833309 1028.49813,47.000014 1034.96483,44.2 C1041.43153,41.399986 1048.59813,40 1056.46483,40 C1065.26488,40 1072.93147,41.699983 1079.46483,45.1 C1085.9982,48.500017 1091.36481,53.066638 1095.56483,58.8 C1099.76485,64.533362 1102.79816,71.06663 1104.66483,78.4 C1106.53151,85.73337 1107.19817,93.39996 1106.66483,101.4 L1032.06483,101.4 Z M1143.15055,112.6 C1143.15055,115.666682 1143.78387,118.299989 1145.05055,120.5 C1146.31722,122.700011 1147.95054,124.499993 1149.95055,125.9 C1151.95056,127.300007 1154.25053,128.33333 1156.85055,129 C1159.45056,129.66667 1162.15053,130 1164.95055,130 C1166.95056,130 1169.05054,129.766669 1171.25055,129.3 C1173.45056,128.833331 1175.45054,128.100005 1177.25055,127.1 C1179.05056,126.099995 1180.55054,124.766675 1181.75055,123.1 C1182.95055,121.433325 1183.55055,119.333346 1183.55055,116.8 C1183.55055,112.533312 1180.71724,109.333344 1175.05055,107.2 C1169.38385,105.066656 1161.48393,102.933344 1151.35055,100.8 C1147.21719,99.866662 1143.1839,98.766673 1139.25055,97.5 C1135.31719,96.233327 1131.81723,94.566677 1128.75055,92.5 C1125.68386,90.433323 1123.21722,87.833349 1121.35055,84.7 C1119.48387,81.566651 1118.55055,77.733356 1118.55055,73.2 C1118.55055,66.5333 1119.85053,61.066688 1122.45055,56.8 C1125.05056,52.533312 1128.48386,49.166679 1132.75055,46.7 C1137.01723,44.233321 1141.81719,42.500005 1147.15055,41.5 C1152.48391,40.499995 1157.95052,40 1163.55055,40 C1169.15057,40 1174.58385,40.533328 1179.85055,41.6 C1185.11724,42.666672 1189.81719,44.466654 1193.95055,47 C1198.0839,49.533346 1201.5172,52.899979 1204.25055,57.1 C1206.98389,61.300021 1208.61721,66.599968 1209.15055,73 L1182.15055,73 C1181.75054,67.533306 1179.6839,63.833343 1175.95055,61.9 C1172.21719,59.966657 1167.81724,59 1162.75055,59 C1161.15054,59 1159.41722,59.099999 1157.55055,59.3 C1155.68387,59.500001 1153.98389,59.93333 1152.45055,60.6 C1150.91721,61.26667 1149.61722,62.233327 1148.55055,63.5 C1147.48387,64.766673 1146.95055,66.466656 1146.95055,68.6 C1146.95055,71.133346 1147.88387,73.199992 1149.75055,74.8 C1151.61722,76.400008 1154.05053,77.699995 1157.05055,78.7 C1160.05056,79.700005 1163.48386,80.599996 1167.35055,81.4 C1171.21723,82.200004 1175.15053,83.066662 1179.15055,84 C1183.2839,84.933338 1187.31719,86.06666 1191.25055,87.4 C1195.1839,88.73334 1198.68386,90.499989 1201.75055,92.7 C1204.81723,94.900011 1207.28387,97.633317 1209.15055,100.9 C1211.01722,104.166683 1211.95055,108.199976 1211.95055,113 C1211.95055,119.800034 1210.58389,125.499977 1207.85055,130.1 C1205.1172,134.700023 1201.55057,138.399986 1197.15055,141.2 C1192.75052,144.000014 1187.71724,145.966661 1182.05055,147.1 C1176.38385,148.233339 1170.61724,148.8 1164.75055,148.8 C1158.75052,148.8 1152.88391,148.200006 1147.15055,147 C1141.41718,145.799994 1136.31724,143.800014 1131.85055,141 C1127.38386,138.199986 1123.71723,134.500023 1120.85055,129.9 C1117.98387,125.299977 1116.41721,119.533368 1116.15055,112.6 L1143.15055,112.6 Z M1248.23626,112.6 C1248.23626,115.666682 1248.86959,118.299989 1250.13626,120.5 C1251.40293,122.700011 1253.03625,124.499993 1255.03626,125.9 C1257.03627,127.300007 1259.33625,128.33333 1261.93626,129 C1264.53627,129.66667 1267.23625,130 1270.03626,130 C1272.03627,130 1274.13625,129.766669 1276.33626,129.3 C1278.53627,128.833331 1280.53625,128.100005 1282.33626,127.1 C1284.13627,126.099995 1285.63625,124.766675 1286.83626,123.1 C1288.03627,121.433325 1288.63626,119.333346 1288.63626,116.8 C1288.63626,112.533312 1285.80296,109.333344 1280.13626,107.2 C1274.46957,105.066656 1266.56964,102.933344 1256.43626,100.8 C1252.30291,99.866662 1248.26961,98.766673 1244.33626,97.5 C1240.40291,96.233327 1236.90294,94.566677 1233.83626,92.5 C1230.76958,90.433323 1228.30294,87.833349 1226.43626,84.7 C1224.56958,81.566651 1223.63626,77.733356 1223.63626,73.2 C1223.63626,66.5333 1224.93625,61.066688 1227.53626,56.8 C1230.13627,52.533312 1233.56957,49.166679 1237.83626,46.7 C1242.10295,44.233321 1246.9029,42.500005 1252.23626,41.5 C1257.56962,40.499995 1263.03623,40 1268.63626,40 C1274.23629,40 1279.66957,40.533328 1284.93626,41.6 C1290.20295,42.666672 1294.90291,44.466654 1299.03626,47 C1303.16961,49.533346 1306.60291,52.899979 1309.33626,57.1 C1312.06961,61.300021 1313.70292,66.599968 1314.23626,73 L1287.23626,73 C1286.83626,67.533306 1284.76961,63.833343 1281.03626,61.9 C1277.30291,59.966657 1272.90295,59 1267.83626,59 C1266.23625,59 1264.50294,59.099999 1262.63626,59.3 C1260.76958,59.500001 1259.0696,59.93333 1257.53626,60.6 C1256.00292,61.26667 1254.70293,62.233327 1253.63626,63.5 C1252.56959,64.766673 1252.03626,66.466656 1252.03626,68.6 C1252.03626,71.133346 1252.96958,73.199992 1254.83626,74.8 C1256.70294,76.400008 1259.13625,77.699995 1262.13626,78.7 C1265.13628,79.700005 1268.56957,80.599996 1272.43626,81.4 C1276.30295,82.200004 1280.23624,83.066662 1284.23626,84 C1288.36961,84.933338 1292.40291,86.06666 1296.33626,87.4 C1300.26961,88.73334 1303.76958,90.499989 1306.83626,92.7 C1309.90294,94.900011 1312.36958,97.633317 1314.23626,100.9 C1316.10294,104.166683 1317.03626,108.199976 1317.03626,113 C1317.03626,119.800034 1315.66961,125.499977 1312.93626,130.1 C1310.20291,134.700023 1306.63628,138.399986 1302.23626,141.2 C1297.83624,144.000014 1292.80296,145.966661 1287.13626,147.1 C1281.46957,148.233339 1275.70296,148.8 1269.83626,148.8 C1263.83623,148.8 1257.96962,148.200006 1252.23626,147 C1246.5029,145.799994 1241.40295,143.800014 1236.93626,141 C1232.46957,138.199986 1228.80294,134.500023 1225.93626,129.9 C1223.06958,125.299977 1221.50293,119.533368 1221.23626,112.6 L1248.23626,112.6 Z M1330.12197,74.6 C1330.52198,67.9333 1332.18863,62.400022 1335.12197,58 C1338.05532,53.599978 1341.78862,50.06668 1346.32197,47.4 C1350.85533,44.73332 1355.95528,42.833339 1361.62197,41.7 C1367.28867,40.566661 1372.98861,40 1378.72197,40 C1383.922,40 1389.18861,40.366663 1394.52197,41.1 C1399.85533,41.833337 1404.72195,43.266656 1409.12197,45.4 C1413.522,47.533344 1417.12196,50.499981 1419.92197,54.3 C1422.72199,58.100019 1424.12197,63.133302 1424.12197,69.4 L1424.12197,123.2 C1424.12197,127.86669 1424.38864,132.333312 1424.92197,136.6 C1425.45531,140.866688 1426.38863,144.066656 1427.72197,146.2 L1398.92197,146.2 C1398.38864,144.599992 1397.95531,142.966675 1397.62197,141.3 C1397.28864,139.633325 1397.05531,137.933342 1396.92197,136.2 C1392.38862,140.86669 1387.05534,144.133324 1380.92197,146 C1374.78861,147.866676 1368.52201,148.8 1362.12197,148.8 C1357.18862,148.8 1352.58866,148.200006 1348.32197,147 C1344.05529,145.799994 1340.32199,143.933346 1337.12197,141.4 C1333.92196,138.866654 1331.42198,135.666686 1329.62197,131.8 C1327.82197,127.933314 1326.92197,123.33336 1326.92197,118 C1326.92197,112.133304 1327.9553,107.300019 1330.02197,103.5 C1332.08865,99.699981 1334.75529,96.666678 1338.02197,94.4 C1341.28866,92.133322 1345.02195,90.433339 1349.22197,89.3 C1353.422,88.166661 1357.65529,87.26667 1361.92197,86.6 C1366.18866,85.93333 1370.38862,85.400002 1374.52197,85 C1378.65533,84.599998 1382.32196,84.000004 1385.52197,83.2 C1388.72199,82.399996 1391.2553,81.233341 1393.12197,79.7 C1394.98865,78.166659 1395.85531,75.933348 1395.72197,73 C1395.72197,69.933318 1395.22198,67.500009 1394.22197,65.7 C1393.22197,63.899991 1391.88865,62.500005 1390.22197,61.5 C1388.5553,60.499995 1386.62199,59.833335 1384.42197,59.5 C1382.22196,59.166665 1379.85532,59 1377.32197,59 C1371.72195,59 1367.32199,60.199988 1364.12197,62.6 C1360.92196,65.000012 1359.05531,68.999972 1358.52197,74.6 L1330.12197,74.6 Z M1395.72197,95.6 C1394.52197,96.666672 1393.02198,97.499997 1391.22197,98.1 C1389.42197,98.700003 1387.48865,99.199998 1385.42197,99.6 C1383.3553,100.000002 1381.18865,100.333332 1378.92197,100.6 C1376.6553,100.866668 1374.38865,101.199998 1372.12197,101.6 C1369.98863,102.000002 1367.88865,102.53333 1365.82197,103.2 C1363.7553,103.86667 1361.95532,104.766661 1360.42197,105.9 C1358.88863,107.033339 1357.65531,108.466658 1356.72197,110.2 C1355.78864,111.933342 1355.32197,114.13332 1355.32197,116.8 C1355.32197,119.333346 1355.78864,121.466658 1356.72197,123.2 C1357.65531,124.933342 1358.92197,126.299995 1360.52197,127.3 C1362.12198,128.300005 1363.98863,128.999998 1366.12197,129.4 C1368.25532,129.800002 1370.4553,130 1372.72197,130 C1378.322,130 1382.65529,129.066676 1385.72197,127.2 C1388.78866,125.333324 1391.0553,123.100013 1392.52197,120.5 C1393.98865,117.899987 1394.88864,115.26668 1395.22197,112.6 C1395.55531,109.93332 1395.72197,107.800008 1395.72197,106.2 L1395.72197,95.6 Z M1492.00769,121.8 C1496.00771,121.8 1499.54101,121.000008 1502.60769,119.4 C1505.67437,117.799992 1508.20768,115.66668 1510.20769,113 C1512.2077,110.33332 1513.70768,107.300017 1514.70769,103.9 C1515.70769,100.499983 1516.20769,96.933352 1516.20769,93.2 C1516.20769,88.933312 1515.80769,84.900019 1515.00769,81.1 C1514.20768,77.299981 1512.87436,73.933348 1511.00769,71 C1509.14101,68.066652 1506.67437,65.733342 1503.60769,64 C1500.54101,62.266658 1496.67438,61.4 1492.00769,61.4 C1488.00767,61.4 1484.57437,62.199992 1481.70769,63.8 C1478.84101,65.400008 1476.44103,67.566653 1474.50769,70.3 C1472.57435,73.033347 1471.17436,76.166649 1470.30769,79.7 C1469.44102,83.233351 1469.00769,86.933314 1469.00769,90.8 C1469.00769,94.533352 1469.37435,98.233315 1470.10769,101.9 C1470.84103,105.566685 1472.10768,108.866652 1473.90769,111.8 C1475.7077,114.733348 1478.07434,117.133324 1481.00769,119 C1483.94104,120.866676 1487.60767,121.8 1492.00769,121.8 Z M1543.20769,139.6 C1543.20769,143.733354 1542.64103,148.46664 1541.50769,153.8 C1540.37435,159.13336 1537.94104,164.099977 1534.20769,168.7 C1530.47434,173.300023 1525.07439,177.199984 1518.00769,180.4 C1510.94099,183.600016 1501.47441,185.2 1489.60769,185.2 C1484.541,185.2 1479.37438,184.566673 1474.10769,183.3 C1468.841,182.033327 1464.04104,180.06668 1459.70769,177.4 C1455.37433,174.73332 1451.77437,171.300021 1448.90769,167.1 C1446.04101,162.899979 1444.40769,157.866696 1444.00769,152 L1472.20769,152 C1473.54103,157.33336 1476.141,161.033323 1480.00769,163.1 C1483.87437,165.166677 1488.341,166.2 1493.40769,166.2 C1501.40773,166.2 1507.241,163.800024 1510.90769,159 C1514.57437,154.199976 1516.34102,148.13337 1516.20769,140.8 L1516.20769,127.2 L1515.80769,127.2 C1512.74101,132.666694 1508.37438,136.699987 1502.70769,139.3 C1497.04099,141.900013 1491.07439,143.2 1484.80769,143.2 C1477.07432,143.2 1470.40772,141.833347 1464.80769,139.1 C1459.20766,136.366653 1454.60771,132.633357 1451.00769,127.9 C1447.40767,123.166643 1444.77436,117.633365 1443.10769,111.3 C1441.44101,104.966635 1440.60769,98.266702 1440.60769,91.2 C1440.60769,84.5333 1441.57435,78.100031 1443.50769,71.9 C1445.44103,65.699969 1448.27434,60.233357 1452.00769,55.5 C1455.74104,50.766643 1460.37433,47.000014 1465.90769,44.2 C1471.44105,41.399986 1477.80765,40 1485.00769,40 C1491.80772,40 1497.77433,41.266654 1502.90769,43.8 C1508.04105,46.333346 1512.341,50.59997 1515.80769,56.6 L1516.20769,56.6 L1516.20769,42.8 L1543.20769,42.8 L1543.20769,139.6 Z M1633.2934,83.4 C1631.96006,76.199964 1629.59342,70.733352 1626.1934,67 C1622.79339,63.266648 1617.62677,61.4 1610.6934,61.4 C1606.16005,61.4 1602.39342,62.166659 1599.3934,63.7 C1596.39339,65.233341 1593.99341,67.133322 1592.1934,69.4 C1590.39339,71.666678 1589.12674,74.066654 1588.3934,76.6 C1587.66007,79.133346 1587.22674,81.39999 1587.0934,83.4 L1633.2934,83.4 Z M1587.0934,101.4 C1587.4934,110.600046 1589.82671,117.266646 1594.0934,121.4 C1598.36009,125.533354 1604.49336,127.6 1612.4934,127.6 C1618.22676,127.6 1623.16005,126.166681 1627.2934,123.3 C1631.42676,120.433319 1633.96006,117.400016 1634.8934,114.2 L1659.8934,114.2 C1655.89338,126.600062 1649.76011,135.46664 1641.4934,140.8 C1633.22669,146.13336 1623.22679,148.8 1611.4934,148.8 C1603.36003,148.8 1596.02677,147.500013 1589.4934,144.9 C1582.96004,142.299987 1577.42676,138.600024 1572.8934,133.8 C1568.36005,128.999976 1564.86008,123.2667 1562.3934,116.6 C1559.92672,109.9333 1558.6934,102.60004 1558.6934,94.6 C1558.6934,86.866628 1559.96006,79.6667 1562.4934,73 C1565.02675,66.3333 1568.62671,60.566691 1573.2934,55.7 C1577.96009,50.833309 1583.5267,47.000014 1589.9934,44.2 C1596.4601,41.399986 1603.6267,40 1611.4934,40 C1620.29345,40 1627.96004,41.699983 1634.4934,45.1 C1641.02677,48.500017 1646.39338,53.066638 1650.5934,58.8 C1654.79342,64.533362 1657.82673,71.06663 1659.6934,78.4 C1661.56008,85.73337 1662.22674,93.39996 1661.6934,101.4 L1587.0934,101.4 Z" id="Select-&amp;-Message" fill="#FFFFFF"></path>
    </g>
</svg>